<?xml version="1.0" standalone="no"?>
<!DOCTYPE svg PUBLIC "-//W3C//DTD SVG 1.1//EN" "http://www.w3.org/Graphics/SVG/1.1/DTD/svg11.dtd" >
<svg>
<metadata>
Created by FontForge 20110222 at Mon Oct 29 16:59:11 2012
 By Stefan Warting
Generated by Fontographer 3.5
</metadata>
<defs>
<font id="Teletype" horiz-adv-x="1000" >
  <font-face 
    font-family="Teletype"
    font-weight="5"
    font-stretch="normal"
    units-per-em="1000"
    panose-1="0 0 0 0 0 0 0 0 0 0"
    ascent="800"
    descent="-200"
    x-height="520"
    cap-height="703"
    bbox="-213 -200 1112 884"
    underline-thickness="20"
    underline-position="-190"
    unicode-range="U+0020-F002"
  />
<missing-glyph horiz-adv-x="800" 
d="M50 0v800h700v-800h-700zM700 50v700h-600v-700h600z" />
    <glyph glyph-name=".notdef" horiz-adv-x="800" 
d="M50 0v800h700v-800h-700zM700 50v700h-600v-700h600z" />
    <glyph glyph-name=".null" horiz-adv-x="0" 
 />
    <glyph glyph-name="nonmarkingreturn" horiz-adv-x="406" 
 />
    <glyph glyph-name="space" unicode=" " horiz-adv-x="406" 
 />
    <glyph glyph-name="exclam" unicode="!" horiz-adv-x="185" 
d="M128 674q0 -108 -4 -193q-11 -233 -11 -280q0 -9 -3 -19t-15 -10q-9 0 -14 9t-5 20q0 76 -11 281q-6 112 -6 192q0 11 11 21t25 10q13 0 23 -9t10 -22zM95 0q-23 0 -36.5 14.5t-13.5 35.5t13 36t37 15q25 0 37.5 -14.5t12.5 -36.5q0 -20 -13 -35t-37 -15z" />
    <glyph glyph-name="quotedbl" unicode="&#x22;" horiz-adv-x="344" 
d="M261 680l-2 -243q0 -13 -5 -20.5t-23 -7.5t-23 6.5t-5 21.5l-2 243q0 14 6 22.5t24 8.5q17 0 23.5 -8.5t6.5 -22.5zM129 680l-2 -243q0 -13 -5 -20.5t-23 -7.5t-23 6.5t-5 21.5l-2 243q0 14 6 22.5t24 8.5q17 0 23.5 -8.5t6.5 -22.5z" />
    <glyph glyph-name="numbersign" unicode="#" horiz-adv-x="660" 
d="M659 473q0 -19 -14.5 -31.5t-32.5 -12.5h-116l-61 -163h143q12 0 16 -2q8 -4 8 -15q0 -19 -13.5 -31.5t-31.5 -12.5h-145l-62 -169q-7 -17 -16.5 -26.5t-23.5 -9.5q-22 0 -22 17q0 6 4 17t6 16l58 154h-158l-63 -168q-7 -16 -16.5 -26t-23.5 -10q-22 0 -22 17q0 6 5 18
t6 15l58 154h-119q-22 0 -22 17q0 20 13.5 32.5t31.5 12.5h119l59 163h-142q-11 0 -15 2q-7 3 -7 14q0 21 13 33t31 12h143l63 165q10 36 41 36q19 0 19 -17q0 -7 -5 -17l-61 -167h158l60 165q7 17 17.5 26.5t25.5 9.5q20 0 20 -17q0 -6 -5 -18t-6 -15l-56 -151h117
q12 0 16 -2q8 -4 8 -15zM438 429h-157l-62 -164h158z" />
    <glyph glyph-name="dollar" unicode="$" horiz-adv-x="640" 
d="M578 197q0 -67 -46 -118.5t-127 -72.5v-108q0 -8 -7.5 -14.5t-13.5 -6.5q-10 0 -16.5 6.5t-6.5 16.5v98l-43 -3h-16q-7 0 -15 1t-12 1v-100q0 -6 -7.5 -13.5t-15.5 -7.5q-10 0 -16.5 6.5t-6.5 16.5v105q-80 18 -130 62q-55 49 -55 117q0 32 21 51t47 19q21 0 35 -12
t14 -34q0 -21 -10 -29t-25 -8q-9 0 -17 2q-3 0 -8 3q8 -32 19 -49q35 -54 109 -72v294q-80 21 -117 64q-31 36 -31 86q0 64 43 112q39 43 105 64v105q0 24 22 24q23 0 23 -22v-96l27 3t17 1h20.5t22.5 -2v93q0 24 22 24q23 0 23 -22v-103q63 -16 107.5 -52.5t44.5 -82.5
q0 -29 -14 -42.5t-36 -13.5q-17 0 -30.5 9.5t-13.5 24.5q0 25 15 33q5 2 16 3q11 13 -17 33.5t-72 34.5l-1 -256q91 -25 134 -71q39 -42 39 -102zM229 412v207q-37 -16 -60 -43.5t-23 -65.5q0 -34 24 -60q21 -22 59 -38zM361 380v257l-40 3l-47 -6v-237q11 -3 24.5 -5.5
t26.5 -4.5zM361 48v273l-87 18l1 -293l38 -1zM519 188q0 50 -26.5 77t-87.5 45v-254q56 15 85 47t29 85z" />
    <glyph glyph-name="percent" unicode="%" horiz-adv-x="844" 
d="M612 668l-347 -664q-5 -6 -10 -6q-8 0 -17 5t-9 14q0 4 4 14l286 547q-10 -9 -18 -13q-24 -13 -55 -13q-34 0 -61 15q-9 5 -21 16q1 -12 2 -19q7 -54 7 -72q0 -71 -40 -123q-43 -56 -109 -56q-65 0 -105.5 53t-40.5 126q0 78 37 134q41 62 109 62q49 0 116 -52t109 -52
q48 0 91 46q14 15 34 47q7 12 12 16q11 8 24 6q10 0 10 -10q0 -5 -3 -12t-5 -9zM774 199q0 -71 -42 -125.5t-108 -54.5q-65 0 -105.5 54t-40.5 126q0 77 37 133q41 62 109 62t111 -62q39 -56 39 -133zM322 490q0 62 -22 104q-26 51 -76 51q-48 0 -73 -50q-21 -42 -21 -105
q0 -55 22 -93q26 -45 72 -45q45 0 73 45q25 40 25 93zM722 199q0 62 -22 104q-26 51 -76 51q-49 0 -73 -50q-20 -41 -20 -105q0 -54 23.5 -97t69.5 -43q43 0 72 46q26 42 26 94z" />
    <glyph glyph-name="ampersand" unicode="&#x26;" horiz-adv-x="905" 
d="M827 28q0 -15 -15 -21q-5 -2 -16 -3h-175q-29 0 -47 5q-31 9 -58 32q-19 16 -41 39q-13 14 -15 13q-33 -34 -55 -50q-68 -50 -132 -50q-86 0 -146.5 55.5t-60.5 137.5q0 69 47 127q33 41 87 73q41 24 48 24q-16 26 -24 44q-26 55 -33 106q-1 5 -1 15q0 50 43 85.5
t98 35.5q54 0 93 -30q44 -34 44 -88q0 -18 -5.5 -37t-17.5 -42q-23 -42 -75 -82q-17 -13 -47 -31q12 -21 19 -34q21 -36 40 -62l75 -100q14 26 21 42q24 51 32 81q19 85 72 139t123 54q44 0 81 -35t37 -82q0 -48 -32 -81t-80 -33q-31 0 -55.5 15t-24.5 41q0 18 13.5 30
t25.5 9q13 -3 18.5 -9.5t5.5 -16.5q0 -8 -2 -15q0 -2 -3 -6q4 -2 7 -2q9 -2 18 -2q22 0 36 12q21 18 21 59q0 31 -23.5 49.5t-64.5 18.5q-69 0 -108 -101q-20 -61 -26 -78q-19 -55 -39 -96q-7 -15 -19 -36q13 -16 20 -24q24 -28 33 -35q22 -17 36 -24q28 -14 57 -14h158h10
q22 -4 22 -22zM413 564q1 4 1 13q0 34 -25 52.5t-59 18.5q-36 0 -60 -17.5t-24 -53.5q0 -65 36 -125q6 -10 18 -24q35 20 53 35q54 46 60 101zM425 137q-10 14 -17 23q-47 63 -62.5 85.5t-48.5 75.5q-9 15 -25 41q-49 -23 -73 -41q-74 -56 -74 -128q0 -68 51 -109
q45 -36 98 -36q54 0 108 44q18 14 43 45z" />
    <glyph glyph-name="quotesingle" unicode="'" horiz-adv-x="234" 
d="M147 680l-2 -243q0 -13 -5 -20.5t-23 -7.5t-23 6.5t-5 21.5l-2 243q0 14 6 22.5t24 8.5q17 0 23.5 -8.5t6.5 -22.5z" />
    <glyph glyph-name="parenleft" unicode="(" horiz-adv-x="497" 
d="M435 818q0 -9 -13 -15q-2 -1 -6 -2q-119 -60 -197 -181q-84 -130 -84 -282q0 -147 95 -286q83 -122 188 -175q5 -1 7 -2q8 -4 9 -11q1 -6 -7 -8q-2 0 -8 -1q-149 44 -252 174q-109 138 -109 309q0 159 119 308q105 131 223 170q6 2 13 4t14 2q8 0 8 -4z" />
    <glyph glyph-name="parenright" unicode=")" horiz-adv-x="497" 
d="M424 339q0 -170 -109 -309q-102 -130 -252 -175q-6 1 -8 1q-8 3 -7 9q0 6 8 10q2 1 8 3q105 53 188 175q95 139 95 286q0 152 -84 282q-78 120 -197 181q-6 3 -9 4q-9 5 -9 13q0 4 8 3.5t26 -5.5q117 -39 222 -170q120 -150 120 -308z" />
    <glyph glyph-name="asterisk" unicode="*" horiz-adv-x="416" 
d="M389 613q9 -24 -42 -51q-60 -27 -119 -54l78 -32q79 -33 79 -58q0 -5 -3.5 -12t-16.5 -7q-26 0 -87 44.5t-63 42.5t8 -65q6 -38 6 -61q0 -47 -23 -47q-13 0 -18.5 13.5t-5.5 37.5q0 21 3.5 50.5t7.5 62.5q0 8 -2 9q-5 3 -64.5 -41.5t-81.5 -44.5q-10 0 -14 8q-2 3 -2 10
q0 20 49.5 43t101.5 46q-67 32 -111 57q-48 28 -38 49q6 11 18 11q19 0 60 -31.5t82 -63.5q2 10 1 25q-9 83 -9 96q0 27 5 40t18 13t18.5 -12.5t5.5 -36.5q0 -27 -12 -97q-5 -28 -3 -29t64 46q66 51 92 51q14 0 18 -12z" />
    <glyph glyph-name="plus" unicode="+" horiz-adv-x="620" 
d="M555 246h-222v-224h-60v224h-222v60h222v221h60v-221h222v-60z" />
    <glyph glyph-name="comma" unicode="," horiz-adv-x="172" 
d="M142 19q0 -28 -6 -52.5t-23 -48.5q-13 -17 -36 -36.5t-28 -13.5q-4 4 23 39q16 22 22 34.5t8.5 24.5t2.5 23q0 10 -1 16q0 2 -2 6q-6 -3 -13 -5.5t-15 -2.5q-24 0 -37.5 14.5t-13.5 34.5t13.5 35.5t38.5 15.5q32 0 51 -28q16 -24 16 -56z" />
    <glyph glyph-name="hyphen" unicode="-" horiz-adv-x="229" 
d="M197 312q5 0 8 -3q6 -6 6 -15q0 -15 -17 -15h-163q-11 0 -11 18q0 15 13 15h164z" />
    <glyph glyph-name="period" unicode="." horiz-adv-x="200" 
d="M108 -5q-23 0 -36.5 14.5t-13.5 35.5q0 20 13 35t37 15q25 0 37.5 -14t12.5 -36q0 -20 -13 -35t-37 -15z" />
    <glyph glyph-name="slash" unicode="/" horiz-adv-x="465" 
d="M449 816l-377 -927q-11 -17 -17 -22q-14 -12 -26 -6q-10 5 -10 22q0 13 4 25l385 928q6 9 19 9q12 0 18 -8.5t4 -20.5z" />
    <glyph glyph-name="zero" unicode="0" horiz-adv-x="693" 
d="M635 335q0 -150 -64 -242q-76 -109 -225 -109q-141 0 -222 119q-68 100 -68 234q0 139 74 240q82 111 216 111q142 0 220 -110q69 -97 69 -243zM557 337q0 122 -48 202q-57 94 -163 94q-107 0 -161 -88q-47 -77 -47 -208q0 -130 45 -207q53 -91 163 -91q117 0 169 94
q42 75 42 204z" />
    <glyph glyph-name="one" unicode="1" horiz-adv-x="545" 
d="M481 20q0 -12 -9 -19t-21 -5q-43 0 -66 1q-92 4 -107 4q-44 0 -104 -2.5t-73 -2.5q-27 0 -27 24q0 11 9 18.5t20 5.5q6 -1 21 -2.5t30 -1.5q24 0 42.5 3.5t27 12t11 60.5t2.5 141v116v23v17q0 75 -2 144.5t-17.5 79.5t-26.5 13.5t-23 3.5l-53 -9q-29 0 -29 30q0 10 8 18
t19 8l84 -4l91 4q12 0 19 -7.5t5 -19.5q0 -66 -2.5 -157t-2.5 -148q0 -83 1 -190.5t18 -122.5q11 -9 28 -12.5t40 -3.5q17 0 29 1t21 3q10 5 23.5 -3.5t13.5 -20.5z" />
    <glyph glyph-name="two" unicode="2" horiz-adv-x="670" 
d="M598 109q0 -63 -39 -104t-97 -41q-46 0 -99 38q-116 83 -154 83q-26 0 -62 -23q-12 -7 -31 -24q18 -1 28.5 -7.5t14.5 -25.5q4 -18 -9.5 -30t-33.5 -12q-9 0 -17 3q-29 10 -40.5 39.5t-11.5 60.5q0 114 86 183q48 38 148 73q123 44 150 61q71 45 71 124q0 67 -57.5 112.5
t-132.5 45.5q-102 0 -152 -68q-16 -22 -30 -68q4 2 7 3q9 3 19 3q18 0 29.5 -11.5t11.5 -42.5q0 -21 -16.5 -34t-39.5 -13q-18 0 -30.5 7.5t-20.5 18.5t-12 26t-4 30q0 9 2 20t4 19q21 69 84.5 113t144.5 44q98 0 176.5 -58t78.5 -139q0 -98 -71 -152q-54 -42 -224 -103
q-79 -28 -120 -75q-25 -29 -38 -84q20 15 35 22q46 22 97 22q40 0 112.5 -59.5t116.5 -59.5q43 0 62 24q14 18 14 47q0 15 -1 22t-3 11q-7 -4 -11 -6q-13 -6 -25 -6q-11 0 -19.5 4.5t-16.5 17.5t-8 25q0 20 16.5 34.5t39.5 14.5q36 0 57 -31.5t21 -73.5z" />
    <glyph glyph-name="three" unicode="3" horiz-adv-x="704" 
d="M622 237q0 -104 -88 -173q-83 -65 -196 -65q-128 0 -210 72q-67 59 -67 117q-1 6 -1 11q0 40 23.5 69.5t65.5 29.5q23 0 35.5 -14t12.5 -34q0 -13 -7 -24t-18.5 -16t-23.5 -5q-7 0 -15 2q-2 0 -7 2q9 -52 27 -78q54 -78 187 -78q91 0 150 41q68 47 68 133q0 88 -52 128
q-45 35 -127 35q-27 0 -59 -12q-9 -9 -26 -9q-13 0 -18 7.5t-5 16.5q0 16 16 34q2 3 9 8q27 24 64 61l39 39l100 104h-165h-36.5t-38.5 1q-60 0 -80.5 -5.5t-23.5 -17t-3 -26.5q0 -19 4 -45q1 -8 4 -22q0 -14 -2 -20q-6 -20 -24 -20q-31 0 -31 32q0 17 2.5 41t2.5 30
q0 12 -1 22l-2 20q0 10 1 16q-1 20 -1 29q0 16 6 21.5t14.5 6.5t13.5 2q41 -2 91.5 -3t96.5 -1q48 0 140 2t105 2q9 -1 19 -2.5t15.5 -10t5.5 -21.5q0 -10 -5.5 -19.5t-14.5 -12.5q-27 -23 -63 -56q-26 -24 -40 -37q-27 -25 -68 -68q-14 -14 -38 -40q31 0 62 -6
q72 -14 115 -50q62 -52 62 -144z" />
    <glyph glyph-name="four" unicode="4" horiz-adv-x="703" 
d="M650 250q0 -12 -7.5 -20.5t-18.5 -8.5h-139v-126q3 -12 5 -18q7 -19 17.5 -24t25 -7t29.5 -2q24 0 36.5 1.5t17.5 3.5q13 -2 20 -7.5t7 -18.5q0 -16 -18 -24l-9 -3q-39 0 -60 1q-84 4 -97 4q-38 0 -90 -2.5t-64 -2.5t-20.5 7.5t-8.5 18.5t8 19t19 8q14 -2 30 -4t20 -2
q14 0 25.5 2t21.5 9.5t15 24.5q1 5 2 16v126h-330q-7 -2 -15 -0.5t-13 3.5q-6 6 -8 10q-9 14 -9 25t8 19l337 408q7 13 22.5 17.5t36.5 4.5q28 0 35 -21q2 -7 2 -22v-389h138q12 0 20.5 -7.5t8.5 -18.5zM417 276v353l-295 -353h295z" />
    <glyph glyph-name="five" unicode="5" horiz-adv-x="670" 
d="M600 235q0 -108 -84 -181q-80 -70 -193 -70q-128 0 -203 58q-60 46 -65 103q-1 4 -1 13q0 37 23 59t67 22q21 0 32.5 -14t11.5 -35q0 -15 -8.5 -25.5t-19 -15t-20.5 -4.5q-9 0 -16 2q-2 0 -7 3q7 -22 16 -35q53 -78 184 -78q104 0 158 50t54 147q0 99 -62 146
q-48 36 -124 36q-59 0 -111 -25q-35 -17 -56 -39q-10 -11 -16 -16q-20 -17 -38 -13q-17 4 -23 21q-2 6 -4 18l24 313v8q1 8 6 11q2 2 9 3q2 0 6 1h372h8q8 -1 12.5 -6.5t5 -27t1.5 -32.5l9 -66q4 -12 -2.5 -23t-18.5 -11q-13 -1 -20 4q-4 3 -7.5 19t-6.5 27q-9 35 -21 54
q-1 3 -80 4t-94 1h-68.5t-48.5 -1q-2 -21 -6 -51t-4 -48l-9 -125q39 16 62 24q74 25 118 25q125 0 193 -64q65 -61 65 -166z" />
    <glyph glyph-name="six" unicode="6" horiz-adv-x="682" 
d="M603 233q0 -113 -71 -177t-191 -64q-129 0 -209.5 88t-80.5 239q0 161 71 273q82 128 226 128q85 0 150.5 -38t65.5 -92q0 -29 -11 -48q-15 -25 -42 -25q-17 0 -35.5 13.5t-18.5 28.5q0 24 17 39q5 4 17 10q-5 12 -11 18q-37 41 -128 41q-107 0 -165 -80
q-42 -58 -56 -150l-6 -82q33 38 57 56q76 57 162 57q113 0 186 -66t73 -169zM539 231q0 80 -55.5 131.5t-143.5 51.5q-92 0 -143.5 -50.5t-51.5 -132.5t52.5 -137.5t139.5 -55.5q96 0 149 54t53 139z" />
    <glyph glyph-name="seven" unicode="7" horiz-adv-x="651" 
d="M592 660q0 -87 -36.5 -144t-146.5 -140q-59 -44 -76 -122q-12 -56 -12 -206q0 -37 -8.5 -57.5t-30.5 -20.5q-30 0 -43.5 27t-13.5 60q0 142 53 246q37 73 93 114q89 65 130 112q24 28 27 55q-17 -9 -28 -13q-36 -13 -73 -13q-56 0 -134.5 54.5t-126.5 54.5
q-30 0 -43.5 -28.5t-13.5 -79.5q0 -36 8 -86q1 -4 1 -11q0 -19 -9 -32.5t-24 -13.5q-17 0 -24 15.5t-7 41.5q0 25 2 41q7 56 7 62q0 25 -2 43q-7 61 -7 71q0 15 7.5 30t21.5 15q10 0 16 -11q3 -5 5 -15t2 -18q0 -9 -1 -16q0 -3 -2 -7q19 19 32 28q42 29 85 29q40 0 153 -81
q53 -38 93 -38h11q17 0 39 19q7 6 19 20q-13 5 -19 9q-21 14 -25 36q-3 17 9 30t30 15q27 0 44.5 -20.5t17.5 -54.5z" />
    <glyph glyph-name="eight" unicode="8" horiz-adv-x="648" 
d="M580 196q0 -100 -78 -158q-71 -53 -174 -53q-111 0 -189 54q-87 60 -87 161q0 89 78 152q26 21 78 45q-36 20 -53 35q-53 48 -53 110q0 78 69 126q63 44 150 44t148 -42q68 -47 68 -126q0 -58 -50 -108q-16 -16 -50 -39q48 -22 71 -42q72 -63 72 -159zM471 540
q0 53 -44 85.5t-104 32.5q-61 0 -108 -31.5t-47 -84.5q0 -54 44.5 -87t104.5 -33t105 31q49 34 49 87zM518 193q0 69 -47 117q-54 55 -153 55q-93 0 -146.5 -47t-53.5 -118q0 -73 56.5 -119.5t151.5 -46.5q91 0 144 48q48 44 48 111z" />
    <glyph glyph-name="nine" unicode="9" horiz-adv-x="655" 
d="M586 379q0 -160 -63 -266q-77 -130 -227 -130q-90 0 -158.5 40t-68.5 94q0 29 10.5 48t39.5 19q16 0 32.5 -13.5t16.5 -28.5q0 -25 -14 -37q-4 -4 -15 -8q11 -13 19 -20q52 -46 136 -46q103 0 160 81q40 57 54 151q3 40 6 81q-31 -37 -55 -55q-72 -55 -157 -55
q-106 0 -178.5 67.5t-72.5 162.5q0 102 74 175t187 73q123 0 198.5 -92.5t75.5 -240.5zM497 466q0 81 -49 136q-52 58 -136 58q-96 0 -146 -62q-43 -53 -43 -132q0 -78 42 -125q48 -54 140 -54q90 0 141 50t51 129z" />
    <glyph glyph-name="colon" unicode=":" horiz-adv-x="200" 
d="M102 361q-23 0 -36.5 14.5t-13.5 35.5t13 36t37 15q25 0 37.5 -14.5t12.5 -36.5q0 -20 -13 -35t-37 -15zM103 0q-23 0 -36.5 14.5t-13.5 35.5t13 36t37 15q25 0 37.5 -14.5t12.5 -36.5q0 -20 -13 -35t-37 -15z" />
    <glyph glyph-name="semicolon" unicode=";" horiz-adv-x="200" 
d="M92 361q-23 0 -36.5 14.5t-13.5 35.5t13 36t37 15q25 0 37.5 -14.5t12.5 -36.5q0 -20 -13 -35t-37 -15zM162 16q0 -26 -6 -52t-23 -49q-12 -16 -35 -36t-28 -14q-3 4 7 18q36 51 38 55q6 13 8 29.5t2 17.5q0 11 -1 17q0 2 -2 6q-6 -3 -13 -5.5t-15 -2.5q-24 0 -37.5 14.5
t-13.5 34.5q0 21 13.5 36.5t38.5 15.5q32 0 51 -28q16 -24 16 -57z" />
    <glyph glyph-name="less" unicode="&#x3c;" horiz-adv-x="620" 
d="M558 11l-509 232v64l509 232v-68l-444 -196l444 -201v-63z" />
    <glyph glyph-name="equal" unicode="=" horiz-adv-x="620" 
d="M555 350h-504v60h504v-60zM555 155h-504v60h504v-60z" />
    <glyph glyph-name="greater" unicode="&#x3e;" horiz-adv-x="620" 
d="M557 243l-509 -232v63l434 201l-434 201v63l509 -232v-64z" />
    <glyph glyph-name="question" unicode="?" horiz-adv-x="565" 
d="M523 504q0 -73 -69 -125q-63 -36 -127 -73.5t-59 -78.5q1 -4 1 -16q0 -20 -6 -33t-20 -13q-31 0 -31 40q0 79 63 123q58 32 117 65q63 42 63 117q0 63 -41 101t-120 38t-136 -33q-64 -37 -64 -99q0 -34 25 -47q8 -4 25 -6q-2 3 -3 5q-3 7 -3 14q0 16 18 22q4 2 13 2
q17 0 27.5 -13.5t8.5 -27.5q-4 -25 -25.5 -39.5t-48.5 -14.5q-37 0 -64 23q-30 26 -30 72q0 90 89 145q75 46 167 46q89 0 159.5 -56.5t70.5 -137.5zM249 -9q-23 0 -36.5 14.5t-13.5 35.5t13 36t37 15q25 0 37.5 -14.5t12.5 -36.5q0 -20 -13 -35t-37 -15z" />
    <glyph glyph-name="at" unicode="@" horiz-adv-x="740" 
d="M725 441q0 -103 -64 -193q-30 -44 -69 -72q-46 -33 -94 -33q-25 0 -46 14t-21 39l3 14q-18 -30 -56.5 -48t-76.5 -18q-59 0 -91 38t-32 98q0 98 74.5 178.5t172.5 80.5q14 0 24 -1t38 -8q12 -6 25 -6q6 0 16 4q23 9 28 9q18 0 18 -14l-4 -21l-7 -26l-59 -216
q-4 -12 -5 -19t-1 -15q0 -22 22 -22q20 0 44 19.5t38 40.5q23 36 35 80t12 87q0 97 -60.5 160.5t-157.5 63.5q-137 0 -233.5 -108t-96.5 -247q0 -112 70.5 -187t181.5 -75q58 0 107.5 19t100.5 56q8 5 19 11.5t18 6.5q22 0 22 -21q0 -22 -38 -51q-8 -6 -32 -21
q-48 -30 -100.5 -45.5t-106.5 -15.5q-136 0 -228.5 90.5t-92.5 226.5q0 171 123 294t294 123q124 0 205 -73.5t81 -196.5zM487 463q-16 8 -32.5 13t-34.5 5q-71 0 -117.5 -61.5t-46.5 -135.5q0 -35 16.5 -55t51.5 -20q43 0 74 30q38 37 61 124z" />
    <glyph glyph-name="A" unicode="A" horiz-adv-x="814" 
d="M774 -5q-14 2 -35 3t-45 1q-31 0 -111.5 -2t-94.5 -2q-17 0 -27.5 6.5t-10.5 15.5q0 22 39 22q7 0 28.5 -2t25.5 -2q18 0 27.5 3.5t18.5 15.5q7 9 -28 100q-11 30 -36 90h-261q-20 -59 -29 -89q-29 -93 -23 -100q7 -8 19.5 -11.5t27.5 -3.5t37.5 2.5t23.5 2.5q15 0 26 -9
t11 -21q0 -20 -37 -20l-148 1l-129 -2q-18 0 -27.5 6.5t-9.5 15.5q0 10 9.5 18.5t24.5 8.5q6 0 22 -1t24 -1q17 0 27.5 3.5t14.5 14.5l226 624q3 8 19 13t33 5q18 0 30.5 -4.5t15.5 -13.5q14 -37 88 -257q60 -177 89 -255q43 -116 58 -123q10 -4 21 -5.5t28 -1.5h19.5
t18.5 1q31 0 31 -25q0 -10 -8.5 -17t-22.5 -5zM507 304q6 4 -47 163l-58 156q-4 -2 -33.5 -84.5t-52.5 -151.5q-27 -83 -24 -84q4 -1 38.5 -1.5t70.5 -0.5h19h17h14h11q40 0 45 3z" />
    <glyph glyph-name="B" unicode="B" horiz-adv-x="700" 
d="M664 199q0 -102 -88 -158q-72 -46 -169 -46q-73 0 -128.5 2.5t-91.5 3.5q-14 0 -53 -3t-65 -3q-8 -1 -12 -1q-45 0 -45 26q0 13 14.5 23.5t33.5 7.5q13 -2 21 -3t21 -1q28 0 42 9q18 12 18 40q0 89 -0.5 176t-1 173.5t-0.5 175.5q0 19 -28.5 22t-52.5 3h-23q-18 0 -31 9
t-13 21q0 10 11 16.5t35 6.5q86 0 132 1q184 4 212 4q88 0 148 -35q77 -45 77 -132q0 -69 -65 -117q-21 -16 -66 -35q56 -17 84 -35q84 -55 84 -151zM551 540q0 67 -44 94q-37 23 -119 23q-20 0 -50 -3q-71 -7 -98 -7q-3 0 -5 -27t-2 -68q0 -59 3.5 -103.5t9.5 -44.5h74
q125 0 168 19q63 28 63 117zM592 201q0 88 -78 125q-58 28 -158 28q-29 0 -58 -2.5t-43 -4.5t-18 -39.5t-4 -83.5q0 -68 4.5 -115.5t12.5 -50.5q23 -7 55 -11.5t67 -4.5q93 0 148 31q72 40 72 128z" />
    <glyph glyph-name="C" unicode="C" horiz-adv-x="688" 
d="M626 231q0 -119 -83 -185q-72 -57 -178 -57q-148 0 -230 110q-72 97 -72 247q0 145 80 251q86 114 218 114q94 0 153 -41q19 -13 40 -42q0 2 1 11.5t1 17.5q0 10 -1 15q-1 14 7.5 22t20.5 8q25 0 25 -32q0 -16 -2 -44t-2 -39q0 -24 2 -74t2 -55q0 -18 -9.5 -30t-21.5 -12
q-10 0 -17.5 11t-7.5 33q0 99 -44 151q-49 57 -150 57q-107 0 -169 -103q-55 -91 -55 -216q0 -135 53 -213q60 -88 180 -88q118 0 161 51q38 45 38 132q0 46 32 46q28 0 28 -46z" />
    <glyph glyph-name="D" unicode="D" horiz-adv-x="769" 
d="M708 350q0 -159 -65 -247q-79 -107 -254 -107q-49 0 -87 2q-114 6 -122 6q-40 0 -57.5 -1.5t-57.5 -6.5q-6 -1 -16 -1q-17 0 -25.5 6.5t-8.5 15.5q0 11 10 19.5t24 6.5q30 -3 49 -3q40 0 51 12t11 42q0 106 -1.5 177.5t-3.5 175.5t-2 168q0 21 -19.5 30t-48.5 9
q-14 0 -20 -1q-10 -1 -14 -1q-41 0 -41 20q0 11 16.5 20t43.5 9q68 0 148 1t138 1q180 0 271 -103q81 -92 81 -250zM643 346q0 168 -98 247q-74 59 -187 59q-48 0 -83.5 -9.5t-35.5 -19.5q0 -93 -0.5 -182t-1 -177.5t-0.5 -179.5q0 -16 34 -28.5t81 -12.5q113 0 190 61
q101 80 101 242z" />
    <glyph glyph-name="E" unicode="E" horiz-adv-x="732" 
d="M674 230q0 -26 -2 -49q-5 -58 -5 -64v-38t1 -42q0 -17 -13 -28t-31 -11h-580q-18 0 -29.5 7.5t-11.5 17.5q0 23 39 23q14 0 28 -0.5t28 -0.5q30 0 46 5.5t16 23.5q0 43 2 172.5t2 152.5q0 65 -1.5 124t-10.5 110q-3 16 -16.5 21.5t-34.5 5.5q-14 0 -26.5 -1t-23.5 -2
q-22 0 -34 7t-12 16q0 23 43 23h555q49 0 49 -31q0 -6 -1 -9q-5 -21 -7 -42t-2 -39q0 -24 3.5 -62.5t3.5 -48.5q0 -19 -10.5 -31.5t-23.5 -12.5q-24 0 -24 36v9q0 84 -3 107.5t-22 53.5q-8 13 -52.5 20t-101.5 7q-88 0 -165 -11q-6 -1 -9.5 -35.5t-3.5 -85.5
q0 -52 2.5 -82.5t6.5 -33.5q6 -3 32.5 -6t52.5 -3q37 0 58.5 3.5t25.5 15t4 33.5q0 8 -1 28t-1 33q0 42 25 42q30 0 30 -51t-1 -86t-2 -69q0 -4 5 -63q2 -24 2 -51q0 -45 -28 -45q-13 0 -20.5 10.5t-5.5 30.5q0 35 -2.5 62.5t-8.5 45.5q-2 6 -31.5 9t-65.5 3
q-33 0 -49.5 -1.5t-18.5 -5.5t-5 -37q-7 -69 -7 -128q0 -48 4.5 -80t17 -40t58 -13t105.5 -5q45 0 85.5 3t78.5 11q18 3 25.5 29t7.5 66q0 17 -2.5 47t-2.5 37q0 44 31 44q35 0 35 -51z" />
    <glyph glyph-name="F" unicode="F" horiz-adv-x="691" 
d="M650 657q-3 -22 -4 -50t-1 -30q0 -37 1 -63.5t2 -50.5q0 -20 -9.5 -32.5t-21.5 -12.5q-24 0 -24 35v33.5t1 36.5q0 52 -6 75t-19 38q-8 10 -50 15t-92 5q-64 0 -106.5 -4.5t-44.5 -12.5q-6 -25 -9 -57t-3 -57q0 -30 2.5 -76t2.5 -51q0 -4 18 -7t39 -3q38 0 71.5 4
t38 11.5t4.5 30.5q0 12 -2 43.5t-2 33.5q0 15 8 23t20 8q29 0 29 -30q-9 -90 -9 -149q0 -24 2 -47q7 -79 7 -97q0 -21 -7.5 -31.5t-19.5 -10.5q-26 0 -26 32v50q0 41 -1 48.5t-6.5 15t-31 10.5t-58.5 3q-34 0 -54 -2.5t-20 -6.5q-4 -48 -4 -99q0 -31 1 -71t3 -87
q0 -15 16 -21.5t41 -6.5q16 0 29.5 1t26.5 2q15 0 23.5 -7t8.5 -17t-7.5 -16.5t-21.5 -6.5h-303q-36 0 -36 19q0 9 11 17.5t25 8.5q11 0 32.5 -1.5t22.5 -1.5q22 0 36 6t15 22q6 74 6 166q0 90 -1 138q-5 240 -5 253q0 17 -14 23.5t-38 6.5q-15 0 -30.5 -1t-30.5 -2
q-13 0 -20.5 6.5t-7.5 16.5q0 11 7.5 19.5t18.5 8.5h538q23 0 31.5 -9.5t8.5 -25.5q-1 -7 -1 -11z" />
    <glyph glyph-name="G" unicode="G" horiz-adv-x="749" 
d="M701 356q11 1 18 -6.5t7 -18.5q0 -29 -31 -23q-11 2 -19 3.5t-19 1.5q-17 0 -35 -14q-6 -4 -8.5 -20t-2.5 -47q0 -23 5 -121q2 -39 2 -67q0 -21 -7.5 -31.5t-19.5 -10.5q-11 0 -19.5 11.5t-8.5 31.5l3 58q-21 -36 -42 -53q-64 -53 -170 -53q-128 0 -210 114
q-75 104 -75 249q0 137 82 238q86 106 215 106q82 0 143 -40q20 -13 46 -41l-2 53q0 11 7.5 17.5t17.5 6.5q21 0 21 -28q0 -21 -1 -36.5t-2 -28.5q0 -35 1 -71l2 -72q0 -38 -25 -38q-11 0 -19.5 10t-6.5 26q2 9 2 18.5v14.5q0 72 -50 114q-59 50 -143 50q-116 0 -171 -95
q-45 -77 -45 -202q0 -123 52 -211q59 -100 161 -100q111 0 159 52q37 40 37 107q0 20 -2.5 38.5t-7 35t-17 23t-31.5 6.5q-9 0 -20.5 -2t-22 -4.5t-15.5 -2.5q-26 0 -26 22q0 28 36 28q23 0 82.5 -1t89.5 -1h12q49 0 73 4z" />
    <glyph glyph-name="H" unicode="H" horiz-adv-x="840" 
d="M783 -2h-283q-45 0 -45 25q0 11 12.5 19.5t32.5 8.5q10 0 28.5 -2.5t22.5 -2.5q14 0 21 3q17 7 19.5 29.5t3.5 54.5t1 63q0 48 -1 85t-3 66h-357q-1 -16 -2 -45.5t-1 -47.5q0 -43 2.5 -89t7.5 -89q2 -18 18 -24t45 -6h16.5t16.5 1q16 0 25 -7t9 -18q0 -24 -33 -24h-295
q-29 0 -29 21q0 12 9.5 20.5t22.5 8.5q9 0 27 -2.5t25 -2.5q25 0 40.5 8t15.5 28q0 111 1 252.5t3 301.5q0 13 -11.5 18t-31.5 5q-11 0 -32 -2t-29 -2q-20 0 -30 8t-10 19t9 19t24 8q99 0 192.5 -1.5t100.5 -1.5q36 0 36 -25q0 -23 -37 -23q-6 0 -22.5 1t-18.5 1
q-23 0 -38 -5.5t-19.5 -23.5t-6.5 -52.5t-2 -70.5q0 -42 0.5 -62t2.5 -38h357q2 20 3 46.5t1 63.5v14q0 49 -6 93q-2 17 -9 24q-11 10 -41 10q-15 0 -39 -3q-17 -3 -29.5 5.5t-12.5 20.5q0 10 10.5 17t31.5 7h272q23 0 33.5 -6.5t10.5 -17.5q0 -10 -10.5 -18.5t-27.5 -6.5
q-9 0 -35.5 2t-29.5 2q-22 0 -34.5 -5.5t-12.5 -20.5l2 -548q0 -23 14 -31t40 -8q15 0 28.5 1t26.5 2q22 0 32 -7t10 -18q0 -10 -10.5 -17.5t-27.5 -7.5z" />
    <glyph glyph-name="I" unicode="I" horiz-adv-x="414" 
d="M374 703q31 0 31 -27q0 -11 -9.5 -18.5t-28.5 -7.5q-4 0 -22 1t-29 1q-29 0 -48.5 -8t-19.5 -30v-538q0 -18 17 -24.5t44 -6.5q16 0 28.5 1t23.5 2q20 0 32.5 -8.5t12.5 -19.5q0 -23 -37 -23h-306q-25 0 -39 7.5t-14 18.5q0 25 52 25q14 0 29 -1l30 -2q23 0 34 6t11 24
l-2 537q0 24 -26 31t-69 7h-24q-17 0 -27.5 7.5t-10.5 18.5q0 27 40 27h327z" />
    <glyph glyph-name="J" unicode="J" horiz-adv-x="702" 
d="M636 660h-23t-24 1q-25 0 -37.5 -5t-14.5 -21q-5 -58 -6.5 -121.5t-1.5 -103.5v-89.5t1 -92.5q0 -97 -79.5 -162.5t-184.5 -65.5q-100 0 -174 50q-82 55 -82 142q0 62 45 106t107 44q53 0 73 -27q13 -17 13 -45v-10q0 -10 -12 -26q-15 -20 -35 -20q-11 0 -23.5 6.5
t-19 16t-6.5 19.5q0 12 8 27q1 2 4 6q-40 -1 -56 -16q-28 -26 -28 -83q0 -64 49.5 -98t136.5 -34q113 0 160 59q32 40 32 107q0 111 -1 222t-1 187q0 15 -14.5 21.5t-38.5 6.5q-19 0 -32.5 -2t-20.5 -3q-5 -1 -13 -1q-31 0 -31 23q0 11 10.5 19.5t30.5 8.5h23.5h15.5h32h26
h23h19h17h15h13h12h37.5t40.5 1h12q56 0 56 -24q0 -23 -53 -23z" />
    <glyph glyph-name="K" unicode="K" horiz-adv-x="831" 
d="M785 -4q-54 0 -142 -1t-164 -1q-31 0 -31 25q0 12 10 21t30 9q3 0 15 -2q33 -6 56 -6q37 0 37 19q0 7 -4 14q-17 33 -73 113q-48 67 -96.5 132t-49.5 65l-138 -118q0 -27 1 -106t1 -95q0 -18 15.5 -22t30.5 -4q13 0 25 1l24 2q21 0 30.5 -6.5t9.5 -16.5t-8.5 -17
t-20.5 -6h-298q-36 0 -36 27q0 11 10 18t29 4q23 -3 53 -3q26 0 42.5 6.5t16.5 23.5q0 90 -0.5 179.5t-1 179.5t-0.5 182q0 21 -22.5 27.5t-59.5 6.5h-20q-19 0 -30 8t-11 19t12.5 19t36.5 8h258q15 0 23 -8t8 -20q0 -11 -7.5 -19.5t-20.5 -8.5h-24q-27 0 -42 -5t-19 -26.5
t-6 -63.5t-2 -85q0 -49 0.5 -72t2.5 -44q2 0 86 66q99 78 157 131q83 76 75 94q-3 7 -16 11t-31 4q-14 0 -26.5 -2.5t-16.5 -2.5q-14 0 -21.5 6.5t-7.5 15.5q0 12 11.5 20.5t34.5 8.5h275q16 0 25.5 -8.5t9.5 -20.5q0 -25 -31 -25q-15 0 -37.5 2.5t-24.5 2.5q-22 0 -37 -12
l-234 -210l44 -62q14 -19 103 -146q82 -117 114 -163q6 -8 16.5 -13t32.5 -5q16 0 28 2t16 2q16 2 27 -7t11 -21q0 -10 -7.5 -15.5t-25.5 -5.5z" />
    <glyph glyph-name="L" unicode="L" horiz-adv-x="678" 
d="M657 235q0 -20 -5.5 -77.5t-5.5 -76.5q0 -11 1 -21.5t2 -19.5q0 -29 -15 -37q-10 -5 -41 -5l-539 -1q-54 0 -54 27q0 11 12.5 18.5t37.5 7.5q8 -1 12 -1q6 0 23 -1t21 -1q25 0 39.5 5t14.5 18l1 552q0 18 -16 24.5t-43 6.5q-9 0 -28 -1t-27 -1q-19 0 -31.5 9t-12.5 20
q0 10 10 16.5t30 6.5h299q26 0 40 -6.5t14 -16.5q0 -12 -17 -22t-43 -10q-10 0 -36 2t-28 2q-36 0 -36 -23q0 -96 0.5 -191t1.5 -185.5t2 -187.5q0 -9 48 -15t112 -6q57 0 101 5.5t59 16.5q34 26 34 77q0 34 -9 96q-3 22 7.5 34.5t27.5 12.5q15 0 26 -13t11 -38z" />
    <glyph glyph-name="M" unicode="M" horiz-adv-x="1014" 
d="M970 656h-22.5t-23.5 1q-39 0 -62 -7t-23 -29l-2 -545q0 -18 22.5 -27.5t51.5 -9.5q23 0 36 5t23 5q31 0 31 -27q0 -25 -35 -25h-299q-15 0 -23.5 7.5t-8.5 17.5q0 24 33 24q6 0 13 -1.5t16.5 -2.5t20.5 -1q47 0 47 34l-2 544q0 11 -13 11q-8 0 -8 -4q-16 -48 -32 -95
q-47 -141 -74 -227q-49 -158 -79 -270q-5 -19 -23 -30t-38 -11q-37 0 -48 30l-193 619q-4 5 -7 5q-5 -3 -10 -5q0 -56 0.5 -144t1.5 -244.5t1 -189.5q0 -21 36 -21q28 0 52 8q6 2 16 2q29 0 29 -27q0 -12 -8.5 -20.5t-26.5 -8.5h-292q-20 0 -32 9t-12 21q0 22 36 22
q10 0 22.5 -2t30 -4t29.5 -2q21 0 30 5.5t9 21.5l1 557q0 13 -11.5 20t-47.5 7q-13 0 -23 -0.5t-18 -0.5q-9 0 -13 1q-29 0 -39 9q-6 5 -6 12q0 11 13.5 20t29.5 9q19 0 48 -2t40 -2q26 0 82.5 2t65.5 2q13 0 22.5 -11t12.5 -22l183 -616l32 114q42 150 74 254
q47 156 85 261q5 13 13.5 17.5t22.5 4.5h12q8 -2 12 -2q69 -6 111 -6q24 0 36 1q61 5 70 5q34 0 34 -22q0 -24 -32 -24z" />
    <glyph glyph-name="N" unicode="N" horiz-adv-x="821" 
d="M772 656h-23t-24 1q-34 0 -53.5 -7t-19.5 -29q0 -106 -1.5 -182.5t-3.5 -193t-2 -208.5q0 -18 -18 -32t-42 -14q-21 0 -39 11t-30 36q-44 88 -122 258q-56 123 -112 250q-25 56 -49 112v-41q-3 -157 -3 -199q0 -105 2 -193t9 -150q0 -15 21 -22.5t50 -7.5q9 0 16 1
t15.5 3t18.5 2q14 0 21.5 -7.5t7.5 -18.5q0 -28 -35 -28h-292q-21 0 -32.5 8t-11.5 19q0 27 47 27q15 0 29 -0.5t26 -0.5q21 0 29.5 5.5t8.5 24.5l2 543q0 15 -12.5 21.5t-31.5 6.5q-8 0 -24.5 -1t-24.5 -1q-22 0 -33 6.5t-11 16.5q0 12 11.5 21.5t28.5 9.5q44 -4 71 -4
q13 0 43 2t62 2q20 0 33.5 -4t19.5 -19q43 -101 121 -270q83 -181 113 -245q50 -107 51 -107q-1 49 -2 106t-4 232.5t-3 230.5q0 18 -13.5 23.5t-40.5 5.5q-11 0 -22.5 -0.5t-23.5 -0.5q-48 0 -48 26q0 25 43 22q66 -6 149 -6q90 0 153 6q17 0 27 -7.5t10 -17.5
q0 -22 -32 -22z" />
    <glyph glyph-name="O" unicode="O" horiz-adv-x="698" 
d="M631 351q0 -150 -64 -242q-76 -109 -224 -109q-152 0 -229 119q-61 95 -61 234q0 141 72 240q81 112 215 112q142 0 221 -110q70 -98 70 -244zM554 353q0 122 -48 202q-57 94 -163 94q-108 0 -163 -88q-49 -78 -49 -208q0 -131 46 -207q55 -91 166 -91q118 0 170 94
q41 74 41 204z" />
    <glyph glyph-name="P" unicode="P" horiz-adv-x="664" 
d="M644 501q0 -115 -103 -162q-71 -32 -196 -32q-33 0 -56.5 1t-44.5 2q-13 0 -13 -50q0 -35 1 -57q5 -111 5 -133q0 -17 13.5 -24.5t35.5 -7.5q13 0 30.5 2.5l24.5 3.5q16 3 28.5 -4.5t12.5 -18.5q0 -9 -11.5 -15.5t-35.5 -6.5h-262q-32 0 -47.5 7.5t-15.5 18.5
q0 10 11.5 17.5t29.5 7.5q6 -1 9 -1q9 -2 17.5 -3t21.5 -1q27 0 44 11t17 39l1 530q0 16 -20.5 24t-50.5 8q-22 0 -33 -2q-21 -3 -34 5t-13 20q0 10 12 17.5t36 7.5h345q97 0 156 -36q85 -51 85 -168zM582 500q0 87 -68 125q-58 32 -169 32q-43 0 -101 -5q-6 -1 -9 -49.5
t-3 -112.5q0 -58 2 -94.5t8 -36.5q133 0 169 3q84 7 123 34q48 33 48 104z" />
    <glyph glyph-name="Q" unicode="Q" horiz-adv-x="714" 
d="M654 -73q0 -45 -26 -78q-33 -42 -91 -42q-51 0 -87.5 28t-36.5 77v83l-2 10q-14 -2 -32.5 -3.5t-24.5 -1.5q-142 0 -223 119q-68 100 -68 234q0 141 72 240q81 112 216 112q142 0 221 -110q70 -98 70 -244q0 -94 -57 -190q-47 -80 -117 -138l-11 -10v-69q0 -39 17 -65
q21 -32 60 -32q41 0 55 19.5t14 62.5q0 19 8 30t20 11q10 0 16.5 -10.5t6.5 -32.5zM564 353q0 122 -48 202q-56 94 -162 94q-107 0 -165 -96q-51 -84 -51 -204q0 -108 26 -175q16 -42 58 -78q-2 7 -3 17t-1 26q0 55 22 88q32 48 106 48q46 0 76 -30q35 -35 35 -77v-70v-12
l8 4q57 35 80 109q19 61 19 154zM408 83q0 24 -0.5 46t-0.5 41v16q0 22 -22 37t-49 15q-35 0 -60 -25t-25 -61q4 -38 4 -39q16 -58 99 -58q12 0 33 5q7 1 20 6z" />
    <glyph glyph-name="R" unicode="R" horiz-adv-x="764" 
d="M712 0q-13 0 -39 -2t-37 -2q-26 0 -44 5.5t-35 23.5q-21 21 -27.5 163.5t-99.5 142.5q-37 0 -104.5 2t-82.5 2q-12 -1 -12 -60q0 -30 2.5 -104.5t2.5 -99.5q0 -21 21 -28q13 -4 28 -4q14 0 31 2.5t24 3.5q18 3 30 -4t12 -19q0 -9 -12 -15.5t-36 -6.5h-262
q-32 0 -47.5 7.5t-15.5 17.5q0 9 12 17t29 8q6 -1 9 -1q17 -3 38 -3q28 0 43 9q20 12 20 41l1 530q0 16 -20.5 24t-50.5 8q-22 0 -33 -2q-21 -3 -34.5 5t-13.5 20q0 10 12.5 17t35.5 7h346q96 0 154 -31q83 -45 83 -149q0 -92 -74 -137q-24 -15 -74 -27q10 0 21 -6
q19 -11 46 -34q21 -18 28 -49.5t7 -74.5q0 -17 -0.5 -33t-0.5 -32q0 -25 2.5 -41t9.5 -25.5t18 -13.5t23 -4q11 0 33 4t30 4q45 0 45 -26q0 -13 -11.5 -22.5t-30.5 -7.5zM577 520q0 78 -59 112q-49 28 -148 28q-19 0 -63 -4t-69 -4q-4 0 -7 -46.5t-3 -100.5q0 -52 2.5 -85.5
t7.5 -33.5h76q136 0 187 19q76 28 76 115z" />
    <glyph glyph-name="S" unicode="S" horiz-adv-x="614" 
d="M561 200q0 -99 -76 -154q-68 -49 -171 -49q-83 0 -153 39q-23 13 -53 39v-49q0 -11 -9.5 -19.5t-21.5 -8.5q-10 0 -17.5 8t-7.5 23v229q-1 21 6 32t20 11q12 0 20.5 -11.5t8.5 -32.5q0 -113 59 -168q53 -49 147 -49q80 0 132 40.5t52 109.5q0 72 -56.5 110t-150.5 38
q-77 0 -138 37q-83 50 -83 148q0 86 61 133t172 47q80 0 131 -29q17 -9 36 -30v6q0 9 1 18q0 13 8 20t20 7q28 0 28 -26q0 -38 -1 -96t-1 -98q0 -19 -8 -31t-20 -12q-10 0 -16.5 11t-6.5 34q0 90 -50 138q-46 44 -123 44q-80 0 -122 -35t-42 -98q0 -65 46 -96
q42 -28 153 -42t168.5 -57.5t57.5 -130.5z" />
    <glyph glyph-name="T" unicode="T" horiz-adv-x="686" 
d="M662 466q0 -20 -9.5 -31.5t-23.5 -11.5q-27 0 -27 35q0 18 1.5 50t1.5 34q0 29 -4.5 51.5t-17.5 37.5q-9 10 -38.5 15.5t-64.5 5.5q-36 0 -62 -4t-27 -11q-7 -28 -10 -86.5t-3 -140.5q0 -107 4 -198.5t10 -138.5q2 -15 19 -21.5t40 -6.5q15 0 28 1t25 2q33 0 33 -26
q0 -10 -7.5 -17.5t-21.5 -7.5q-61 0 -157 -1t-157 -1q-36 0 -36 22q0 11 10.5 20.5t25.5 9.5q9 0 28.5 -1.5l32.5 -2.5q23 0 36.5 5.5t13.5 22.5q7 84 7 204q0 55 -2 194.5t-2 159.5q0 16 -26 23.5t-65 7.5t-69.5 -6.5t-41.5 -19t-16 -34t-5 -44.5q0 -22 2.5 -56.5
t2.5 -36.5q0 -39 -32 -39q-13 0 -22 10t-9 29q0 27 2 67t2 59q0 8 -2 31t-2 38q-1 7 -1 11q0 16 8 25t30 9h553q25 0 36 -21q8 -16 8 -41q0 -11 -1.5 -26t-2.5 -33q0 -20 2.5 -58.5t2.5 -57.5z" />
    <glyph glyph-name="U" unicode="U" horiz-adv-x="828" 
d="M783 655q-6 0 -26 1t-31 1q-33 0 -42.5 -5.5t-9.5 -18.5q0 -109 -3 -223t-3 -222q0 -101 -82 -152q-68 -42 -176 -42q-104 0 -171 43q-79 51 -79 149l1 448q0 13 -11.5 18t-30.5 5q-11 0 -32 -2t-30 -2q-39 0 -39 24q0 25 33 25q78 0 161 1t132 1q36 0 36 -25
q0 -23 -37 -23q-7 0 -24 1.5t-19 1.5q-23 0 -37.5 -6t-19.5 -29.5t-7.5 -66t-2.5 -107.5q0 -96 1 -157.5t2 -114.5q0 -59 61 -101q55 -38 113 -38q73 0 127 35q61 39 61 102v208q0 57 -0.5 132t-8.5 112q-3 18 -7 22q-8 8 -34 8h-24q-13 -3 -20 -4q-17 -3 -29.5 5.5
t-12.5 20.5q0 10 10.5 17t31.5 7h273q23 0 33.5 -6.5t10.5 -17.5q0 -10 -10.5 -18.5t-27.5 -6.5z" />
    <glyph glyph-name="V" unicode="V" horiz-adv-x="809" 
d="M769 651q-44 0 -61 -3.5t-24 -26.5q-34 -102 -71 -209q-31 -90 -71 -200q-31 -86 -73 -202q-5 -13 -16.5 -19.5t-26.5 -6.5q-35 0 -45 23q-66 173 -125 330q-67 179 -108 293q-5 13 -17 17.5t-33 4.5q-14 0 -27.5 -1t-26.5 -2q-20 0 -30 7t-10 17q0 25 34 25q77 0 160 1
t132 1q18 0 28 -8t10 -19q0 -21 -36 -21h-14q-32 0 -55.5 -6.5t-23.5 -27.5q0 -3 2 -11q12 -42 59 -181t83 -245q41 -120 42 -120q20 62 40 125q49 151 80 246q42 129 57 171q3 9 3 15q0 18 -21 25t-50 7h-25q-54 0 -54 27q0 23 46 23h262q23 0 33.5 -6.5t10.5 -17.5
q0 -10 -10.5 -18.5t-27.5 -6.5z" />
    <glyph glyph-name="W" unicode="W" horiz-adv-x="1010" 
d="M960 657q-44 0 -61 -3.5t-25 -26.5q-29 -88 -55 -208l-40 -196q-24 -115 -47 -193q-6 -22 -20 -33t-32 -11q-39 0 -48 41q-16 68 -48 221q-27 128 -52.5 254t-26.5 126q-12 -54 -23 -108q-40 -184 -53 -241q-26 -114 -59 -252q-5 -19 -19 -31t-32 -12q-15 0 -26.5 10.5
t-16.5 32.5q-18 75 -48.5 207.5t-53.5 223.5q-30 116 -53 181q-6 19 -25 19q-9 0 -15 -1q-28 -5 -32 -5q-39 0 -39 25t33 25q77 0 160 1t133 1q16 0 26.5 -7.5t10.5 -18.5q0 -22 -36 -22q-1 0 -17.5 1t-29.5 1q-38 0 -63 -8t-20 -31l118 -544q11 56 23 112q25 123 51 246
q6 30 53 245q5 22 28 31q12 5 27 5q19 0 34 -9.5t19 -26.5q19 -81 56 -258q43 -209 49 -239l20 -106q13 61 27 123q5 22 52 243q33 153 35 164t2 19q0 20 -15.5 27.5t-40.5 7.5q-14 0 -25 -1t-20 -2q-55 0 -55 26q0 22 47 22h264q21 0 32 -6.5t11 -15.5q0 -10 -11.5 -18
t-27.5 -7z" />
    <glyph glyph-name="X" unicode="X" horiz-adv-x="888" 
d="M838 -3l-302 -1q-21 0 -34 10t-13 22q0 23 37 23q6 0 20.5 -2t31.5 -4t22 -2q17 0 25.5 3.5t8.5 12.5t-15 29l-188 235l-179 -222q-13 -16 -13 -28q0 -15 19 -20.5t47 -5.5q19 0 34 2t20 2q36 0 36 -23q0 -13 -12.5 -22.5t-34.5 -9.5h-31.5h-15.5h-33h-25h-20h-17h-15
h-13h-12h-12q-26 0 -48.5 0.5t-42.5 0.5h-17q-17 0 -25 7t-8 18q0 12 10.5 20.5t27.5 8.5q9 0 20 -1t12 -1q23 0 44 8t38 29q80 97 118 143q67 81 113 139q-44 55 -73 90q-44 54 -76 90q-35 40 -86 95q-13 13 -34 13q-14 0 -21 -1q-36 -5 -38 -5q-24 0 -36 6.5t-12 16.5
q0 11 13.5 20.5t32.5 9.5h277q23 0 33.5 -5.5t10.5 -15.5t-10.5 -18t-27.5 -8h-36q-25 0 -38.5 -2.5t-13.5 -10.5q0 -3 3 -8q35 -51 91 -123q51 -64 78 -98q92 116 180 234q5 6 1 9t-13 3q-8 0 -33.5 -2t-31.5 -2q-16 0 -27 8t-11 18q0 9 10.5 15t33.5 6h277q35 0 35 -25
q0 -10 -11 -17.5t-32 -7.5q-10 0 -32 3t-32 3q-15 0 -22.5 -2.5t-14.5 -10.5q-66 -71 -127 -142q-55 -63 -114 -135l239 -293q14 -17 33.5 -23.5t40.5 -6.5q18 0 31 2t19 3q18 2 28.5 -6.5t10.5 -21.5q0 -11 -8 -18.5t-25 -7.5z" />
    <glyph glyph-name="Y" unicode="Y" horiz-adv-x="822" 
d="M791 655q-6 -1 -10 -1q-9 0 -31.5 2t-23.5 2q-27 0 -36 -14q-72 -116 -93 -150q-68 -111 -135 -221q-8 -13 -8 -206q0 -16 17 -21.5t45 -5.5q9 0 26 1t22 1q18 0 28 -7t10 -17q0 -21 -35 -21l-302 -1q-37 0 -37 21q0 10 9.5 18.5t23.5 8.5q7 0 26 -1t30 -1q29 0 45.5 6
t16.5 23v75t1 66v12q0 40 -7 51q-73 117 -108.5 175.5t-115.5 193.5q-7 13 -43 13q-16 0 -31.5 -1t-30.5 -2q-20 0 -30.5 6.5t-10.5 16.5t9.5 17.5t25.5 7.5h24h16h31h25h21h19h16h15h13h12h11h37t40 1h13q23 0 33.5 -5.5t10.5 -15.5t-10.5 -18t-27.5 -8h-25.5t-25.5 1
q-28 0 -45.5 -2.5t-9.5 -19.5q28 -57 74 -134q27 -46 79 -127q36 -57 37 -57t21 31.5t60 100.5q55 94 107 191q6 10 0 14t-21 4q-18 0 -28 -1q-51 -5 -52 -5q-17 0 -29 9t-12 20q0 9 10 15.5t32 6.5h28h18h34h26h21h17h15h13h11h38.5t42.5 1h14q13 0 21 -8t8 -19
q0 -22 -25 -22z" />
    <glyph glyph-name="Z" unicode="Z" horiz-adv-x="675" 
d="M615 227q0 -33 -2.5 -71.5t-2.5 -45.5q0 -8 2 -27t2 -32q0 -20 -15.5 -35.5t-36.5 -15.5h-463q-49 0 -49 37q0 13 6.5 27.5t21.5 30.5q69 81 204 245q158 193 178 217q37 47 75 94h-39q-147 3 -173 3q-76 0 -125 -2t-52 -8q-9 -21 -12.5 -46t-3.5 -57q0 -14 1 -40.5
t1 -37.5q0 -39 -32 -39q-30 0 -30 39q0 27 2 67t2 59q0 10 -2 36.5t-2 34.5q0 25 10 32.5t32 7.5h447q30 0 42 -8.5t12 -24.5q0 -10 -4.5 -20t-12.5 -20l-473 -571q44 -1 124 -2t106 -1q79 0 129.5 2t55.5 8q13 13 17.5 32t4.5 47q0 22 -1 36q-4 55 -4 57q0 36 27 36
q13 0 23 -12t10 -32z" />
    <glyph glyph-name="bracketleft" unicode="[" horiz-adv-x="272" 
d="M238 -93q0 -36 -51 -36q-22 6 -43 11q-8 0 -20 -3.5t-22 -7.5q-11 -3 -14 12t-3 37v725q0 20 4 33t17 13q14 -5 24 -8t18 -3q10 0 21 4q19 7 22 7q46 0 46 -36q0 -15 -7.5 -24.5t-18.5 -9.5q-12 4 -20.5 7t-14.5 3q-13 0 -17.5 -12.5t-4.5 -32.5v-20v-567q-1 -16 -1 -24
q0 -19 5 -30t19 -11q9 0 17.5 2.5t17.5 4.5q11 0 18.5 -9.5t7.5 -24.5z" />
    <glyph glyph-name="backslash" unicode="\" horiz-adv-x="560" 
d="M431 0h-65l-288 691h66z" />
    <glyph glyph-name="bracketright" unicode="]" horiz-adv-x="340" 
d="M207 -80q0 -27 -1 -32q-4 -20 -16 -17q-14 5 -23.5 8t-18.5 3q-10 0 -25 -5.5t-18 -5.5q-50 0 -50 36q0 14 7 24t18 10q4 -1 16.5 -4t18.5 -3q15 0 19.5 11.5t4.5 32.5v21v567q0 36 -1 41q-5 24 -22 24q-8 0 -17 -3.5t-18 -6.5q-11 0 -18.5 9.5t-7.5 24.5q0 36 46 36
q21 -6 43 -11q8 0 19.5 3.5t22.5 7.5q13 0 17 -13t4 -33v-725z" />
    <glyph glyph-name="asciicircum" unicode="^" horiz-adv-x="620" 
d="M554 306h-82l-169 310l-169 -310h-82l212 405h78z" />
    <glyph glyph-name="underscore" unicode="_" horiz-adv-x="500" 
d="M500 -200h-500v34h500v-34z" />
    <glyph glyph-name="grave" unicode="`" horiz-adv-x="340" 
d="M281 590q0 -10 -14 -10q-5 0 -12 2.5t-10 2.5l-138 44q-19 5 -28.5 13t-9.5 24t13 28.5t32 12.5q12 0 20 -4t22 -14l106 -77q6 -5 12.5 -10t6.5 -12z" />
    <glyph glyph-name="a" unicode="a" horiz-adv-x="591" 
d="M579 77q0 -34 -27.5 -55.5t-69.5 -21.5q-49 0 -77 35q-9 11 -19 36q-18 -24 -35 -35q-53 -36 -137 -36q-74 0 -119 38t-45 100q0 72 48 106.5t132 34.5q83 8 124 36q36 24 36 60q0 38 -39.5 70t-88.5 32q-52 0 -88 -27q-12 -9 -26 -28q15 -2 21 -8q11 -11 11 -31
q0 -19 -13 -31t-34 -12q-20 0 -36.5 13t-16.5 34q0 58 56.5 97t125.5 39q70 0 126.5 -40t56.5 -100v-48v-24v-16v-34v-29v-24v-20v-17v-14v-12q0 -19 -0.5 -36.5t-0.5 -33.5q0 -15 13.5 -24.5t31.5 -9.5q19 0 32 9.5t13 29.5v71q0 19 6.5 29t15.5 10t16 -8t7 -22v-83z
M388 287q-32 -17 -52 -25q-64 -26 -112 -26q-58 0 -90 -27q-28 -24 -28 -61q0 -41 31 -73t80 -32q102 0 145 71q30 50 30 125q0 23 -1 33t-3 15z" />
    <glyph glyph-name="b" unicode="b" horiz-adv-x="642" 
d="M590 267q0 -115 -57 -189q-64 -83 -182 -83q-63 0 -115 35q-17 11 -40 36l1 -30q0 -37 -27 -37q-30 0 -30 42v585q0 12 -9.5 16.5t-27.5 4.5q-13 0 -26.5 -1t-25.5 -2q-35 0 -35 19q0 21 40 21h133q6 0 11.5 -6.5t5.5 -14.5v-34v-31v-28v-24v-20v-16v-13v-29.5t-1 -20.5
q21 26 38 38q51 38 118 38q113 0 174 -77q55 -69 55 -179zM515 264q0 92 -27 141q-37 67 -125 67q-98 0 -134 -69q-25 -48 -25 -147t26 -147q35 -65 127 -65q100 0 135 70q23 46 23 150z" />
    <glyph glyph-name="c" unicode="c" horiz-adv-x="519" 
d="M467 165q0 -79 -59 -124q-54 -41 -135 -41q-101 0 -162 70t-61 187q0 112 57 184q64 81 178 81q73 0 123 -39.5t50 -108.5q0 -29 -17 -52t-44 -23q-21 0 -35 13t-14 34q0 29 25 42q8 4 25 7q-3 16 -7 25q-28 57 -112 57q-87 0 -126 -69q-30 -53 -30 -147q0 -103 31 -156
q37 -64 119 -64q57 0 96 32t39 84q0 21 7.5 31.5t19.5 10.5t22 -10t10 -24z" />
    <glyph glyph-name="d" unicode="d" horiz-adv-x="624" 
d="M596 3h-102q-13 0 -25.5 6t-17.5 17t-9 30q0 3 -1 10q-23 -24 -40 -35q-53 -36 -114 -36q-118 0 -181 83q-56 73 -56 189q0 108 54 178q60 78 172 78q67 0 118 -37q17 -12 39 -38q0 30 -0.5 58t-0.5 63v31q0 33 -38 43q-18 5 -65 5q-13 0 -20.5 7t-7.5 17q0 22 28 22h21
h15h42t42 1h23q14 0 19.5 -7t5.5 -23l1 -581q0 -22 14.5 -30t38.5 -8q9 0 23.5 1t17.5 1q16 0 26 -8t10 -19q0 -7 -8 -12.5t-24 -5.5zM434 256q0 128 -44 175q-39 41 -116 41q-88 0 -124 -66q-27 -49 -27 -142q0 -104 22 -149q34 -70 134 -70q92 0 128 64q27 48 27 147z" />
    <glyph glyph-name="e" unicode="e" horiz-adv-x="537" 
d="M490 274q0 -8 -7 -13t-14 -5h-333q-15 0 -15 -20q0 -83 36 -135q41 -60 121 -60q60 0 106 33t46 77q0 41 27 41q25 0 25 -41q0 -57 -65.5 -105.5t-140.5 -48.5q-112 0 -172 79q-54 71 -54 181q0 108 65.5 188t166.5 80q95 0 151.5 -70t56.5 -181zM424 334
q0 62 -41.5 103.5t-104.5 41.5q-60 0 -105.5 -48.5t-45.5 -104.5q0 -10 3 -13t16 -3h262q17 0 17 13q-1 8 -1 11z" />
    <glyph glyph-name="f" unicode="f" horiz-adv-x="389" 
d="M438 633q0 -22 -11.5 -33.5t-26.5 -11.5q-13 0 -23 8t-10 22q0 12 10 26q-3 15 -11 21q-15 11 -43 11q-75 0 -99 -36q-19 -29 -19 -108q0 -9 15 -12.5t40 -3.5h26q22 0 34 -7t12 -18t-11.5 -18.5t-34.5 -7.5h-17.5t-17.5 1q-21 0 -33.5 -3.5t-12.5 -12.5v-376
q0 -17 35 -26q24 -6 51 -6q33 0 33 -21t-33 -21h-230q-21 0 -30 5t-9 14q0 10 10.5 18.5t22.5 8.5h17q29 0 44 4q24 7 24 24v378q0 8 -18 11.5t-45 3.5h-29q-17 0 -27 7.5t-10 17.5q0 23 34 23h23.5h15.5q28 0 42 3.5t14 14.5q0 100 44.5 146.5t135.5 46.5q47 0 82.5 -23.5
t35.5 -69.5z" />
    <glyph glyph-name="g" unicode="g" horiz-adv-x="536" 
d="M514 532q0 -17 -8 -29t-23 -12q-35 0 -35 26q0 8 8 19q2 3 9 10q0 6 -1 10q-8 24 -49 24q-32 0 -49 -37q-5 -12 -11 -38q26 -21 38 -37q38 -48 38 -103q0 -64 -51 -105t-120 -41q-44 0 -95 24q-22 10 -34 8q-22 -5 -34.5 -19.5t-12.5 -35.5q0 -38 37 -53q28 -11 82 -11
h29t28 1q87 0 149 -30q77 -37 77 -108q0 -72 -71 -114q-63 -37 -151 -37q-99 0 -162 28q-81 36 -81 110q0 46 45 89q15 14 46 34q-26 11 -39 20q-39 28 -39 68t37 73q12 11 37 25q-8 18 -11 28q-11 32 -11 53q0 69 51.5 110t125.5 41l52 -3q5 31 14 46q27 46 94 46
q43 0 67 -22t24 -58zM375 369q0 47 -27 76q-30 32 -85 32q-57 0 -87.5 -27t-30.5 -74q0 -52 25 -81q29 -34 91 -34q54 0 84 30t30 78zM427 -8q0 51 -54 77q-45 22 -110 22q-74 0 -123 -23q-61 -29 -61 -85q0 -55 62 -79q47 -18 124 -18q67 0 109 22q53 28 53 84z" />
    <glyph glyph-name="h" unicode="h" horiz-adv-x="693" 
d="M641 -3q-48 4 -79 4q-19 0 -65 -2t-77 -2q-32 0 -32 17q0 9 10 17.5t28.5 10t41.5 4.5t23 21v276q0 52 -23 85q-34 48 -111 48q-87 0 -129 -53q-30 -38 -30 -88v-261q0 -15 17.5 -22.5t42.5 -7.5q22 0 36.5 -7.5t14.5 -17.5q0 -22 -53 -22q-31 0 -59 1.5t-60 2.5
q-8 0 -32 -2t-43 -2q-53 0 -53 22q0 10 13.5 18t37.5 8q39 0 54 4q26 7 26 25v552q0 12 -9.5 16.5t-28.5 4.5q-15 0 -34 -1t-22 -1q-31 0 -31 20q0 10 9 18t25 8h130q18 0 18 -25v-117t1 -92q28 22 47 33q58 33 112 33q78 0 133 -39q62 -44 62 -119v-297q0 -14 16 -19t41 -5
q21 1 27 1q44 0 44 -24q0 -9 -11 -16.5t-28 -7.5z" />
    <glyph glyph-name="i" unicode="i" horiz-adv-x="348" 
d="M220 640q0 -20 -14 -34t-35 -14q-20 0 -34 14t-14 34t13.5 34.5t34.5 14.5t35 -14t14 -35zM300 -5h-235q-43 0 -43 19q0 22 44 22q29 0 48 7q26 10 26 29v380q0 13 -14 18t-38 5q-9 0 -17.5 -0.5t-16.5 -0.5q-15 0 -24.5 7t-9.5 15q0 23 35 23h134q12 0 14 -1q3 -1 3 -8
v-12v-424q0 -18 22.5 -30t52.5 -12q12 0 17 1q15 2 26 -5t11 -16q0 -17 -35 -17z" />
    <glyph glyph-name="j" unicode="j" horiz-adv-x="293" 
d="M211 641q0 -20 -13.5 -34.5t-34.5 -14.5t-35 14t-14 35q0 20 14 34t35 14q20 0 34 -14t14 -34zM203 -8q0 -79 -47.5 -132.5t-116.5 -53.5q-48 0 -91 25q-48 28 -48 65q0 22 12.5 37t32.5 15q18 0 28.5 -12t8.5 -30q0 -10 -13 -21q-2 -1 -7 -4q4 -7 7 -10q24 -23 68 -23
q47 0 75 31t28 87v487q0 13 -13.5 17.5t-36.5 4.5q-12 0 -21 -0.5t-15 -0.5q-16 0 -25.5 7t-9.5 16q0 23 35 23h134q16 0 16 -16q-1 -14 -1 -22v-490z" />
    <glyph glyph-name="k" unicode="k" horiz-adv-x="686" 
d="M647 -2h-228q-17 0 -25.5 6t-8.5 15t9.5 16.5t24.5 7.5q10 0 31 -2.5t23 -2.5q9 0 10 1q3 2 -1 8l-170 220l-108 -88v-18q0 -31 0.5 -65t7.5 -42t15.5 -12t17.5 -4q6 0 13 1l14 2q14 0 21.5 -6.5t7.5 -16.5q0 -20 -24 -20h-233q-14 0 -23.5 7t-9.5 15q0 21 36 21
q49 0 65 6q28 10 28 43v526q0 21 -13 28.5t-36 7.5q-7 0 -22 -1t-22 -1q-33 0 -33 18q0 8 9.5 14.5t25.5 6.5h118q24 0 29.5 -7.5t5.5 -32.5q0 -76 -0.5 -148.5t-0.5 -141.5v-95q2 -8 4 -15q80 63 146 124q75 69 70 80q-5 10 -22 10q-9 0 -29 -2.5t-26 -2.5q-35 0 -35 23
q0 22 34 22h256q17 0 25 -6t8 -15q0 -22 -32 -22q-12 0 -32 2.5t-22 2.5q-19 0 -30 -10q-29 -26 -67 -60q-76 -67 -81 -80q-4 -10 79 -123q70 -96 106 -138q6 -8 17 -11.5t27 -3.5q14 0 26 1l24 2q13 0 21.5 -7.5t8.5 -16.5q0 -20 -30 -20z" />
    <glyph glyph-name="l" unicode="l" horiz-adv-x="348" 
d="M300 -5h-235q-43 0 -43 19q0 22 43 22q31 0 48 6q27 9 27 30v516q0 20 -11 27t-31 7q-12 0 -23 -1t-21 -2q-35 0 -35 23t36 23h134q12 0 14 -1q3 -2 3 -9v-12v-568q0 -22 19.5 -33t49.5 -11q8 0 22 2q16 2 26.5 -4.5t10.5 -16.5q0 -17 -34 -17z" />
    <glyph glyph-name="m" unicode="m" horiz-adv-x="1003" 
d="M959 -5h-220q-29 0 -29 20q0 22 30 22q4 -1 13 -1q23 0 40.5 7t17.5 22q0 61 -2 168t-2 133q0 47 -37 81t-87 34q-55 0 -95 -33q-50 -41 -50 -115l-2 -272q0 -12 19 -19.5t52 -7.5q14 1 23 -5.5t9 -15.5q0 -7 -8 -12.5t-25 -5.5h-206q-25 0 -25 21q0 18 25 18q33 0 47 3
q29 6 29 24q0 63 1 149t1 155q0 55 -37.5 85.5t-88.5 30.5q-59 0 -107 -47t-48 -111l1 -244q0 -46 51 -46q10 0 15 1q16 2 27 -4t11 -16q0 -19 -36 -19h-210q-21 0 -32.5 6t-11.5 14q0 10 11.5 16.5t33.5 6.5q33 0 52 5q31 8 31 30v369q0 18 -10.5 25t-30.5 7
q-13 0 -25 -1.5l-28 -3.5q-16 0 -24.5 6t-8.5 14q0 24 40 24h18h13h31t33 1h12q24 0 37 -25q4 -8 8 -25q23 22 40 32q53 33 114 33q59 0 114 -33q18 -11 43 -33q25 22 43 33q56 33 122 33q79 0 136 -42.5t57 -110.5l1 -309q0 -15 24 -23t47 -8q9 0 11 1q14 0 21 -6t7 -15
q0 -21 -26 -21z" />
    <glyph glyph-name="n" unicode="n" horiz-adv-x="743" 
d="M702 35q15 3 24 -3t9 -16q0 -21 -35 -21h-270q-10 0 -16 6t-6 14q0 21 26 21q4 0 21 -2t27 -2q19 0 31 6.5t12 24.5v291q0 73 -44 108q-38 30 -106 30q-73 0 -124.5 -42.5t-51.5 -108.5v-273q0 -19 15 -29t39 -10q14 0 27 3.5t17 3.5q25 0 25 -20q0 -8 -10 -14.5
t-31 -6.5h-238q-22 0 -33.5 7t-11.5 16q0 19 30 19q3 0 15 -2.5t32 -2.5q27 0 46 8t19 26v379q0 19 -13.5 25.5t-37.5 6.5q-11 0 -31 -2t-25 -2q-16 0 -26.5 7t-10.5 15q0 23 38 23h19h14h34t35 1h12q36 0 46 -34q3 -11 3 -34q9 17 18 26q54 57 169 57q108 0 161 -58
q42 -46 42 -112l1 -300q0 -18 19.5 -25.5t46.5 -7.5q13 0 23.5 1t24.5 3z" />
    <glyph glyph-name="o" unicode="o" horiz-adv-x="582" 
d="M531 261q0 -108 -64 -184q-68 -80 -175 -80q-102 0 -172 80t-70 187q0 106 72.5 183.5t176.5 77.5q100 0 166 -78.5t66 -185.5zM464 261q0 87 -46 154q-49 72 -120 72q-83 0 -134 -70q-47 -64 -47 -156t42 -152q48 -69 133 -69q89 0 134 70q38 59 38 151z" />
    <glyph glyph-name="p" unicode="p" horiz-adv-x="630" 
d="M583 256q0 -111 -50 -179q-58 -80 -172 -80q-67 0 -121 37q-18 12 -41 38v-66t1 -95q0 -29 23 -41q17 -9 48 -9q14 0 21 1q15 0 23 -6t8 -15q0 -15 -32 -15q-34 0 -74 3.5t-45 3.5q-3 0 -67 -5q-25 -2 -56 -2q-38 0 -38 20q0 7 8.5 12.5t26.5 5.5h14q32 0 50 6
q30 10 30 35v529q0 24 -11 32.5t-31 8.5q-12 0 -25 -2t-24 -3q-14 0 -23.5 7.5t-9.5 17.5q0 23 34 23h101q13 0 25.5 -6t17 -17.5t5.5 -22.5t2 -17q25 25 43 37q57 38 120 38q117 0 173 -85q46 -70 46 -189zM519 256q0 128 -45 181q-38 45 -111 45q-85 0 -127 -71
q-35 -60 -35 -154q0 -128 46 -173q40 -39 119 -39q84 0 123 71q30 54 30 140z" />
    <glyph glyph-name="q" unicode="q" horiz-adv-x="624" 
d="M589 -178q-29 0 -54 2q-63 5 -68 5q-3 0 -66 -5q-25 -2 -56 -2t-31 16q0 20 29 20h15q35 0 52 7q27 11 27 42v96t1 67q-23 -25 -40 -37q-55 -38 -122 -38q-114 0 -174 80q-52 70 -52 181q0 120 47 191q57 86 177 86q63 0 120 -38q18 -12 44 -38v26q0 19 7.5 27.5
t20.5 8.5t23.5 -9.5t10.5 -26.5l-2 -581q0 -25 30 -35q21 -7 50 -7h14q19 0 28 -5t9 -13q0 -20 -40 -20zM436 257q0 97 -33 155q-41 72 -128 72q-95 0 -132 -76q-26 -53 -26 -152q0 -87 29 -141q39 -72 125 -72q79 0 118 39q47 47 47 175z" />
    <glyph glyph-name="r" unicode="r" horiz-adv-x="587" 
d="M541 389q0 -39 -16 -66.5t-48 -27.5q-54 0 -54 45q0 27 30 36q10 2 31 3q1 4 2 11.5t1 12.5q0 35 -19 58q-29 34 -94 34q-78 0 -121 -57q-38 -50 -38 -123q0 -53 -1 -120t-1 -126q0 -19 16 -29t40 -10h11q13 3 20 4.5t11 1.5q12 0 20 -6t8 -14q0 -10 -9.5 -15.5
t-33.5 -5.5h-236q-22 0 -33.5 7t-11.5 16q0 19 30 19q3 0 15 -2.5t30 -2.5q26 0 45 8t19 26v369q0 24 -16 32.5t-41 8.5q-15 0 -27 -1t-23 -2q-15 0 -24.5 7t-9.5 15q0 23 35 23h19h14h11h29.5t31.5 1h12q33 0 43 -34q3 -11 3 -34q16 28 32 41q51 42 137 42q103 0 140 -58
q21 -33 21 -87z" />
    <glyph glyph-name="s" unicode="s" horiz-adv-x="457" 
d="M418 142q0 -64 -58 -105q-53 -37 -126 -37q-35 0 -89 21q-18 7 -48 22l-3 -18q-1 -13 -8.5 -19t-18.5 -6q-27 0 -27 30q3 32 4 43.5t1 31.5q0 25 -2 43t-3 31q0 33 24 33q11 0 18.5 -10.5t4.5 -28.5q-1 -6 -1 -17q0 -48 40 -79.5t110 -31.5q57 0 89 26t32 73t-50 73
q-38 20 -99.5 27t-104.5 36q-53 35 -53 87q0 64 52 110t119 46q54 0 93 -18q13 -6 29 -19l2 21q1 7 4 10q6 6 18 6q23 0 23 -19v-144q0 -27 -21 -27q-19 0 -19 36q0 47 -25 75q-32 36 -104 36q-44 0 -75.5 -29.5t-31.5 -72.5q0 -46 55 -68q29 -11 99 -20.5t107 -42.5
q43 -38 43 -105z" />
    <glyph glyph-name="t" unicode="t" horiz-adv-x="451" 
d="M395 195q0 -95 -30 -145q-34 -56 -108 -56q-56 0 -97.5 33t-41.5 85v347q0 11 -21 11q-5 0 -17.5 -1t-18.5 -1q-16 0 -24 7t-8 18q0 10 9 18.5t23 8.5h18q19 0 29 2.5t10 14.5v111q0 14 9 22t21 8q30 0 30 -34v-114q0 -6 14.5 -8t39.5 -2q13 0 38.5 1t33.5 1q17 0 28 -10
t11 -22q0 -24 -37 -24q-11 0 -40 1t-43 1q-47 0 -47 -12v-315q0 -52 21 -76t62 -24q53 0 70 30t17 125q0 22 6.5 34t15.5 12q10 0 18.5 -13t8.5 -34z" />
    <glyph glyph-name="u" unicode="u" horiz-adv-x="743" 
d="M701 42q14 0 22.5 -6.5t8.5 -15.5q0 -22 -35 -22q-19 0 -40 1t-28 1q-20 0 -36 -2q-40 -4 -51 31q-3 11 -4 37q-20 -24 -38 -36q-57 -37 -144 -37q-115 0 -172 60q-44 46 -44 111v277q0 24 -11.5 33t-33.5 9q-15 0 -27.5 -2.5t-24.5 -4.5q-14 -2 -24 6t-10 19q0 9 7.5 15
t24.5 6q30 -3 41 -4t30 -1q23 0 39 2t28 3q14 0 18 -6t4 -18v-17v-310q0 -70 51 -104q42 -28 106 -28q73 0 127.5 43t54.5 107v259q0 17 -15 25.5t-38 8.5q-17 0 -37 -5q-15 -4 -26 5t-11 20q0 10 6.5 15.5t23.5 5.5q7 0 11 -1q9 -1 29.5 -3.5t26.5 -2.5q13 0 60 6
q15 2 20.5 -3t5.5 -17q-1 -15 -1 -24q0 -87 0.5 -186t1.5 -210q0 -26 13.5 -36t35.5 -10q12 0 31 3t24 3z" />
    <glyph glyph-name="v" unicode="v" horiz-adv-x="703" 
d="M665 484q-11 0 -26 2t-21 2q-12 0 -24 -6t-79 -176l-108 -274q-17 -42 -58 -42q-37 0 -52 38t-67 180q-57 155 -64 173q-30 78 -38 87t-18.5 12t-23.5 3t-24.5 -1t-22.5 -2q-14 0 -23.5 7.5t-9.5 17.5q0 22 34 22h236q30 0 30 -19q0 -9 -9.5 -16.5t-25.5 -7.5
q-6 0 -19.5 1t-19.5 1q-9 0 -17.5 -1.5t-13.5 -11.5q-3 -5 36 -113q20 -56 76 -199q41 -107 42 -107q21 52 42 105q58 145 78 199q41 108 38 115q-5 12 -26 12q-6 0 -24 -2t-28 -2q-16 0 -25 7t-9 16q0 23 32 23q40 0 78.5 -4.5t40.5 -4.5q3 0 42.5 4.5t68.5 4.5q14 0 23 -6
t9 -15q0 -22 -30 -22z" />
    <glyph glyph-name="w" unicode="w" horiz-adv-x="939" 
d="M894 477q-7 0 -22.5 1t-22.5 1q-19 0 -30.5 -5.5t-16.5 -22.5q-35 -127 -59 -211q-39 -135 -61 -215q-9 -33 -53 -33q-19 0 -34 8.5t-19 24.5q-13 62 -45 201q-37 162 -40 175q-9 37 -18 75q-9 -34 -18 -67q-14 -53 -44 -171t-52 -211q-4 -17 -18 -25t-33 -8t-34 8.5
t-19 24.5q-33 120 -61 228q-22 84 -50 200q-4 16 -14 21.5t-28 5.5q-13 0 -34.5 -2.5t-23.5 -2.5q-40 0 -40 24q0 22 32 22h258q36 0 36 -24q0 -20 -36 -20q-6 0 -21 1t-19 1q-24 0 -37 -7t-9 -28q10 -47 36 -149q13 -52 43 -167q10 -40 21 -80q1 0 21.5 76.5t43.5 167.5
q31 121 48 199q4 15 19 24.5t33 9.5q43 0 52 -34l105 -451q11 43 23 86q16 59 46 173t32 125t2 14v7q0 18 -10.5 25t-28.5 7q-7 0 -19 -1t-16 -1q-23 0 -36 6.5t-13 16.5q0 23 48 23q107 -4 147 -4h34q28 3 46 4q22 0 33 -6.5t11 -15.5t-10 -16.5t-25 -7.5z" />
    <glyph glyph-name="x" unicode="x" horiz-adv-x="683" 
d="M641 -2h-221q-15 0 -21.5 5t-6.5 13q0 19 18 25q11 5 29 5q38 -5 47 -5l4 4l-149 178q-75 -87 -160 -178l6 -2q42 6 48 6q23 0 36 -11t13 -23q0 -17 -27 -17h-222q-23 0 -23 19q0 10 8 19t23 9q17 -4 35 -7q9 0 20.5 6t24.5 20l181 205q-94 114 -174 203q-11 12 -23 12
q-4 0 -16 -3t-20 -3q-35 0 -35 19q0 10 9.5 17.5t23.5 7.5q38 0 89.5 -0.5t116.5 -0.5q21 0 21 -17t-21 -25q-8 -3 -25 -3q-13 0 -37 3l-10 -2l138 -165l143 162v8q-25 -4 -43 -4q-16 0 -23 3q-19 7 -19 22q0 8 6.5 14t16.5 6q56 0 106.5 -0.5t95.5 -0.5q14 0 22.5 -7.5
t8.5 -18.5q0 -21 -29 -21q-6 0 -22 2.5t-20 2.5q-12 0 -20.5 -3.5t-18.5 -14.5l-166 -195l173 -211q9 -10 17 -13.5t20 -3.5q7 0 23.5 3.5t23.5 3.5q29 3 29 -26q0 -22 -24 -22z" />
    <glyph glyph-name="y" unicode="y" horiz-adv-x="661" 
d="M631 484q-6 0 -24 4t-28 4q-23 0 -31 -19q-33 -74 -70 -164l-58 -142q-19 -47 -58 -138q-44 -103 -78 -138q-56 -57 -163 -57q-53 0 -96 23q-50 27 -50 71q0 25 14.5 43t38.5 18q19 0 34 -12.5t15 -32.5q0 -15 -23 -31q-4 -2 -12 -7q11 -10 19 -15q26 -15 61 -15
q80 0 128 51q43 46 43 107q0 15 -58 156q-63 152 -126 282q-8 15 -27 15q-9 0 -25 -2.5t-19 -2.5q-35 0 -35 20q0 10 9.5 17.5t23.5 5.5l221 -1q14 1 24 -6.5t10 -17.5q0 -11 -14 -17q-3 -1 -9 -2q-7 -1 -20 -1q-12 0 -34 2t-29 2q-5 0 -8 -1t-2 -4l157 -386q11 25 23 51
q32 71 58 135q42 104 72 189q3 9 -5 12t-24 3h-24q-10 0 -19 0.5t-18 3.5q-17 7 -17 19q0 8 7.5 14.5t18.5 5.5q61 0 122.5 1t99.5 1q14 0 23 -8t9 -18q0 -18 -27 -18z" />
    <glyph glyph-name="z" unicode="z" horiz-adv-x="553" 
d="M511 187q0 -27 -2.5 -66t-2.5 -47q0 -10 1 -21.5t1 -18.5q2 -15 -5 -24.5t-23 -9.5h-397q-19 0 -32 14t-13 35q0 24 18 42q64 65 171 171q96 96 154 153q33 33 67 66q-38 1 -105.5 2t-87.5 1q-37 0 -85 -1t-50 -7q-6 -13 -8.5 -29t-2.5 -35v-26t1 -26q0 -25 -22 -25
q-12 0 -20.5 8.5t-8.5 25.5q0 23 3 48t3 37v12v11q-2 9 -2 13q-2 14 5 22t27 8h385q28 0 28 -27q0 -11 -5 -23.5t-13 -21.5l-389 -397q37 -1 85 -1.5t106 -0.5h28q61 0 89.5 1.5t32.5 5.5q9 11 13.5 31t4.5 41q0 10 -1 30t-1 28q0 19 8 29.5t20 10.5q8 0 13 -4
q12 -10 12 -35z" />
    <glyph glyph-name="braceleft" unicode="{" horiz-adv-x="224" 
d="M200 -115q0 -4 -3 -7q-6 -6 -14 -6q-23 0 -40.5 4t-35 20.5t-22.5 41t-5 61.5v180q0 26 -4.5 42.5t-19.5 30.5l-16 8q-11 7 -11 16v16q0 8 12 15t15 9q15 14 19.5 30t4.5 43v175q0 36 5 61t22.5 41.5t35 20.5t40.5 4q17 0 17 -13q0 -8 -12 -15t-15 -9q-15 -14 -19.5 -30
t-4.5 -43v-166q0 -61 -11 -86q-14 -33 -56 -44q40 -12 55 -46q12 -28 12 -86v-171q0 -26 4.5 -42.5t19.5 -30.5q8 -4 17.5 -9.5t9.5 -14.5z" />
    <glyph glyph-name="bar" unicode="|" horiz-adv-x="620" 
d="M342 0h-59v691h59v-691z" />
    <glyph glyph-name="braceright" unicode="}" horiz-adv-x="224" 
d="M200 276q0 -8 -12 -15t-15 -9q-15 -14 -19.5 -30t-4.5 -43v-180q0 -36 -5 -61t-23 -41.5t-35 -20.5t-40 -4q-17 0 -17 13q0 8 12 15t15 9q15 14 19.5 30t4.5 43v171q0 61 12.5 90t54.5 40q-40 12 -53.5 43t-13.5 89v166q0 26 -4.5 42.5t-19.5 30.5l-16 8q-11 7 -11 16
q0 4 3 7q6 6 14 6q23 0 40 -4t35 -20.5t23 -41t5 -61.5v-175q0 -26 4.5 -42.5t19.5 -30.5q8 -4 17.5 -9.5t9.5 -14.5v-16z" />
    <glyph glyph-name="asciitilde" unicode="~" horiz-adv-x="620" 
d="M555 325q-27 -49 -57 -76q-39 -35 -85 -35q-28 0 -86 23q-37 16 -49 21q-22 9 -44.5 17t-39.5 8q-41 0 -73 -43q-9 -12 -29 -47l-41 40q30 55 56 80q39 38 87 38q38 0 117 -35t103 -35q30 0 59 28q22 21 40 55z" />
    <glyph glyph-name="Adieresis" unicode="&#xc4;" horiz-adv-x="814" 
d="M774 -5q-14 2 -35 3t-45 1q-31 0 -111.5 -2t-94.5 -2q-17 0 -27.5 6.5t-10.5 15.5q0 22 39 22q7 0 28.5 -2t25.5 -2q18 0 27.5 3.5t18.5 15.5q7 9 -28 100q-11 30 -36 90h-261q-20 -59 -29 -89q-29 -93 -23 -100q7 -8 19.5 -11.5t27.5 -3.5t37.5 2.5t23.5 2.5q15 0 26 -9
t11 -21q0 -20 -37 -20l-148 1l-129 -2q-18 0 -27.5 6.5t-9.5 15.5q0 10 9.5 18.5t24.5 8.5q6 0 22 -1t24 -1q17 0 27.5 3.5t14.5 14.5l226 624q3 8 19 13t33 5q18 0 30.5 -4.5t15.5 -13.5q14 -37 88 -257q60 -177 89 -255q43 -116 58 -123q10 -4 21 -5.5t28 -1.5h19.5
t18.5 1q31 0 31 -25q0 -10 -8.5 -17t-22.5 -5zM507 304q6 4 -47 163l-58 156q-4 -2 -33.5 -84.5t-52.5 -151.5q-27 -83 -24 -84q4 -1 38.5 -1.5t70.5 -0.5h19h17h14h11q40 0 45 3zM548 802q0 -23 -17 -40t-40 -17q-24 0 -41 16t-17 41q0 24 17 41t41 17q23 0 40 -17t17 -41z
M365 802q0 -23 -17 -40t-41 -17q-23 0 -40 16t-17 41q0 24 16 41t41 17q24 0 41 -17t17 -41z" />
    <glyph glyph-name="Aring" unicode="&#xc5;" horiz-adv-x="814" 
d="M774 -5q-14 2 -35 3t-45 1q-31 0 -111.5 -2t-94.5 -2q-17 0 -27.5 6.5t-10.5 15.5q0 22 39 22q7 0 28.5 -2t25.5 -2q18 0 27.5 3.5t18.5 15.5q7 9 -28 100q-11 30 -36 90h-261q-20 -59 -29 -89q-29 -93 -23 -100q7 -8 19.5 -11.5t27.5 -3.5t37.5 2.5t23.5 2.5q15 0 26 -9
t11 -21q0 -20 -37 -20l-148 1l-129 -2q-18 0 -27.5 6.5t-9.5 15.5q0 10 9.5 18.5t24.5 8.5q6 0 22 -1t24 -1q17 0 27.5 3.5t14.5 14.5l226 624q3 8 19 13t33 5q18 0 30.5 -4.5t15.5 -13.5q14 -37 88 -257q60 -177 89 -255q43 -116 58 -123q10 -4 21 -5.5t28 -1.5h19.5
t18.5 1q31 0 31 -25q0 -10 -8.5 -17t-22.5 -5zM507 304q6 4 -47 163l-58 156q-4 -2 -33.5 -84.5t-52.5 -151.5q-27 -83 -24 -84q4 -1 38.5 -1.5t70.5 -0.5h19h17h14h11q40 0 45 3zM468 799q0 -29 -20 -49t-48 -20t-48 20t-20 49q0 28 20 48t48 20t48 -20t20 -48zM436 799
q0 15 -10 25t-26 10q-15 0 -25.5 -10.5t-10.5 -24.5q0 -16 10 -26t26 -10q15 0 25.5 10.5t10.5 25.5z" />
    <glyph glyph-name="Ccedilla" unicode="&#xc7;" horiz-adv-x="688" 
d="M626 231q0 -115 -77 -182q-69 -60 -169 -60l-10 -25l25 2q29 0 52 -18t23 -48q0 -36 -31 -55t-69 -19q-28 0 -56 12q-36 16 -36 40q0 7 6 14t14 7q6 0 11 -3q3 -2 9 -8q12 -12 23 -17.5t27 -5.5q18 0 32.5 8t14.5 25q0 15 -11.5 23.5t-27.5 8.5q-13 0 -30 -7
q-14 -5 -23 -5q-10 0 -10 8q0 3 4 13t4 13l17 38q-134 0 -209 112q-66 99 -66 244t80 251q86 114 218 114q94 0 153 -41q19 -13 40 -42l1 44q-1 14 7.5 22t20.5 8q25 0 25 -32q0 -16 -2 -44t-2 -39q0 -24 2 -74t2 -55q0 -18 -9.5 -30t-21.5 -12q-10 0 -17.5 11t-7.5 33
q0 99 -44 151q-49 57 -150 57q-107 0 -169 -103q-55 -91 -55 -216q0 -135 53 -213q60 -88 180 -88q118 0 161 51q38 45 38 132q0 46 32 46q28 0 28 -46z" />
    <glyph glyph-name="Eacute" unicode="&#xc9;" horiz-adv-x="732" 
d="M674 230q0 -26 -2 -49q-5 -58 -5 -64v-38t1 -42q0 -17 -13 -28t-31 -11h-580q-18 0 -29.5 7.5t-11.5 17.5q0 23 39 23q14 0 28 -0.5t28 -0.5q30 0 46 5.5t16 23.5q0 43 2 172.5t2 152.5q0 65 -1.5 124t-10.5 110q-3 16 -16.5 21.5t-34.5 5.5q-14 0 -26.5 -1t-23.5 -2
q-22 0 -34 7t-12 16q0 23 43 23h555q49 0 49 -31q0 -6 -1 -9q-5 -21 -7 -42t-2 -39q0 -24 3.5 -62.5t3.5 -48.5q0 -19 -10.5 -31.5t-23.5 -12.5q-24 0 -24 36v9q0 84 -3 107.5t-22 53.5q-8 13 -52.5 20t-101.5 7q-88 0 -165 -11q-6 -1 -9.5 -35.5t-3.5 -85.5
q0 -52 2.5 -82.5t6.5 -33.5q6 -3 32.5 -6t52.5 -3q37 0 58.5 3.5t25.5 15t4 33.5q0 8 -1 28t-1 33q0 42 25 42q30 0 30 -51t-1 -86t-2 -69q0 -4 5 -63q2 -24 2 -51q0 -45 -28 -45q-13 0 -20.5 10.5t-5.5 30.5q0 35 -2.5 62.5t-8.5 45.5q-2 6 -31.5 9t-65.5 3
q-33 0 -49.5 -1.5t-18.5 -5.5t-5 -37q-7 -69 -7 -128q0 -48 4.5 -80t17 -40t58 -13t105.5 -5q45 0 85.5 3t78.5 11q18 3 25.5 29t7.5 66q0 17 -2.5 47t-2.5 37q0 44 31 44q35 0 35 -51zM474 831q0 -15 -10 -23.5t-28 -13.5l-139 -44q-11 -3 -22 -5q-13 0 -13 10q0 6 5 11
t13 11l106 77q13 10 21 14t22 4q19 0 32 -12t13 -29z" />
    <glyph glyph-name="Ntilde" unicode="&#xd1;" horiz-adv-x="821" 
d="M772 656h-23t-24 1q-34 0 -53.5 -7t-19.5 -29q0 -106 -1.5 -182.5t-3.5 -193t-2 -208.5q0 -18 -18 -32t-42 -14q-21 0 -39 11t-30 36q-44 88 -122 258q-56 123 -112 250q-25 56 -49 112v-41q-3 -157 -3 -199q0 -105 2 -193t9 -150q0 -15 21 -22.5t50 -7.5q9 0 16 1
t15.5 3t18.5 2q14 0 21.5 -7.5t7.5 -18.5q0 -28 -35 -28h-292q-21 0 -32.5 8t-11.5 19q0 27 47 27q15 0 29 -0.5t26 -0.5q21 0 29.5 5.5t8.5 24.5l2 543q0 15 -12.5 21.5t-31.5 6.5q-8 0 -24.5 -1t-24.5 -1q-22 0 -33 6.5t-11 16.5q0 12 11.5 21.5t28.5 9.5q44 -4 71 -4
q13 0 43 2t62 2q20 0 33.5 -4t19.5 -19q43 -101 121 -270q83 -181 113 -245q50 -107 51 -107q-1 49 -2 106t-4 232.5t-3 230.5q0 18 -13.5 23.5t-40.5 5.5q-11 0 -22.5 -0.5t-23.5 -0.5q-48 0 -48 26q0 25 43 22q66 -6 149 -6q90 0 153 6q17 0 27 -7.5t10 -17.5
q0 -22 -32 -22zM554 841q0 -9 -4 -18t-11 -18q-15 -17 -35.5 -28t-44.5 -11q-30 0 -101 24q-35 12 -60 12q-13 0 -23 -7q-3 -2 -17 -16q-8 -10 -14 -10q-13 0 -13 11q0 9 6 20t13 19q15 17 35.5 27t44.5 10q13 0 72.5 -18.5t83.5 -18.5q21 0 36.5 16.5t19.5 16.5
q12 0 12 -11z" />
    <glyph glyph-name="Odieresis" unicode="&#xd6;" horiz-adv-x="698" 
d="M631 351q0 -150 -64 -242q-76 -109 -224 -109q-152 0 -229 119q-61 95 -61 234q0 141 72 240q81 112 215 112q142 0 221 -110q70 -98 70 -244zM554 353q0 122 -48 202q-57 94 -163 94q-108 0 -163 -88q-49 -78 -49 -208q0 -131 46 -207q55 -91 166 -91q118 0 170 94
q41 74 41 204zM482 802q0 -23 -17 -40t-40 -17q-24 0 -41 16t-17 41q0 24 17 41t41 17q23 0 40 -17t17 -41zM299 802q0 -23 -17 -40t-41 -17q-23 0 -40 16t-17 41q0 24 16 41t41 17q24 0 41 -17t17 -41z" />
    <glyph glyph-name="Udieresis" unicode="&#xdc;" horiz-adv-x="828" 
d="M783 655q-6 0 -26 1t-31 1q-33 0 -42.5 -5.5t-9.5 -18.5q0 -109 -3 -223t-3 -222q0 -101 -82 -152q-68 -42 -176 -42q-104 0 -171 43q-79 51 -79 149l1 448q0 13 -11.5 18t-30.5 5q-11 0 -32 -2t-30 -2q-39 0 -39 24q0 25 33 25q78 0 161 1t132 1q36 0 36 -25
q0 -23 -37 -23q-7 0 -24 1.5t-19 1.5q-23 0 -37.5 -6t-19.5 -29.5t-7.5 -66t-2.5 -107.5q0 -96 1 -157.5t2 -114.5q0 -59 61 -101q55 -38 113 -38q73 0 127 35q61 39 61 102v208q0 57 -0.5 132t-8.5 112q-3 18 -7 22q-8 8 -34 8h-24q-13 -3 -20 -4q-17 -3 -29.5 5.5
t-12.5 20.5q0 10 10.5 17t31.5 7h273q23 0 33.5 -6.5t10.5 -17.5q0 -10 -10.5 -18.5t-27.5 -6.5zM545 802q0 -23 -17 -40t-40 -17q-24 0 -41 16t-17 41q0 24 17 41t41 17q23 0 40 -17t17 -41zM362 802q0 -23 -17 -40t-41 -17q-23 0 -40 16t-17 41q0 24 16 41t41 17
q24 0 41 -17t17 -41z" />
    <glyph glyph-name="aacute" unicode="&#xe1;" horiz-adv-x="591" 
d="M579 77q0 -34 -27.5 -55.5t-69.5 -21.5q-49 0 -77 35q-9 11 -19 36q-18 -24 -35 -35q-53 -36 -137 -36q-74 0 -119 38t-45 100q0 72 48 106.5t132 34.5q83 8 124 36q36 24 36 60q0 38 -39.5 70t-88.5 32q-52 0 -88 -27q-12 -9 -26 -28q15 -2 21 -8q11 -11 11 -31
q0 -19 -13 -31t-34 -12q-20 0 -36.5 13t-16.5 34q0 58 56.5 97t125.5 39q70 0 126.5 -40t56.5 -100v-48v-24v-16v-34v-29v-24v-20v-17v-14v-12q0 -19 -0.5 -36.5t-0.5 -33.5q0 -15 13.5 -24.5t31.5 -9.5q19 0 32 9.5t13 29.5v71q0 19 6.5 29t15.5 10t16 -8t7 -22v-83z
M388 287q-32 -17 -52 -25q-64 -26 -112 -26q-58 0 -90 -27q-28 -24 -28 -61q0 -41 31 -73t80 -32q102 0 145 71q30 50 30 125q0 23 -1 33t-3 15zM379 666q0 -15 -10 -23.5t-28 -13.5l-139 -44q-11 -3 -22 -5q-13 0 -13 10q0 6 5 11t13 11l106 77q13 10 21 14t22 4
q19 0 32 -12t13 -29z" />
    <glyph glyph-name="agrave" unicode="&#xe0;" horiz-adv-x="591" 
d="M579 77q0 -34 -27.5 -55.5t-69.5 -21.5q-49 0 -77 35q-9 11 -19 36q-18 -24 -35 -35q-53 -36 -137 -36q-74 0 -119 38t-45 100q0 72 48 106.5t132 34.5q83 8 124 36q36 24 36 60q0 38 -39.5 70t-88.5 32q-52 0 -88 -27q-12 -9 -26 -28q15 -2 21 -8q11 -11 11 -31
q0 -19 -13 -31t-34 -12q-20 0 -36.5 13t-16.5 34q0 58 56.5 97t125.5 39q70 0 126.5 -40t56.5 -100v-48v-24v-16v-34v-29v-24v-20v-17v-14v-12q0 -19 -0.5 -36.5t-0.5 -33.5q0 -15 13.5 -24.5t31.5 -9.5q19 0 32 9.5t13 29.5v71q0 19 6.5 29t15.5 10t16 -8t7 -22v-83z
M388 287q-32 -17 -52 -25q-64 -26 -112 -26q-58 0 -90 -27q-28 -24 -28 -61q0 -41 31 -73t80 -32q102 0 145 71q30 50 30 125q0 23 -1 33t-3 15zM362 590q0 -10 -14 -10q-5 0 -12 2.5t-10 2.5l-138 44q-19 5 -28.5 13t-9.5 24t13 28.5t32 12.5q12 0 20 -4t22 -14l106 -77
q6 -5 12.5 -10t6.5 -12z" />
    <glyph glyph-name="acircumflex" unicode="&#xe2;" horiz-adv-x="591" 
d="M579 77q0 -34 -27.5 -55.5t-69.5 -21.5q-49 0 -77 35q-9 11 -19 36q-18 -24 -35 -35q-53 -36 -137 -36q-74 0 -119 38t-45 100q0 72 48 106.5t132 34.5q83 8 124 36q36 24 36 60q0 38 -39.5 70t-88.5 32q-52 0 -88 -27q-12 -9 -26 -28q15 -2 21 -8q11 -11 11 -31
q0 -19 -13 -31t-34 -12q-20 0 -36.5 13t-16.5 34q0 58 56.5 97t125.5 39q70 0 126.5 -40t56.5 -100v-48v-24v-16v-34v-29v-24v-20v-17v-14v-12q0 -19 -0.5 -36.5t-0.5 -33.5q0 -15 13.5 -24.5t31.5 -9.5q19 0 32 9.5t13 29.5v71q0 19 6.5 29t15.5 10t16 -8t7 -22v-83z
M388 287q-32 -17 -52 -25q-64 -26 -112 -26q-58 0 -90 -27q-28 -24 -28 -61q0 -41 31 -73t80 -32q102 0 145 71q30 50 30 125q0 23 -1 33t-3 15zM436 583q0 -12 -13 -12q-12 0 -78 30q-55 25 -88 42q-66 -35 -107.5 -54t-53.5 -19q-15 0 -15 13q0 5 9 11.5t11 8.5l138 98
q4 3 10.5 7.5t10.5 4.5q2 0 10.5 -5.5t9.5 -6.5l140 -98q12 -8 13 -10q3 -4 3 -10z" />
    <glyph glyph-name="adieresis" unicode="&#xe4;" horiz-adv-x="591" 
d="M579 77q0 -34 -27.5 -55.5t-69.5 -21.5q-49 0 -77 35q-9 11 -19 36q-18 -24 -35 -35q-53 -36 -137 -36q-74 0 -119 38t-45 100q0 72 48 106.5t132 34.5q83 8 124 36q36 24 36 60q0 38 -39.5 70t-88.5 32q-52 0 -88 -27q-12 -9 -26 -28q15 -2 21 -8q11 -11 11 -31
q0 -19 -13 -31t-34 -12q-20 0 -36.5 13t-16.5 34q0 58 56.5 97t125.5 39q70 0 126.5 -40t56.5 -100v-48v-24v-16v-34v-29v-24v-20v-17v-14v-12q0 -19 -0.5 -36.5t-0.5 -33.5q0 -15 13.5 -24.5t31.5 -9.5q19 0 32 9.5t13 29.5v71q0 19 6.5 29t15.5 10t16 -8t7 -22v-83z
M388 287q-32 -17 -52 -25q-64 -26 -112 -26q-58 0 -90 -27q-28 -24 -28 -61q0 -41 31 -73t80 -32q102 0 145 71q30 50 30 125q0 23 -1 33t-3 15zM413 628q0 -23 -17 -40t-40 -17q-24 0 -41 16t-17 41q0 24 17 41t41 17q23 0 40 -17t17 -41zM230 628q0 -23 -17 -40t-41 -17
q-23 0 -40 16t-17 41q0 24 16 41t41 17q24 0 41 -17t17 -41z" />
    <glyph glyph-name="atilde" unicode="&#xe3;" horiz-adv-x="591" 
d="M579 77q0 -34 -27.5 -55.5t-69.5 -21.5q-49 0 -77 35q-9 11 -19 36q-18 -24 -35 -35q-53 -36 -137 -36q-74 0 -119 38t-45 100q0 72 48 106.5t132 34.5q83 8 124 36q36 24 36 60q0 38 -39.5 70t-88.5 32q-52 0 -88 -27q-12 -9 -26 -28q15 -2 21 -8q11 -11 11 -31
q0 -19 -13 -31t-34 -12q-20 0 -36.5 13t-16.5 34q0 58 56.5 97t125.5 39q70 0 126.5 -40t56.5 -100v-48v-24v-16v-34v-29v-24v-20v-17v-14v-12q0 -19 -0.5 -36.5t-0.5 -33.5q0 -15 13.5 -24.5t31.5 -9.5q19 0 32 9.5t13 29.5v71q0 19 6.5 29t15.5 10t16 -8t7 -22v-83z
M388 287q-32 -17 -52 -25q-64 -26 -112 -26q-58 0 -90 -27q-28 -24 -28 -61q0 -41 31 -73t80 -32q102 0 145 71q30 50 30 125q0 23 -1 33t-3 15zM432 664q0 -9 -4 -18t-11 -18q-15 -17 -35.5 -28t-44.5 -11q-30 0 -101 24q-35 12 -60 12q-13 0 -23 -7q-3 -2 -17 -16
q-8 -10 -14 -10q-13 0 -13 11q0 9 6 20t13 19q15 17 35.5 27t44.5 10q13 0 72.5 -18.5t83.5 -18.5q21 0 36.5 16.5t19.5 16.5q12 0 12 -11z" />
    <glyph glyph-name="aring" unicode="&#xe5;" horiz-adv-x="591" 
d="M579 77q0 -34 -27.5 -55.5t-69.5 -21.5q-49 0 -77 35q-9 11 -19 36q-18 -24 -35 -35q-53 -36 -137 -36q-74 0 -119 38t-45 100q0 72 48 106.5t132 34.5q83 8 124 36q36 24 36 60q0 38 -39.5 70t-88.5 32q-52 0 -88 -27q-12 -9 -26 -28q15 -2 21 -8q11 -11 11 -31
q0 -19 -13 -31t-34 -12q-20 0 -36.5 13t-16.5 34q0 58 56.5 97t125.5 39q70 0 126.5 -40t56.5 -100v-48v-24v-16v-34v-29v-24v-20v-17v-14v-12q0 -19 -0.5 -36.5t-0.5 -33.5q0 -15 13.5 -24.5t31.5 -9.5q19 0 32 9.5t13 29.5v71q0 19 6.5 29t15.5 10t16 -8t7 -22v-83z
M388 287q-32 -17 -52 -25q-64 -26 -112 -26q-58 0 -90 -27q-28 -24 -28 -61q0 -41 31 -73t80 -32q102 0 145 71q30 50 30 125q0 23 -1 33t-3 15zM334 652q0 -29 -20 -49t-48 -20t-48 20t-20 49q0 28 20 48t48 20t48 -20t20 -48zM302 652q0 15 -10 25t-26 10
q-15 0 -25.5 -10.5t-10.5 -24.5q0 -16 10 -26t26 -10q15 0 25.5 10.5t10.5 25.5z" />
    <glyph glyph-name="ccedilla" unicode="&#xe7;" horiz-adv-x="519" 
d="M467 165q0 -74 -51.5 -119.5t-124.5 -45.5l-12 -31l22 2q27 0 48 -16.5t21 -43.5q0 -33 -28 -50t-63 -17q-25 0 -51 11q-33 14 -33 36q0 19 18 19q8 0 18 -10q21 -21 46 -21q17 0 30 7t13 23q0 14 -10.5 21.5t-25.5 7.5q-10 0 -27 -6q-13 -5 -21 -5q-9 0 -9 8q0 4 2.5 11
t4.5 12l18 43q-91 0 -146.5 72t-55.5 184t57 184q64 81 178 81q73 0 123 -39.5t50 -108.5q0 -29 -17 -52t-44 -23q-21 0 -35 13t-14 34q0 29 25 42q8 4 25 7q-3 16 -7 25q-28 57 -112 57q-87 0 -126 -69q-30 -53 -30 -147q0 -103 31 -156q37 -64 119 -64q57 0 96 32t39 84
q0 21 7.5 31.5t19.5 10.5t22 -10t10 -24z" />
    <glyph glyph-name="eacute" unicode="&#xe9;" horiz-adv-x="537" 
d="M490 274q0 -8 -7 -13t-14 -5h-333q-15 0 -15 -20q0 -83 36 -135q41 -60 121 -60q60 0 106 33t46 77q0 41 27 41q25 0 25 -41q0 -57 -65.5 -105.5t-140.5 -48.5q-112 0 -172 79q-54 71 -54 181q0 108 65.5 188t166.5 80q95 0 151.5 -70t56.5 -181zM424 334
q0 62 -41.5 103.5t-104.5 41.5q-60 0 -105.5 -48.5t-45.5 -104.5q0 -10 3 -13t16 -3h262q17 0 17 13q-1 8 -1 11zM379 666q0 -15 -10 -23.5t-28 -13.5l-139 -44q-11 -3 -22 -5q-13 0 -13 10q0 6 5 11t13 11l106 77q13 10 21 14t22 4q19 0 32 -12t13 -29z" />
    <glyph glyph-name="egrave" unicode="&#xe8;" horiz-adv-x="537" 
d="M490 274q0 -8 -7 -13t-14 -5h-333q-15 0 -15 -20q0 -83 36 -135q41 -60 121 -60q60 0 106 33t46 77q0 41 27 41q25 0 25 -41q0 -57 -65.5 -105.5t-140.5 -48.5q-112 0 -172 79q-54 71 -54 181q0 108 65.5 188t166.5 80q95 0 151.5 -70t56.5 -181zM424 334
q0 62 -41.5 103.5t-104.5 41.5q-60 0 -105.5 -48.5t-45.5 -104.5q0 -10 3 -13t16 -3h262q17 0 17 13q-1 8 -1 11zM362 590q0 -10 -14 -10q-5 0 -12 2.5t-10 2.5l-138 44q-19 5 -28.5 13t-9.5 24t13 28.5t32 12.5q12 0 20 -4t22 -14l106 -77q6 -5 12.5 -10t6.5 -12z" />
    <glyph glyph-name="ecircumflex" unicode="&#xea;" horiz-adv-x="537" 
d="M490 274q0 -8 -7 -13t-14 -5h-333q-15 0 -15 -20q0 -83 36 -135q41 -60 121 -60q60 0 106 33t46 77q0 41 27 41q25 0 25 -41q0 -57 -65.5 -105.5t-140.5 -48.5q-112 0 -172 79q-54 71 -54 181q0 108 65.5 188t166.5 80q95 0 151.5 -70t56.5 -181zM424 334
q0 62 -41.5 103.5t-104.5 41.5q-60 0 -105.5 -48.5t-45.5 -104.5q0 -10 3 -13t16 -3h262q17 0 17 13q-1 8 -1 11zM454 583q0 -12 -13 -12q-12 0 -78 30q-55 25 -88 42q-66 -35 -107.5 -54t-53.5 -19q-15 0 -15 13q0 5 9 11.5t11 8.5l138 98q4 3 10.5 7.5t10.5 4.5
q2 0 10.5 -5.5t9.5 -6.5l140 -98q12 -8 13 -10q3 -4 3 -10z" />
    <glyph glyph-name="edieresis" unicode="&#xeb;" horiz-adv-x="537" 
d="M490 274q0 -8 -7 -13t-14 -5h-333q-15 0 -15 -20q0 -83 36 -135q41 -60 121 -60q60 0 106 33t46 77q0 41 27 41q25 0 25 -41q0 -57 -65.5 -105.5t-140.5 -48.5q-112 0 -172 79q-54 71 -54 181q0 108 65.5 188t166.5 80q95 0 151.5 -70t56.5 -181zM424 334
q0 62 -41.5 103.5t-104.5 41.5q-60 0 -105.5 -48.5t-45.5 -104.5q0 -10 3 -13t16 -3h262q17 0 17 13q-1 8 -1 11zM419 628q0 -23 -17 -40t-40 -17q-24 0 -41 16t-17 41q0 24 17 41t41 17q23 0 40 -17t17 -41zM236 628q0 -23 -17 -40t-41 -17q-23 0 -40 16t-17 41q0 24 16 41
t41 17q24 0 41 -17t17 -41z" />
    <glyph glyph-name="iacute" unicode="&#xed;" horiz-adv-x="348" 
d="M300 -5h-235q-43 0 -43 19q0 22 44 22q29 0 48 7q26 10 26 29v380q0 13 -14 18t-38 5q-9 0 -17.5 -0.5t-16.5 -0.5q-15 0 -24.5 7t-9.5 15q0 23 35 23h134q12 0 14 -1q3 -1 3 -8v-12v-424q0 -18 22.5 -30t52.5 -12q12 0 17 1q15 2 26 -5t11 -16q0 -17 -35 -17zM259 666
q0 -15 -10 -23.5t-28 -13.5l-139 -44q-11 -3 -22 -5q-13 0 -13 10q0 6 5 11t13 11l106 77q13 10 21 14t22 4q19 0 32 -12t13 -29z" />
    <glyph glyph-name="igrave" unicode="&#xec;" horiz-adv-x="348" 
d="M300 -5h-235q-43 0 -43 19q0 22 44 22q29 0 48 7q26 10 26 29v380q0 13 -14 18t-38 5q-9 0 -17.5 -0.5t-16.5 -0.5q-15 0 -24.5 7t-9.5 15q0 23 35 23h134q12 0 14 -1q3 -1 3 -8v-12v-424q0 -18 22.5 -30t52.5 -12q12 0 17 1q15 2 26 -5t11 -16q0 -17 -35 -17zM257 590
q0 -10 -14 -10q-5 0 -12 2.5t-10 2.5l-138 44q-19 5 -28.5 13t-9.5 24t13 28.5t32 12.5q12 0 20 -4t22 -14l106 -77q6 -5 12.5 -10t6.5 -12z" />
    <glyph glyph-name="icircumflex" unicode="&#xee;" horiz-adv-x="348" 
d="M300 -5h-235q-43 0 -43 19q0 22 44 22q29 0 48 7q26 10 26 29v380q0 13 -14 18t-38 5q-9 0 -17.5 -0.5t-16.5 -0.5q-15 0 -24.5 7t-9.5 15q0 23 35 23h134q12 0 14 -1q3 -1 3 -8v-12v-424q0 -18 22.5 -30t52.5 -12q12 0 17 1q15 2 26 -5t11 -16q0 -17 -35 -17zM343 583
q0 -12 -13 -12q-12 0 -78 30q-55 25 -88 42q-66 -35 -107.5 -54t-53.5 -19q-15 0 -15 13q0 5 9 11.5t11 8.5l138 98q4 3 10.5 7.5t10.5 4.5q2 0 10.5 -5.5t9.5 -6.5l140 -98q12 -8 13 -10q3 -4 3 -10z" />
    <glyph glyph-name="idieresis" unicode="&#xef;" horiz-adv-x="348" 
d="M300 -5h-235q-43 0 -43 19q0 22 44 22q29 0 48 7q26 10 26 29v380q0 13 -14 18t-38 5q-9 0 -17.5 -0.5t-16.5 -0.5q-15 0 -24.5 7t-9.5 15q0 23 35 23h134q12 0 14 -1q3 -1 3 -8v-12v-424q0 -18 22.5 -30t52.5 -12q12 0 17 1q15 2 26 -5t11 -16q0 -17 -35 -17zM311 628
q0 -23 -17 -40t-40 -17q-24 0 -41 16t-17 41q0 24 17 41t41 17q23 0 40 -17t17 -41zM128 628q0 -23 -17 -40t-41 -17q-23 0 -40 16t-17 41q0 24 16 41t41 17q24 0 41 -17t17 -41z" />
    <glyph glyph-name="ntilde" unicode="&#xf1;" horiz-adv-x="743" 
d="M702 35q15 3 24 -3t9 -16q0 -21 -35 -21h-270q-10 0 -16 6t-6 14q0 21 26 21q4 0 21 -2t27 -2q19 0 31 6.5t12 24.5v291q0 73 -44 108q-38 30 -106 30q-73 0 -124.5 -42.5t-51.5 -108.5v-273q0 -19 15 -29t39 -10q14 0 27 3.5t17 3.5q25 0 25 -20q0 -8 -10 -14.5
t-31 -6.5h-238q-22 0 -33.5 7t-11.5 16q0 19 30 19q3 0 15 -2.5t32 -2.5q27 0 46 8t19 26v379q0 19 -13.5 25.5t-37.5 6.5q-11 0 -31 -2t-25 -2q-16 0 -26.5 7t-10.5 15q0 23 38 23h19h14h34t35 1h12q36 0 46 -34q3 -11 3 -34q9 17 18 26q54 57 169 57q108 0 161 -58
q42 -46 42 -112l1 -300q0 -18 19.5 -25.5t46.5 -7.5q13 0 23.5 1t24.5 3zM497 664q0 -9 -4 -18t-11 -18q-15 -17 -35.5 -28t-44.5 -11q-30 0 -101 24q-35 12 -60 12q-13 0 -23 -7q-3 -2 -17 -16q-8 -10 -14 -10q-13 0 -13 11q0 9 6 20t13 19q15 17 35.5 27t44.5 10
q13 0 72.5 -18.5t83.5 -18.5q21 0 36.5 16.5t19.5 16.5q12 0 12 -11z" />
    <glyph glyph-name="oacute" unicode="&#xf3;" horiz-adv-x="582" 
d="M531 261q0 -108 -64 -184q-68 -80 -175 -80q-102 0 -172 80t-70 187q0 106 72.5 183.5t176.5 77.5q100 0 166 -78.5t66 -185.5zM464 261q0 87 -46 154q-49 72 -120 72q-83 0 -134 -70q-47 -64 -47 -156t42 -152q48 -69 133 -69q89 0 134 70q38 59 38 151zM385 666
q0 -15 -10 -23.5t-28 -13.5l-139 -44q-11 -3 -22 -5q-13 0 -13 10q0 6 5 11t13 11l106 77q13 10 21 14t22 4q19 0 32 -12t13 -29z" />
    <glyph glyph-name="ograve" unicode="&#xf2;" horiz-adv-x="582" 
d="M531 261q0 -108 -64 -184q-68 -80 -175 -80q-102 0 -172 80t-70 187q0 106 72.5 183.5t176.5 77.5q100 0 166 -78.5t66 -185.5zM464 261q0 87 -46 154q-49 72 -120 72q-83 0 -134 -70q-47 -64 -47 -156t42 -152q48 -69 133 -69q89 0 134 70q38 59 38 151zM386 590
q0 -10 -14 -10q-5 0 -12 2.5t-10 2.5l-138 44q-19 5 -28.5 13t-9.5 24t13 28.5t32 12.5q12 0 20 -4t22 -14l106 -77q6 -5 12.5 -10t6.5 -12z" />
    <glyph glyph-name="ocircumflex" unicode="&#xf4;" horiz-adv-x="582" 
d="M531 261q0 -108 -64 -184q-68 -80 -175 -80q-102 0 -172 80t-70 187q0 106 72.5 183.5t176.5 77.5q100 0 166 -78.5t66 -185.5zM464 261q0 87 -46 154q-49 72 -120 72q-83 0 -134 -70q-47 -64 -47 -156t42 -152q48 -69 133 -69q89 0 134 70q38 59 38 151zM472 583
q0 -12 -13 -12q-12 0 -78 30q-55 25 -88 42q-66 -35 -107.5 -54t-53.5 -19q-15 0 -15 13q0 5 9 11.5t11 8.5l138 98q4 3 10.5 7.5t10.5 4.5q2 0 10.5 -5.5t9.5 -6.5l140 -98q12 -8 13 -10q3 -4 3 -10z" />
    <glyph glyph-name="odieresis" unicode="&#xf6;" horiz-adv-x="582" 
d="M531 261q0 -108 -64 -184q-68 -80 -175 -80q-102 0 -172 80t-70 187q0 106 72.5 183.5t176.5 77.5q100 0 166 -78.5t66 -185.5zM464 261q0 87 -46 154q-49 72 -120 72q-83 0 -134 -70q-47 -64 -47 -156t42 -152q48 -69 133 -69q89 0 134 70q38 59 38 151zM440 628
q0 -23 -17 -40t-40 -17q-24 0 -41 16t-17 41q0 24 17 41t41 17q23 0 40 -17t17 -41zM257 628q0 -23 -17 -40t-41 -17q-23 0 -40 16t-17 41q0 24 16 41t41 17q24 0 41 -17t17 -41z" />
    <glyph glyph-name="otilde" unicode="&#xf5;" horiz-adv-x="582" 
d="M531 261q0 -108 -64 -184q-68 -80 -175 -80q-102 0 -172 80t-70 187q0 106 72.5 183.5t176.5 77.5q100 0 166 -78.5t66 -185.5zM464 261q0 87 -46 154q-49 72 -120 72q-83 0 -134 -70q-47 -64 -47 -156t42 -152q48 -69 133 -69q89 0 134 70q38 59 38 151zM449 664
q0 -9 -4 -18t-11 -18q-15 -17 -35.5 -28t-44.5 -11q-30 0 -101 24q-35 12 -60 12q-13 0 -23 -7q-3 -2 -17 -16q-8 -10 -14 -10q-13 0 -13 11q0 9 6 20t13 19q15 17 35.5 27t44.5 10q13 0 72.5 -18.5t83.5 -18.5q21 0 36.5 16.5t19.5 16.5q12 0 12 -11z" />
    <glyph glyph-name="uacute" unicode="&#xfa;" horiz-adv-x="743" 
d="M701 42q14 0 22.5 -6.5t8.5 -15.5q0 -22 -35 -22q-19 0 -40 1t-28 1q-20 0 -36 -2q-40 -4 -51 31q-3 11 -4 37q-20 -24 -38 -36q-57 -37 -144 -37q-115 0 -172 60q-44 46 -44 111v277q0 24 -11.5 33t-33.5 9q-15 0 -27.5 -2.5t-24.5 -4.5q-14 -2 -24 6t-10 19q0 9 7.5 15
t24.5 6q30 -3 41 -4t30 -1q23 0 39 2t28 3q14 0 18 -6t4 -18v-17v-310q0 -70 51 -104q42 -28 106 -28q73 0 127.5 43t54.5 107v259q0 17 -15 25.5t-38 8.5q-17 0 -37 -5q-15 -4 -26 5t-11 20q0 10 6.5 15.5t23.5 5.5q7 0 11 -1q9 -1 29.5 -3.5t26.5 -2.5q13 0 60 6
q15 2 20.5 -3t5.5 -17q-1 -15 -1 -24q0 -87 0.5 -186t1.5 -210q0 -26 13.5 -36t35.5 -10q12 0 31 3t24 3zM439 666q0 -15 -10 -23.5t-28 -13.5l-139 -44q-11 -3 -22 -5q-13 0 -13 10q0 6 5 11t13 11l106 77q13 10 21 14t22 4q19 0 32 -12t13 -29z" />
    <glyph glyph-name="ugrave" unicode="&#xf9;" horiz-adv-x="743" 
d="M701 42q14 0 22.5 -6.5t8.5 -15.5q0 -22 -35 -22q-19 0 -40 1t-28 1q-20 0 -36 -2q-40 -4 -51 31q-3 11 -4 37q-20 -24 -38 -36q-57 -37 -144 -37q-115 0 -172 60q-44 46 -44 111v277q0 24 -11.5 33t-33.5 9q-15 0 -27.5 -2.5t-24.5 -4.5q-14 -2 -24 6t-10 19q0 9 7.5 15
t24.5 6q30 -3 41 -4t30 -1q23 0 39 2t28 3q14 0 18 -6t4 -18v-17v-310q0 -70 51 -104q42 -28 106 -28q73 0 127.5 43t54.5 107v259q0 17 -15 25.5t-38 8.5q-17 0 -37 -5q-15 -4 -26 5t-11 20q0 10 6.5 15.5t23.5 5.5q7 0 11 -1q9 -1 29.5 -3.5t26.5 -2.5q13 0 60 6
q15 2 20.5 -3t5.5 -17q-1 -15 -1 -24q0 -87 0.5 -186t1.5 -210q0 -26 13.5 -36t35.5 -10q12 0 31 3t24 3zM431 590q0 -10 -14 -10q-5 0 -12 2.5t-10 2.5l-138 44q-19 5 -28.5 13t-9.5 24t13 28.5t32 12.5q12 0 20 -4t22 -14l106 -77q6 -5 12.5 -10t6.5 -12z" />
    <glyph glyph-name="ucircumflex" unicode="&#xfb;" horiz-adv-x="743" 
d="M701 42q14 0 22.5 -6.5t8.5 -15.5q0 -22 -35 -22q-19 0 -40 1t-28 1q-20 0 -36 -2q-40 -4 -51 31q-3 11 -4 37q-20 -24 -38 -36q-57 -37 -144 -37q-115 0 -172 60q-44 46 -44 111v277q0 24 -11.5 33t-33.5 9q-15 0 -27.5 -2.5t-24.5 -4.5q-14 -2 -24 6t-10 19q0 9 7.5 15
t24.5 6q30 -3 41 -4t30 -1q23 0 39 2t28 3q14 0 18 -6t4 -18v-17v-310q0 -70 51 -104q42 -28 106 -28q73 0 127.5 43t54.5 107v259q0 17 -15 25.5t-38 8.5q-17 0 -37 -5q-15 -4 -26 5t-11 20q0 10 6.5 15.5t23.5 5.5q7 0 11 -1q9 -1 29.5 -3.5t26.5 -2.5q13 0 60 6
q15 2 20.5 -3t5.5 -17q-1 -15 -1 -24q0 -87 0.5 -186t1.5 -210q0 -26 13.5 -36t35.5 -10q12 0 31 3t24 3zM523 583q0 -12 -13 -12q-12 0 -78 30q-55 25 -88 42q-66 -35 -107.5 -54t-53.5 -19q-15 0 -15 13q0 5 9 11.5t11 8.5l138 98q4 3 10.5 7.5t10.5 4.5q2 0 10.5 -5.5
t9.5 -6.5l140 -98q12 -8 13 -10q3 -4 3 -10z" />
    <glyph glyph-name="udieresis" unicode="&#xfc;" horiz-adv-x="743" 
d="M701 42q14 0 22.5 -6.5t8.5 -15.5q0 -22 -35 -22q-19 0 -40 1t-28 1q-20 0 -36 -2q-40 -4 -51 31q-3 11 -4 37q-20 -24 -38 -36q-57 -37 -144 -37q-115 0 -172 60q-44 46 -44 111v277q0 24 -11.5 33t-33.5 9q-15 0 -27.5 -2.5t-24.5 -4.5q-14 -2 -24 6t-10 19q0 9 7.5 15
t24.5 6q30 -3 41 -4t30 -1q23 0 39 2t28 3q14 0 18 -6t4 -18v-17v-310q0 -70 51 -104q42 -28 106 -28q73 0 127.5 43t54.5 107v259q0 17 -15 25.5t-38 8.5q-17 0 -37 -5q-15 -4 -26 5t-11 20q0 10 6.5 15.5t23.5 5.5q7 0 11 -1q9 -1 29.5 -3.5t26.5 -2.5q13 0 60 6
q15 2 20.5 -3t5.5 -17q-1 -15 -1 -24q0 -87 0.5 -186t1.5 -210q0 -26 13.5 -36t35.5 -10q12 0 31 3t24 3zM479 628q0 -23 -17 -40t-40 -17q-24 0 -41 16t-17 41q0 24 17 41t41 17q23 0 40 -17t17 -41zM296 628q0 -23 -17 -40t-41 -17q-23 0 -40 16t-17 41q0 24 16 41t41 17
q24 0 41 -17t17 -41z" />
    <glyph glyph-name="dagger" unicode="&#x2020;" 
 />
    <glyph glyph-name="degree" unicode="&#xb0;" horiz-adv-x="416" 
 />
    <glyph glyph-name="cent" unicode="&#xa2;" horiz-adv-x="487" 
d="M437 265q0 -68 -52 -108q-48 -37 -117 -37q-94 0 -158 55q-71 61 -71 168q0 93 64 158q68 69 175 69q64 0 110.5 -35t46.5 -93q0 -25 -15 -45t-38 -20q-17 0 -33.5 10.5t-16.5 26.5q0 6 2.5 13.5t21.5 20.5q6 4 19 11q-6 25 -14 37q-27 37 -88 37q-82 0 -130 -58
q-43 -53 -43 -127q0 -85 46 -138t122 -53q50 0 83.5 27.5t33.5 72.5q0 19 7 28t17 9q11 0 19.5 -8.5t8.5 -20.5zM271 18q0 -6 -6.5 -13.5t-13.5 -7.5q-21 0 -21 22v644q0 13 4.5 21t18.5 8q12 0 14 -8.5t2 -24.5z" />
    <glyph glyph-name="sterling" unicode="&#xa3;" horiz-adv-x="862" 
d="M792 155q0 -68 -48 -115t-116 -47q-71 0 -122 24q-44 26 -87 52q-2 0 -10 -2q-47 -32 -95.5 -53t-91.5 -21q-88 0 -127 36q-27 25 -27 62q1 8 1 11q8 57 42 83q29 22 77 22q40 0 87 -14q46 -17 92 -33q7 0 10 14t3 35q0 25 -4 53.5t-23 58.5q-15 23 -44 51h-81h-66
q-9 0 -9 15q0 20 11 20h40h21q29 0 57 4q-1 9 -2 15q-7 44 -7 70q0 25 1.5 36t7.5 27q25 64 70.5 98t116.5 34q83 0 140 -52q47 -43 47 -80q-2 -24 -14 -44q-15 -25 -34 -25q-9 0 -19 7q-22 17 -22 32q0 12 17 29t17 22q0 23 -45 47t-89 24q-71 0 -107 -49q-29 -40 -29 -100
q0 -35 11 -62t25 -27q61 0 126.5 -0.5t79.5 -3t18 -10.5q2 -4 2 -10q0 -5 -3 -12t-10 -7h-57q-32 0 -63.5 -0.5t-48.5 -2.5q-5 -2 -5 -8q0 -2 25 -77q12 -36 12 -58q0 -17 -4.5 -43t-4.5 -33q0 -10 3 -21q8 -27 83 -56t104 -25q62 6 94 36q28 26 28 64q0 39 -28.5 70
t-68.5 31q-27 0 -48 -13.5t-26.5 -32t-16 -27t-22.5 -8.5q-17 0 -17 20q0 13 10 33q16 34 47.5 54t72.5 20q57 0 97.5 -39.5t45.5 -98.5zM335 101q0 25 -44 43t-86 18q-29 0 -52.5 -15t-27.5 -41q-6 -34 29 -53t75 -19q25 0 62 19q44 23 44 48z" />
    <glyph glyph-name="section" unicode="&#xa7;" horiz-adv-x="528" 
d="M448 295q0 -39 -27 -82q-21 -34 -54 -64q33 -34 44 -53q18 -31 18 -71q0 -34 -14.5 -66t-38.5 -55q-19 -19 -49.5 -29t-60.5 -10q-32 0 -58 6.5t-51.5 25.5t-42 50t-16.5 69t14 62.5t42 24.5q20 0 34 -17.5t14 -42.5q0 -21 -11 -35q-13 -13 -25 -26q0 -7 6.5 -20.5
t10.5 -16.5q17 -11 37.5 -18.5t37.5 -7.5q37 0 67 26q35 30 35 75q0 35 -29 70q-21 25 -53 45l-46 28q-47 25 -93 51q-51 36 -51 95q0 37 30 79q17 25 56 62q-30 35 -37 46q-16 27 -16 61q0 75 50 117q44 37 109 37q55 0 97 -30q52 -37 52 -101q0 -28 -13.5 -45.5
t-36.5 -17.5q-17 0 -29 14t-12 35q0 18 7 27.5t22 18.5q-9 17 -37 29.5t-47 12.5q-32 0 -59 -22q-32 -26 -32 -64q0 -21 10 -39.5t27 -32.5q42 -35 89 -64l84 -48q46 -35 46 -89zM380 275q0 45 -68 87l-98 58q-20 -20 -38.5 -50.5t-18.5 -48.5q0 -45 68 -84q93 -54 96 -57
q22 22 37 43q22 31 22 52z" />
    <glyph glyph-name="bullet" unicode="&#x2022;" horiz-adv-x="600" 
d="M476 344q0 -72 -50 -122t-122 -50t-123 50t-51 122q0 73 50.5 123.5t123.5 50.5q72 0 122 -50t50 -124z" />
    <glyph glyph-name="paragraph" unicode="&#xb6;" 
 />
    <glyph glyph-name="germandbls" unicode="&#xdf;" horiz-adv-x="672" 
d="M634 142q0 -64 -58 -105q-53 -37 -126 -37q-35 0 -89 21q-18 7 -48 22l-3 -18q-1 -13 -8.5 -19t-18.5 -6q-27 0 -27 30q3 32 4 43.5t1 31.5q0 25 -2 43t-3 31q0 33 24 33q11 0 18.5 -10.5t4.5 -28.5q-1 -6 -1 -17q0 -48 40 -79.5t110 -31.5q57 0 89 26t32 73
q0 71 -67 113q-63 29 -125 59q-67 37 -67 96q0 54 73.5 97.5t73.5 65.5q0 47 -31 74t-77 27q-71 0 -114 -56q-34 -44 -34 -88v-82v-376q0 -30 -6 -46q-11 -28 -40 -28h-98q-21 0 -30 5t-9 14q0 10 10.5 18.5t22.5 8.5h17q29 0 44 4q24 7 24 24v378q0 8 -18 11.5t-45 3.5h-29
q-17 0 -27 7.5t-10 17.5q0 23 34 23h23.5h15.5q28 0 42 3.5t14 14.5q0 82 60.5 137.5t149.5 55.5q64 0 108 -25q67 -39 67 -128q0 -48 -73.5 -92.5t-73.5 -69.5q0 -23 66 -53q89 -41 123 -70q67 -58 67 -146z" />
    <glyph glyph-name="registered" unicode="&#xae;" horiz-adv-x="840" 
d="M791 345q0 -152 -107 -260t-259 -108q-153 0 -260.5 107.5t-107.5 260.5q0 152 108 259t260 107t259 -107t107 -259zM747 345q0 132 -94 227t-228 95t-228.5 -94.5t-94.5 -227.5q0 -135 94.5 -229.5t228.5 -94.5t228 95t94 229zM617 155h-28h-16q-19 0 -27.5 1.5
t-19 10.5t-24.5 38t-18 39q-18 45 -23 54q-10 20 -19 28.5t-20 11t-28 2.5h-17h-18v-131q0 -22 5 -29.5t24 -7.5l21 -1v-16h-155v16l16 1q20 0 26.5 5.5t6.5 25.5v307q0 19 -6 24t-27 5l-17 1v17h159q37 0 65.5 -4t50.5 -17q41 -27 41 -79q0 -46 -34 -75q-30 -25 -78 -31
q29 -4 54 -41q11 -16 34 -65q10 -23 14 -32q9 -19 20 -30.5t38 -11.5v-16zM512 452q0 43 -25.5 64.5t-69.5 21.5h-29q-21 0 -25 -9.5t-4 -33.5v-135h28q56 0 86 17q39 22 39 75z" />
    <glyph glyph-name="copyright" unicode="&#xa9;" horiz-adv-x="840" 
d="M790 343q0 -152 -108 -259t-261 -107q-151 0 -258 107t-107 258q0 153 106 261t258 108q153 0 261.5 -107.5t108.5 -260.5zM745 343q0 136 -95 230t-230 94q-133 0 -226.5 -95.5t-93.5 -229.5q0 -131 94 -226t227 -95q134 0 229 94t95 228zM588 233q-18 -46 -64.5 -73
t-100.5 -27q-89 0 -144 58t-55 148q0 94 58 153t153 59q27 0 58 -4.5t86 -21.5v-110h-27q0 51 -28.5 80.5t-81.5 29.5q-72 0 -110.5 -50.5t-38.5 -125.5q0 -73 37 -126q42 -60 112 -60q89 0 125 79z" />
    <glyph glyph-name="trademark" unicode="&#x2122;" horiz-adv-x="920" 
d="M930 287h-155v20h11q27 0 33.5 9t6.5 37v298l-152 -364h-8l-153 364v-310v-14q1 -5 9 -11t16 -8q5 -1 18 -1h7v-20h-123v20h11q20 0 28.5 6t8.5 27v296v15q0 14 -4 18t-22 4h-14v18h109l129 -308l132 308h112v-18h-21q-12 0 -19.5 -2.5t-7.5 -17.5v-299q0 -31 8 -39
t40 -8v-20zM372 595h-23q0 44 -16 58t-61 14h-41v-316v-21q2 -12 10 -16t22 -5.5t31 -1.5v-20h-182v20q14 0 28 0.5t24.5 6t10.5 27.5v10v316h-41q-45 0 -61 -14t-16 -58h-23v30v66h338v-66v-30z" />
    <glyph glyph-name="acute" unicode="&#xb4;" horiz-adv-x="340" 
d="M280 666q0 -15 -10 -23.5t-28 -13.5l-139 -44q-11 -3 -22 -5q-13 0 -13 10q0 6 5 11t13 11l106 77q13 10 21 14t22 4q19 0 32 -12t13 -29z" />
    <glyph glyph-name="dieresis" unicode="&#xa8;" horiz-adv-x="440" 
d="M368 628q0 -23 -17 -40t-40 -17q-24 0 -41 16t-17 41q0 24 17 41t41 17q23 0 40 -17t17 -41zM185 628q0 -23 -17 -40t-41 -17q-23 0 -40 16t-17 41q0 24 16 41t41 17q24 0 41 -17t17 -41z" />
    <glyph glyph-name="notequal" unicode="&#x2260;" horiz-adv-x="571" 
 />
    <glyph glyph-name="AE" unicode="&#xc6;" horiz-adv-x="1160" 
d="M1112 230q0 -30 -3.5 -66t-3.5 -42v-39.5t1 -45.5q0 -17 -13 -28t-31 -11h-580q-17 0 -28.5 8t-11.5 18q0 22 38 22q10 0 21 -0.5t23 -0.5q35 0 54.5 5.5t19.5 23.5l5 170h-261q-39 -59 -58 -89q-58 -92 -54 -100q5 -8 15.5 -11.5t26.5 -3.5q14 0 36.5 2.5t25.5 2.5
q29 0 29 -24q0 -11 -10.5 -18.5t-33.5 -7.5l-148 1l-130 -2q-31 0 -31 17q0 11 13.5 21.5t30.5 10.5q5 0 20.5 -1t24.5 -1q18 0 29.5 3.5t18.5 14.5l405 594q3 4 1 6q-1 1 -6 1q-12 -1 -20 -1l-38 -2q-22 0 -34 7t-12 16q0 23 43 23h555q55 0 48 -40q-5 -22 -7 -43t-2 -39
q0 -17 5 -70q2 -21 2 -40t-10.5 -31.5t-23.5 -12.5q-24 0 -24 36v9q0 84 -3 107.5t-22 53.5q-8 13 -52.5 20t-101.5 7q-88 0 -165 -11q-6 -1 -9.5 -35.5t-3.5 -85.5q0 -52 2.5 -82.5t6.5 -33.5q6 -3 32.5 -6t52.5 -3q37 0 58.5 3.5t24.5 12.5q7 20 7 47v23q-3 18 -4 27
q-3 21 5.5 34t20.5 13t20.5 -12.5t8.5 -34.5q0 -52 -1 -88.5t-2 -71.5q0 -6 5 -67q2 -24 2 -51q0 -45 -28 -45q-13 0 -20.5 10.5t-5.5 30.5v28t1 29q0 18 -1 28t-4.5 16.5t-46.5 10.5t-84 4q-42 0 -44 -6t-5 -53t-3 -95q0 -60 4 -92.5t15 -40.5q33 -20 148 -20q49 0 90.5 3
t90.5 12q18 3 25.5 28t7.5 64q0 18 -2.5 49.5t-2.5 37.5q0 44 31 44q35 0 35 -51zM604 304v56t1 98v31v26v22v18v14v12v36q-2 3 -3 6q-4 -1 -60 -83q-51 -75 -102 -153q-26 -42 -51 -84q4 -1 38 -1.5t70 -0.5h19h17h14h11q41 0 46 3z" />
    <glyph glyph-name="Oslash" unicode="&#xd8;" horiz-adv-x="698" 
d="M631 351q0 -150 -64 -242q-76 -109 -224 -109q-58 0 -101.5 15.5t-78.5 46.5l-58 -83q-11 -17 -17 -22q-14 -12 -26 -6q-9 5 -9 21q0 9 1 16l2 10l72 101q-39 50 -57 118t-18 136q0 141 72 240q81 112 215 112q53 0 98.5 -16.5t79.5 -46.5l46 65q6 9 19 9q12 0 19 -10
q3 -5 3 -19l-54 -78q39 -48 59.5 -116t20.5 -142zM480 588q-26 30 -59.5 45.5t-77.5 15.5q-108 0 -163 -88q-49 -78 -49 -208q0 -58 9.5 -106t30.5 -89zM554 353q0 54 -11.5 105t-34.5 91l-308 -435q25 -28 61 -43.5t82 -15.5q118 0 170 94q41 74 41 204z" />
    <glyph glyph-name="infinity" unicode="&#x221e;" horiz-adv-x="742" 
 />
    <glyph glyph-name="plusminus" unicode="&#xb1;" horiz-adv-x="571" 
 />
    <glyph glyph-name="lessequal" unicode="&#x2264;" horiz-adv-x="571" 
 />
    <glyph glyph-name="greaterequal" unicode="&#x2265;" horiz-adv-x="571" 
 />
    <glyph glyph-name="yen" unicode="&#xa5;" horiz-adv-x="822" 
d="M791 655q-6 -1 -10 -1q-9 0 -31.5 2t-23.5 2q-27 0 -36 -14l-146 -236h127v-57h-161l-48 -78q-2 -4 -2 -5q-3 -7 -3 -10l214 1v-57l-218 -1l1 -134q0 -16 17 -21.5t45 -5.5q9 0 26 1t22 1q18 0 28 -7t10 -17q0 -21 -35 -21l-302 -1q-37 0 -37 21q0 10 9.5 18.5t23.5 8.5
q7 0 26 -1t30 -1q29 0 45.5 6t16.5 23q0 41 1 71.5t2 59.5h-215v57h211q0 6 -2 11q0 2 -3 5l-48 76h-158v57h122q-29 47 -55 91q-58 100 -85 145q-7 13 -43 13q-16 0 -31.5 -1t-30.5 -2q-20 0 -30.5 6.5t-10.5 16.5t9.5 17.5t25.5 7.5h24h16h31h25h21h19h16h15h13h12h11h37
t40 1h13q23 0 33.5 -5.5t10.5 -15.5t-10.5 -18t-27.5 -8h-25.5t-25.5 1q-28 0 -45.5 -2.5t-9.5 -19.5q22 -44 79 -139q44 -73 89 -145l22 -34l22 34q22 35 74.5 126t91.5 163q6 10 0 14t-21 4q-18 0 -28 -1q-51 -5 -52 -5q-17 0 -29 9t-12 20q0 9 10 15.5t32 6.5h28h18h34
h26h21h17h15h13h11h38.5t42.5 1h14q13 0 21 -8t8 -19q0 -22 -25 -22z" />
    <glyph glyph-name="mu" unicode="&#xb5;" horiz-adv-x="599" 
 />
    <glyph glyph-name="partialdiff" unicode="&#x2202;" horiz-adv-x="514" 
 />
    <glyph glyph-name="summation" unicode="&#x3a3;" horiz-adv-x="742" 
 />
    <glyph glyph-name="product" unicode="&#x220f;" horiz-adv-x="856" 
 />
    <glyph glyph-name="pi" unicode="&#x3c0;" horiz-adv-x="571" 
 />
    <glyph glyph-name="integral" unicode="&#x222b;" horiz-adv-x="285" 
 />
    <glyph glyph-name="ordfeminine" unicode="&#xaa;" horiz-adv-x="355" 
d="M347 432q0 -21 -16.5 -33.5t-41.5 -12.5q-30 0 -46 21q-5 7 -11 22q-11 -14 -21 -21q-33 -22 -83 -22q-45 0 -71.5 22.5t-26.5 60.5q0 43 29 63.5t79 20.5q49 6 69.5 20t20.5 35q0 24 -22 41t-52 17q-31 0 -51 -13q-6 -4 -14 -14q6 -1 9 -2q10 -6 10 -21
q0 -13 -7.5 -22.5t-20.5 -9.5q-11 0 -21.5 10.5t-10.5 23.5q0 35 33.5 58.5t75.5 23.5q43 0 76.5 -24t33.5 -60l-1 -176q0 -11 9 -18t20 -7q19 0 19 19v43q0 23 16 23q6 0 11.5 -5.5t5.5 -12.5v-50zM350 305h-321v34h321v-34zM224 551q-17 -12 -28 -17q-35 -18 -61 -18
q-63 0 -63 -39q0 -23 16 -40t43 -17q56 0 79 38q16 26 16 68q0 9 -1 18q0 3 -1 7z" />
    <glyph glyph-name="ordmasculine" unicode="&#xba;" horiz-adv-x="349" 
d="M319 542q0 -66 -39.5 -112.5t-104.5 -46.5q-62 0 -103.5 47.5t-41.5 112.5q0 64 43 110.5t106 46.5q60 0 100 -47t40 -111zM317 305h-288v34h288v-34zM276 542q0 50 -27.5 83.5t-69.5 33.5q-50 0 -78.5 -32.5t-28.5 -84.5q0 -51 26.5 -84.5t76.5 -33.5q52 0 78 35
q23 31 23 83z" />
    <glyph glyph-name="Omega" unicode="&#x3a9;" horiz-adv-x="799" 
 />
    <glyph glyph-name="ae" unicode="&#xe6;" horiz-adv-x="873" 
d="M833 274q0 -8 -7 -13t-14 -5h-333q-15 0 -15 -20q0 -83 36 -135q41 -60 121 -60q60 0 106 33t46 77q0 41 27 41q25 0 25 -41q0 -57 -65.5 -105.5t-140.5 -48.5t-124 33.5t-76 93.5q-10 -19 -22 -37q-4 -6 -11 -16q-18 -24 -35 -35q-53 -36 -137 -36q-74 0 -119 38
t-45 100q0 72 48 106.5t132 34.5q83 8 124 36q36 24 36 60q0 38 -39.5 70t-88.5 32q-52 0 -88 -27q-12 -9 -26 -28q15 -2 21 -8q11 -11 11 -31q0 -19 -13 -31t-34 -12q-20 0 -36.5 13t-16.5 34q0 58 56.5 97t125.5 39q58 0 109.5 -29.5t67.5 -75.5q31 49 79.5 78t106.5 29
q95 0 151.5 -70t56.5 -181zM767 334q0 62 -41.5 103.5t-104.5 41.5q-60 0 -105.5 -48.5t-45.5 -104.5q0 -10 3 -13t16 -3h262q17 0 17 13q-1 8 -1 11zM388 287q-32 -17 -52 -25q-64 -26 -112 -26q-58 0 -90 -27q-28 -24 -28 -61q0 -41 31 -73t80 -32q102 0 145 71
q30 50 30 125q0 23 -1 33t-3 15z" />
    <glyph glyph-name="oslash" unicode="&#xf8;" horiz-adv-x="582" 
d="M531 261q0 -108 -64 -184q-68 -80 -175 -80q-76 0 -138 48l-55 -72q-11 -17 -17 -22q-14 -12 -26 -6q-9 5 -9 21q0 9 1 16l2 10l68 87q-68 79 -68 185t72.5 183.5t176.5 77.5q38 0 71 -11.5t61 -34.5l52 66q6 9 19 9q12 0 19 -10q3 -5 3 -19l-60 -78q31 -37 49 -86
t18 -100zM399 438q-21 24 -46.5 36.5t-54.5 12.5q-83 0 -134 -70q-47 -64 -47 -156q0 -81 34 -139zM464 261q0 76 -37 138l-245 -317q21 -19 49 -30.5t61 -11.5q89 0 134 70q38 59 38 151z" />
    <glyph glyph-name="questiondown" unicode="&#xbf;" horiz-adv-x="565" 
d="M318 418q-23 0 -36.5 14.5t-13.5 35.5t13 36t37 15q25 0 37.5 -14.5t12.5 -36.5q0 -20 -13 -35t-37 -15zM530 3q0 -90 -89 -145q-75 -46 -167 -46q-89 0 -158 55q-72 58 -72 139q0 73 69 125q62 36 126.5 73.5t59.5 78.5q-1 4 -1 16q0 20 6 33t20 13q31 0 31 -40
q0 -79 -63 -123q-59 -33 -117 -65q-63 -42 -63 -117q0 -63 41 -101t120 -38t136 33q64 37 64 99q0 34 -25 47q-8 4 -25 6q2 -3 3 -5q3 -7 3 -14q0 -16 -18 -22q-4 -2 -13 -2q-17 0 -27.5 13.5t-8.5 27.5q4 25 25.5 39.5t48.5 14.5q37 0 65.5 -24.5t28.5 -70.5z" />
    <glyph glyph-name="exclamdown" unicode="&#xa1;" horiz-adv-x="185" 
d="M100 418q-23 0 -36.5 14.5t-13.5 35.5t13 36t37 15q25 0 37.5 -14.5t12.5 -36.5q0 -20 -13 -35t-37 -15zM136 -155q0 -11 -11 -21t-25 -10q-13 0 -23 9t-10 22q0 108 4 193q11 233 11 280q0 9 3 19t15 10q9 0 14 -9t5 -20q0 -76 11 -281q6 -112 6 -192z" />
    <glyph glyph-name="logicalnot" unicode="&#xac;" horiz-adv-x="742" 
d="M707 0h-58v242h-633v58h691v-300z" />
    <glyph glyph-name="radical" unicode="&#x221a;" horiz-adv-x="571" 
 />
    <glyph glyph-name="florin" unicode="&#x192;" horiz-adv-x="520" 
d="M515 644q0 -19 -15 -33t-37 -14q-16 0 -26 16q-12 15 -12 22l1 5l11 25l1 6q0 15 -21 15q-26 0 -48 -29t-28 -73l-20 -137l-2 -13h133l-10 -36h-127l-32 -258l-11 -48l-26 -116q-15 -66 -60 -126q-39 -50 -99 -50q-38 0 -62 20t-24 51q0 22 14 37t36 15q18 0 29.5 -10.5
t11.5 -26.5q0 -6 -8 -30l-4 -11l-1 -7v-5l6 -5h10q31 0 49 27.5t31 92.5l12 61l4 36l36 353h-122l14 36h116q16 130 68.5 204.5t130.5 74.5q33 0 57 -20t24 -49z" />
    <glyph glyph-name="approxequal" unicode="&#x2248;" horiz-adv-x="571" 
 />
    <glyph glyph-name="Delta" unicode="&#x2206;" horiz-adv-x="636" 
 />
    <glyph glyph-name="guillemotleft" unicode="&#xab;" 
 />
    <glyph glyph-name="guillemotright" unicode="&#xbb;" 
 />
    <glyph glyph-name="ellipsis" unicode="&#x2026;" horiz-adv-x="600" 
d="M508 -5q-23 0 -36.5 14.5t-13.5 35.5q0 20 13 35t37 15q25 0 37.5 -14t12.5 -36q0 -20 -13 -35t-37 -15zM308 -5q-23 0 -36.5 14.5t-13.5 35.5q0 20 13 35t37 15q25 0 37.5 -14t12.5 -36q0 -20 -13 -35t-37 -15zM108 -5q-23 0 -36.5 14.5t-13.5 35.5q0 20 13 35t37 15
q25 0 37.5 -14t12.5 -36q0 -20 -13 -35t-37 -15z" />
    <glyph glyph-name="nonbreakingspace" unicode="&#xa0;" horiz-adv-x="406" 
 />
    <glyph glyph-name="Agrave" unicode="&#xc0;" horiz-adv-x="814" 
d="M774 -5q-14 2 -35 3t-45 1q-31 0 -111.5 -2t-94.5 -2q-17 0 -27.5 6.5t-10.5 15.5q0 22 39 22q7 0 28.5 -2t25.5 -2q18 0 27.5 3.5t18.5 15.5q7 9 -28 100q-11 30 -36 90h-261q-20 -59 -29 -89q-29 -93 -23 -100q7 -8 19.5 -11.5t27.5 -3.5t37.5 2.5t23.5 2.5q15 0 26 -9
t11 -21q0 -20 -37 -20l-148 1l-129 -2q-18 0 -27.5 6.5t-9.5 15.5q0 10 9.5 18.5t24.5 8.5q6 0 22 -1t24 -1q17 0 27.5 3.5t14.5 14.5l226 624q3 8 19 13t33 5q18 0 30.5 -4.5t15.5 -13.5q14 -37 88 -257q60 -177 89 -255q43 -116 58 -123q10 -4 21 -5.5t28 -1.5h19.5
t18.5 1q31 0 31 -25q0 -10 -8.5 -17t-22.5 -5zM507 304q6 4 -47 163l-58 156q-4 -2 -33.5 -84.5t-52.5 -151.5q-27 -83 -24 -84q4 -1 38.5 -1.5t70.5 -0.5h19h17h14h11q40 0 45 3zM509 749q0 -10 -14 -10q-5 0 -12 2.5t-10 2.5l-138 44q-19 5 -28.5 13t-9.5 24t13 28.5
t32 12.5q12 0 20 -4t22 -14l106 -77q6 -5 12.5 -10t6.5 -12z" />
    <glyph glyph-name="Atilde" unicode="&#xc3;" horiz-adv-x="814" 
d="M774 -5q-14 2 -35 3t-45 1q-31 0 -111.5 -2t-94.5 -2q-17 0 -27.5 6.5t-10.5 15.5q0 22 39 22q7 0 28.5 -2t25.5 -2q18 0 27.5 3.5t18.5 15.5q7 9 -28 100q-11 30 -36 90h-261q-20 -59 -29 -89q-29 -93 -23 -100q7 -8 19.5 -11.5t27.5 -3.5t37.5 2.5t23.5 2.5q15 0 26 -9
t11 -21q0 -20 -37 -20l-148 1l-129 -2q-18 0 -27.5 6.5t-9.5 15.5q0 10 9.5 18.5t24.5 8.5q6 0 22 -1t24 -1q17 0 27.5 3.5t14.5 14.5l226 624q3 8 19 13t33 5q18 0 30.5 -4.5t15.5 -13.5q14 -37 88 -257q60 -177 89 -255q43 -116 58 -123q10 -4 21 -5.5t28 -1.5h19.5
t18.5 1q31 0 31 -25q0 -10 -8.5 -17t-22.5 -5zM507 304q6 4 -47 163l-58 156q-4 -2 -33.5 -84.5t-52.5 -151.5q-27 -83 -24 -84q4 -1 38.5 -1.5t70.5 -0.5h19h17h14h11q40 0 45 3zM560 841q0 -9 -4 -18t-11 -18q-15 -17 -35.5 -28t-44.5 -11q-30 0 -101 24q-35 12 -60 12
q-13 0 -23 -7q-3 -2 -17 -16q-8 -10 -14 -10q-13 0 -13 11q0 9 6 20t13 19q15 17 35.5 27t44.5 10q13 0 72.5 -18.5t83.5 -18.5q21 0 36.5 16.5t19.5 16.5q12 0 12 -11z" />
    <glyph glyph-name="Otilde" unicode="&#xd5;" horiz-adv-x="698" 
d="M631 351q0 -150 -64 -242q-76 -109 -224 -109q-152 0 -229 119q-61 95 -61 234q0 141 72 240q81 112 215 112q142 0 221 -110q70 -98 70 -244zM554 353q0 122 -48 202q-57 94 -163 94q-108 0 -163 -88q-49 -78 -49 -208q0 -131 46 -207q55 -91 166 -91q118 0 170 94
q41 74 41 204zM506 841q0 -9 -4 -18t-11 -18q-15 -17 -35.5 -28t-44.5 -11q-30 0 -101 24q-35 12 -60 12q-13 0 -23 -7q-3 -2 -17 -16q-8 -10 -14 -10q-13 0 -13 11q0 9 6 20t13 19q15 17 35.5 27t44.5 10q13 0 72.5 -18.5t83.5 -18.5q21 0 36.5 16.5t19.5 16.5q12 0 12 -11
z" />
    <glyph glyph-name="OE" unicode="&#x152;" horiz-adv-x="1130" 
d="M1064 230q0 -30 -3.5 -66t-3.5 -42v-39.5t1 -45.5q0 -17 -13 -28t-31 -11h-463q-17 0 -28.5 8t-11.5 18q0 22 38 22q2 0 1.5 17t-0.5 33q-33 -46 -84 -71t-123 -25q-152 0 -229 119q-61 95 -61 234q0 141 72 240q81 112 215 112q69 0 120.5 -26t85.5 -73q0 4 -1.5 11
t-2.5 16q-1 3 -1 6v5q0 13 -1 13q-10 0 -17 7t-7 16q0 10 9.5 16.5t29.5 6.5h438q55 0 48 -40q-5 -22 -7 -43t-2 -39q0 -17 5 -70q2 -21 2 -40t-10.5 -31.5t-23.5 -12.5q-24 0 -24 36v9q0 84 -3 107.5t-22 53.5q-8 13 -52.5 20t-101.5 7q-88 0 -165 -11q-6 0 -9.5 -34
t-3.5 -86q0 -53 2.5 -83.5t6.5 -33.5q6 -3 32.5 -6t52.5 -3q37 0 58.5 3.5t24.5 12.5q7 20 7 47v23q-3 18 -4 27q-3 21 5.5 34t20.5 13t20.5 -12.5t8.5 -34.5q0 -52 -1 -88.5t-2 -71.5q0 -6 5 -67q2 -24 2 -51q0 -45 -28 -45q-13 0 -20.5 10.5t-5.5 30.5v28t1 29q0 18 -1 28
t-4.5 16.5t-46.5 10.5t-84 4q-42 0 -44 -6t-5 -53t-3 -95q0 -60 4 -92.5t15 -40.5q33 -20 148 -20q49 0 90.5 3t90.5 12q18 3 25.5 28t7.5 64q0 18 -2.5 49.5t-2.5 37.5q0 44 31 44q35 0 35 -51zM554 353q0 122 -48 202q-57 94 -163 94q-108 0 -163 -88q-49 -78 -49 -208
q0 -131 46 -207q55 -91 166 -91q118 0 170 94q41 74 41 204z" />
    <glyph glyph-name="oe" unicode="&#x153;" horiz-adv-x="948" 
d="M905 274q0 -8 -7 -13t-14 -5h-333q-15 0 -15 -20q0 -83 36 -135q41 -60 121 -60q60 0 106 33t46 77q0 41 27 41q25 0 25 -41q0 -57 -65.5 -105.5t-140.5 -48.5q-72 0 -121 31.5t-76 87.5q-31 -56 -82 -87.5t-120 -31.5q-102 0 -172 80t-70 187q0 106 72.5 183.5
t176.5 77.5q65 0 116.5 -35t82.5 -94q31 59 82 94t117 35q95 0 151.5 -70t56.5 -181zM839 334q0 62 -41.5 103.5t-104.5 41.5q-60 0 -105.5 -48.5t-45.5 -104.5q0 -10 3 -13t16 -3h262q17 0 17 13q-1 8 -1 11zM464 261q0 87 -46 154q-49 72 -120 72q-83 0 -134 -70
q-47 -64 -47 -156t42 -152q48 -69 133 -69q89 0 134 70q38 59 38 151z" />
    <glyph glyph-name="endash" unicode="&#x2013;" horiz-adv-x="500" 
d="M540 275q0 -21 -15 -29t-38 -8h-474q-24 0 -36 6q-17 9 -17 31q0 21 15 29t38 8h474q24 0 38.5 -7.5t14.5 -29.5z" />
    <glyph glyph-name="emdash" unicode="&#x2014;" 
d="M1041 275q0 -21 -15 -29t-38 -8h-975q-24 0 -36 6q-17 9 -17 31q0 21 15 29t38 8h975q24 0 38.5 -7.5t14.5 -29.5z" />
    <glyph glyph-name="quotedblleft" unicode="&#x201c;" horiz-adv-x="360" 
d="M136 718q0 -6 -22 -36q-16 -22 -21 -31q-9 -13 -15 -31t-6 -34q0 -19 12 -21q0 -7 14 -4.5t18 1.5q14 -6 24 -22.5t10 -34.5t-12.5 -30t-39.5 -12q-35 0 -49.5 23.5t-14.5 60.5q0 31 10.5 56t33 57t44.5 54zM315 715q0 -4 -16 -26q-21 -29 -27 -39q-9 -14 -15 -32t-6 -34
q0 -19 12 -21q0 -6 6 -6q12 1 25 2q14 -6 24.5 -22.5t10.5 -34.5q0 -19 -12 -30t-40 -11q-35 0 -50 24.5t-15 59.5q0 30 11.5 56.5t32.5 55.5q17 25 36 46q11 6 23 12z" />
    <glyph glyph-name="quotedblright" unicode="&#x201d;" horiz-adv-x="360" 
d="M324 629q0 -29 -6 -54.5t-24 -49.5q-12 -15 -36.5 -36t-29.5 -16q-4 4 7 19q38 53 40 57q6 13 8.5 25t2.5 25q0 11 -1 17q0 2 -2 6q-7 -3 -14 -5.5t-15 -2.5q-26 0 -39.5 14.5t-13.5 35.5t14.5 37.5t39.5 16.5q33 0 51 -27.5t18 -61.5zM154 627q0 -28 -6 -54.5t-24 -49.5
q-11 -16 -35.5 -36.5t-29.5 -15.5q-4 4 23 40q18 23 23.5 36.5t8 25.5t2.5 25q0 7 -1 15q0 2 -1 6q-8 -3 -12 -4q-15 -5 -20 -5q-25 0 -38.5 14.5t-13.5 34.5q0 23 14.5 39t41.5 16q32 0 50 -27.5t18 -59.5z" />
    <glyph glyph-name="quoteleft" unicode="&#x2018;" horiz-adv-x="200" 
d="M147 718q0 -6 -22 -36q-16 -22 -21 -31q-9 -13 -15 -31t-6 -34q0 -19 12 -21q0 -7 14 -4.5t18 1.5q14 -6 24 -22.5t10 -34.5t-12.5 -30t-39.5 -12q-35 0 -49.5 23.5t-14.5 60.5q0 31 10.5 56t33 57t44.5 54z" />
    <glyph glyph-name="quoteright" unicode="&#x2019;" horiz-adv-x="200" 
d="M165 627q0 -28 -6 -54.5t-24 -49.5q-11 -16 -35.5 -36.5t-29.5 -15.5q-4 4 23 40q18 23 23.5 36.5t8 25.5t2.5 25q0 7 -1 15q0 2 -1 6q-8 -3 -12 -4q-15 -5 -20 -5q-25 0 -38.5 14.5t-13.5 34.5q0 23 14.5 39t41.5 16q32 0 50 -27.5t18 -59.5z" />
    <glyph glyph-name="divide" unicode="&#xf7;" horiz-adv-x="571" 
 />
    <glyph glyph-name="lozenge" unicode="&#x25ca;" horiz-adv-x="514" 
 />
    <glyph glyph-name="ydieresis" unicode="&#xff;" horiz-adv-x="661" 
d="M631 484q-6 0 -24 4t-28 4q-23 0 -31 -19q-33 -74 -70 -164l-58 -142q-19 -47 -58 -138q-44 -103 -78 -138q-56 -57 -163 -57q-53 0 -96 23q-50 27 -50 71q0 25 14.5 43t38.5 18q19 0 34 -12.5t15 -32.5q0 -15 -23 -31q-4 -2 -12 -7q11 -10 19 -15q26 -15 61 -15
q80 0 128 51q43 46 43 107q0 15 -58 156q-63 152 -126 282q-8 15 -27 15q-9 0 -25 -2.5t-19 -2.5q-35 0 -35 20q0 10 9.5 17.5t23.5 5.5l221 -1q14 1 24 -6.5t10 -17.5q0 -11 -14 -17q-3 -1 -9 -2q-7 -1 -20 -1q-12 0 -34 2t-29 2q-5 0 -8 -1t-2 -4l157 -386q11 25 23 51
q32 71 58 135q42 104 72 189q3 9 -5 12t-24 3h-24q-10 0 -19 0.5t-18 3.5q-17 7 -17 19q0 8 7.5 14.5t18.5 5.5q61 0 122.5 1t99.5 1q14 0 23 -8t9 -18q0 -18 -27 -18zM476 628q0 -23 -17 -40t-40 -17q-24 0 -41 16t-17 41q0 24 17 41t41 17q23 0 40 -17t17 -41zM293 628
q0 -23 -17 -40t-41 -17q-23 0 -40 16t-17 41q0 24 16 41t41 17q24 0 41 -17t17 -41z" />
    <glyph glyph-name="Ydieresis" unicode="&#x178;" horiz-adv-x="822" 
d="M791 655q-6 -1 -10 -1q-9 0 -31.5 2t-23.5 2q-27 0 -36 -14q-72 -116 -93 -150q-68 -111 -135 -221q-8 -13 -8 -206q0 -16 17 -21.5t45 -5.5q9 0 26 1t22 1q18 0 28 -7t10 -17q0 -21 -35 -21l-302 -1q-37 0 -37 21q0 10 9.5 18.5t23.5 8.5q7 0 26 -1t30 -1q29 0 45.5 6
t16.5 23v75t1 66v12q0 40 -7 51q-73 117 -108.5 175.5t-115.5 193.5q-7 13 -43 13q-16 0 -31.5 -1t-30.5 -2q-20 0 -30.5 6.5t-10.5 16.5t9.5 17.5t25.5 7.5h24h16h31h25h21h19h16h15h13h12h11h37t40 1h13q23 0 33.5 -5.5t10.5 -15.5t-10.5 -18t-27.5 -8h-25.5t-25.5 1
q-28 0 -45.5 -2.5t-9.5 -19.5q28 -57 74 -134q27 -46 79 -127q36 -57 37 -57t21 31.5t60 100.5q55 94 107 191q6 10 0 14t-21 4q-18 0 -28 -1q-51 -5 -52 -5q-17 0 -29 9t-12 20q0 9 10 15.5t32 6.5h28h18h34h26h21h17h15h13h11h38.5t42.5 1h14q13 0 21 -8t8 -19
q0 -22 -25 -22zM563 802q0 -23 -17 -40t-40 -17q-24 0 -41 16t-17 41q0 24 17 41t41 17q23 0 40 -17t17 -41zM380 802q0 -23 -17 -40t-41 -17q-23 0 -40 16t-17 41q0 24 16 41t41 17q24 0 41 -17t17 -41z" />
    <glyph glyph-name="fraction" unicode="&#x2215;" horiz-adv-x="60" 
d="M267 671l-418 -653q-10 -15 -12 -16q-3 -2 -21 -2q-8 -1 -14 -1q-15 0 -15 9q0 3 8 16l416 647q10 15 13 17q5 3 22 3h15q12 0 12 -5q0 -4 -6 -15z" />
    <glyph glyph-name="currency" unicode="&#xa4;" horiz-adv-x="660" 
d="M555 77l-50 -51l-53 53q-31 -25 -68.5 -38.5t-78.5 -13.5q-87 0 -151 52l-53 -53l-51 51l53 53q-48 65 -48 144q0 42 11.5 80t37.5 68l-54 54l51 52l54 -55q30 25 70.5 38t80.5 13q83 0 144 -49l53 53l51 -52l-54 -52q26 -30 39 -68.5t13 -79.5q0 -40 -12 -77.5
t-38 -68.5zM471 276q0 68 -48.5 117.5t-116.5 49.5q-71 0 -120.5 -48.5t-49.5 -120.5q0 -70 49 -118t120 -48q69 0 117.5 49.5t48.5 118.5z" />
    <glyph glyph-name="guilsinglleft" unicode="&#x2039;" 
 />
    <glyph glyph-name="guilsinglright" unicode="&#x203a;" 
 />
    <glyph glyph-name="fi" unicode="&#xf001;" 
 />
    <glyph glyph-name="fl" unicode="&#xf002;" 
 />
    <glyph glyph-name="daggerdbl" unicode="&#x2021;" 
 />
    <glyph glyph-name="periodcentered" unicode="&#xb7;" horiz-adv-x="200" 
d="M108 300q-23 0 -36.5 14.5t-13.5 35.5q0 20 13 35t37 15q25 0 37.5 -14t12.5 -36q0 -20 -13 -35t-37 -15z" />
    <glyph glyph-name="periodcentered" unicode="&#x2219;" horiz-adv-x="200" 
d="M108 300q-23 0 -36.5 14.5t-13.5 35.5q0 20 13 35t37 15q25 0 37.5 -14t12.5 -36q0 -20 -13 -35t-37 -15z" />
    <glyph glyph-name="quotesinglbase" unicode="&#x201a;" 
 />
    <glyph glyph-name="quotedblbase" unicode="&#x201e;" 
 />
    <glyph glyph-name="perthousand" unicode="&#x2030;" 
 />
    <glyph glyph-name="Acircumflex" unicode="&#xc2;" horiz-adv-x="814" 
d="M774 -5q-14 2 -35 3t-45 1q-31 0 -111.5 -2t-94.5 -2q-17 0 -27.5 6.5t-10.5 15.5q0 22 39 22q7 0 28.5 -2t25.5 -2q18 0 27.5 3.5t18.5 15.5q7 9 -28 100q-11 30 -36 90h-261q-20 -59 -29 -89q-29 -93 -23 -100q7 -8 19.5 -11.5t27.5 -3.5t37.5 2.5t23.5 2.5q15 0 26 -9
t11 -21q0 -20 -37 -20l-148 1l-129 -2q-18 0 -27.5 6.5t-9.5 15.5q0 10 9.5 18.5t24.5 8.5q6 0 22 -1t24 -1q17 0 27.5 3.5t14.5 14.5l226 624q3 8 19 13t33 5q18 0 30.5 -4.5t15.5 -13.5q14 -37 88 -257q60 -177 89 -255q43 -116 58 -123q10 -4 21 -5.5t28 -1.5h19.5
t18.5 1q31 0 31 -25q0 -10 -8.5 -17t-22.5 -5zM507 304q6 4 -47 163l-58 156q-4 -2 -33.5 -84.5t-52.5 -151.5q-27 -83 -24 -84q4 -1 38.5 -1.5t70.5 -0.5h19h17h14h11q40 0 45 3zM589 754q0 -12 -13 -12q-12 0 -78 30q-55 25 -88 42q-66 -35 -107.5 -54t-53.5 -19
q-15 0 -15 13q0 5 9 11.5t11 8.5l138 98q4 3 10.5 7.5t10.5 4.5q2 0 10.5 -5.5t9.5 -6.5l140 -98q12 -8 13 -10q3 -4 3 -10z" />
    <glyph glyph-name="Ecircumflex" unicode="&#xca;" horiz-adv-x="732" 
d="M674 230q0 -26 -2 -49q-5 -58 -5 -64v-38t1 -42q0 -17 -13 -28t-31 -11h-580q-18 0 -29.5 7.5t-11.5 17.5q0 23 39 23q14 0 28 -0.5t28 -0.5q30 0 46 5.5t16 23.5q0 43 2 172.5t2 152.5q0 65 -1.5 124t-10.5 110q-3 16 -16.5 21.5t-34.5 5.5q-14 0 -26.5 -1t-23.5 -2
q-22 0 -34 7t-12 16q0 23 43 23h555q49 0 49 -31q0 -6 -1 -9q-5 -21 -7 -42t-2 -39q0 -24 3.5 -62.5t3.5 -48.5q0 -19 -10.5 -31.5t-23.5 -12.5q-24 0 -24 36v9q0 84 -3 107.5t-22 53.5q-8 13 -52.5 20t-101.5 7q-88 0 -165 -11q-6 -1 -9.5 -35.5t-3.5 -85.5
q0 -52 2.5 -82.5t6.5 -33.5q6 -3 32.5 -6t52.5 -3q37 0 58.5 3.5t25.5 15t4 33.5q0 8 -1 28t-1 33q0 42 25 42q30 0 30 -51t-1 -86t-2 -69q0 -4 5 -63q2 -24 2 -51q0 -45 -28 -45q-13 0 -20.5 10.5t-5.5 30.5q0 35 -2.5 62.5t-8.5 45.5q-2 6 -31.5 9t-65.5 3
q-33 0 -49.5 -1.5t-18.5 -5.5t-5 -37q-7 -69 -7 -128q0 -48 4.5 -80t17 -40t58 -13t105.5 -5q45 0 85.5 3t78.5 11q18 3 25.5 29t7.5 66q0 17 -2.5 47t-2.5 37q0 44 31 44q35 0 35 -51zM538 754q0 -12 -13 -12q-12 0 -78 30q-55 25 -88 42q-66 -35 -107.5 -54t-53.5 -19
q-15 0 -15 13q0 5 9 11.5t11 8.5l138 98q4 3 10.5 7.5t10.5 4.5q2 0 10.5 -5.5t9.5 -6.5l140 -98q12 -8 13 -10q3 -4 3 -10z" />
    <glyph glyph-name="Aacute" unicode="&#xc1;" horiz-adv-x="814" 
d="M774 -5q-14 2 -35 3t-45 1q-31 0 -111.5 -2t-94.5 -2q-17 0 -27.5 6.5t-10.5 15.5q0 22 39 22q7 0 28.5 -2t25.5 -2q18 0 27.5 3.5t18.5 15.5q7 9 -28 100q-11 30 -36 90h-261q-20 -59 -29 -89q-29 -93 -23 -100q7 -8 19.5 -11.5t27.5 -3.5t37.5 2.5t23.5 2.5q15 0 26 -9
t11 -21q0 -20 -37 -20l-148 1l-129 -2q-18 0 -27.5 6.5t-9.5 15.5q0 10 9.5 18.5t24.5 8.5q6 0 22 -1t24 -1q17 0 27.5 3.5t14.5 14.5l226 624q3 8 19 13t33 5q18 0 30.5 -4.5t15.5 -13.5q14 -37 88 -257q60 -177 89 -255q43 -116 58 -123q10 -4 21 -5.5t28 -1.5h19.5
t18.5 1q31 0 31 -25q0 -10 -8.5 -17t-22.5 -5zM507 304q6 4 -47 163l-58 156q-4 -2 -33.5 -84.5t-52.5 -151.5q-27 -83 -24 -84q4 -1 38.5 -1.5t70.5 -0.5h19h17h14h11q40 0 45 3zM510 831q0 -15 -10 -23.5t-28 -13.5l-139 -44q-11 -3 -22 -5q-13 0 -13 10q0 6 5 11t13 11
l106 77q13 10 21 14t22 4q19 0 32 -12t13 -29z" />
    <glyph glyph-name="Edieresis" unicode="&#xcb;" horiz-adv-x="732" 
d="M674 230q0 -26 -2 -49q-5 -58 -5 -64v-38t1 -42q0 -17 -13 -28t-31 -11h-580q-18 0 -29.5 7.5t-11.5 17.5q0 23 39 23q14 0 28 -0.5t28 -0.5q30 0 46 5.5t16 23.5q0 43 2 172.5t2 152.5q0 65 -1.5 124t-10.5 110q-3 16 -16.5 21.5t-34.5 5.5q-14 0 -26.5 -1t-23.5 -2
q-22 0 -34 7t-12 16q0 23 43 23h555q49 0 49 -31q0 -6 -1 -9q-5 -21 -7 -42t-2 -39q0 -24 3.5 -62.5t3.5 -48.5q0 -19 -10.5 -31.5t-23.5 -12.5q-24 0 -24 36v9q0 84 -3 107.5t-22 53.5q-8 13 -52.5 20t-101.5 7q-88 0 -165 -11q-6 -1 -9.5 -35.5t-3.5 -85.5
q0 -52 2.5 -82.5t6.5 -33.5q6 -3 32.5 -6t52.5 -3q37 0 58.5 3.5t25.5 15t4 33.5q0 8 -1 28t-1 33q0 42 25 42q30 0 30 -51t-1 -86t-2 -69q0 -4 5 -63q2 -24 2 -51q0 -45 -28 -45q-13 0 -20.5 10.5t-5.5 30.5q0 35 -2.5 62.5t-8.5 45.5q-2 6 -31.5 9t-65.5 3
q-33 0 -49.5 -1.5t-18.5 -5.5t-5 -37q-7 -69 -7 -128q0 -48 4.5 -80t17 -40t58 -13t105.5 -5q45 0 85.5 3t78.5 11q18 3 25.5 29t7.5 66q0 17 -2.5 47t-2.5 37q0 44 31 44q35 0 35 -51zM500 802q0 -23 -17 -40t-40 -17q-24 0 -41 16t-17 41q0 24 17 41t41 17q23 0 40 -17
t17 -41zM317 802q0 -23 -17 -40t-41 -17q-23 0 -40 16t-17 41q0 24 16 41t41 17q24 0 41 -17t17 -41z" />
    <glyph glyph-name="Egrave" unicode="&#xc8;" horiz-adv-x="732" 
d="M674 230q0 -26 -2 -49q-5 -58 -5 -64v-38t1 -42q0 -17 -13 -28t-31 -11h-580q-18 0 -29.5 7.5t-11.5 17.5q0 23 39 23q14 0 28 -0.5t28 -0.5q30 0 46 5.5t16 23.5q0 43 2 172.5t2 152.5q0 65 -1.5 124t-10.5 110q-3 16 -16.5 21.5t-34.5 5.5q-14 0 -26.5 -1t-23.5 -2
q-22 0 -34 7t-12 16q0 23 43 23h555q49 0 49 -31q0 -6 -1 -9q-5 -21 -7 -42t-2 -39q0 -24 3.5 -62.5t3.5 -48.5q0 -19 -10.5 -31.5t-23.5 -12.5q-24 0 -24 36v9q0 84 -3 107.5t-22 53.5q-8 13 -52.5 20t-101.5 7q-88 0 -165 -11q-6 -1 -9.5 -35.5t-3.5 -85.5
q0 -52 2.5 -82.5t6.5 -33.5q6 -3 32.5 -6t52.5 -3q37 0 58.5 3.5t25.5 15t4 33.5q0 8 -1 28t-1 33q0 42 25 42q30 0 30 -51t-1 -86t-2 -69q0 -4 5 -63q2 -24 2 -51q0 -45 -28 -45q-13 0 -20.5 10.5t-5.5 30.5q0 35 -2.5 62.5t-8.5 45.5q-2 6 -31.5 9t-65.5 3
q-33 0 -49.5 -1.5t-18.5 -5.5t-5 -37q-7 -69 -7 -128q0 -48 4.5 -80t17 -40t58 -13t105.5 -5q45 0 85.5 3t78.5 11q18 3 25.5 29t7.5 66q0 17 -2.5 47t-2.5 37q0 44 31 44q35 0 35 -51zM473 749q0 -10 -14 -10q-5 0 -12 2.5t-10 2.5l-138 44q-19 5 -28.5 13t-9.5 24t13 28.5
t32 12.5q12 0 20 -4t22 -14l106 -77q6 -5 12.5 -10t6.5 -12z" />
    <glyph glyph-name="Iacute" unicode="&#xcd;" horiz-adv-x="414" 
d="M374 703q31 0 31 -27q0 -11 -9.5 -18.5t-28.5 -7.5q-4 0 -22 1t-29 1q-29 0 -48.5 -8t-19.5 -30v-538q0 -18 17 -24.5t44 -6.5q16 0 28.5 1t23.5 2q20 0 32.5 -8.5t12.5 -19.5q0 -23 -37 -23h-306q-25 0 -39 7.5t-14 18.5q0 25 52 25q14 0 29 -1l30 -2q23 0 34 6t11 24
l-2 537q0 24 -26 31t-69 7h-24q-17 0 -27.5 7.5t-10.5 18.5q0 27 40 27h327zM321 831q0 -15 -10 -23.5t-28 -13.5l-139 -44q-11 -3 -22 -5q-13 0 -13 10q0 6 5 11t13 11l106 77q13 10 21 14t22 4q19 0 32 -12t13 -29z" />
    <glyph glyph-name="Icircumflex" unicode="&#xce;" horiz-adv-x="414" 
d="M374 703q31 0 31 -27q0 -11 -9.5 -18.5t-28.5 -7.5q-4 0 -22 1t-29 1q-29 0 -48.5 -8t-19.5 -30v-538q0 -18 17 -24.5t44 -6.5q16 0 28.5 1t23.5 2q20 0 32.5 -8.5t12.5 -19.5q0 -23 -37 -23h-306q-25 0 -39 7.5t-14 18.5q0 25 52 25q14 0 29 -1l30 -2q23 0 34 6t11 24
l-2 537q0 24 -26 31t-69 7h-24q-17 0 -27.5 7.5t-10.5 18.5q0 27 40 27h327zM388 754q0 -12 -13 -12q-12 0 -78 30q-55 25 -88 42q-66 -35 -107.5 -54t-53.5 -19q-15 0 -15 13q0 5 9 11.5t11 8.5l138 98q4 3 10.5 7.5t10.5 4.5q2 0 10.5 -5.5t9.5 -6.5l140 -98q12 -8 13 -10
q3 -4 3 -10z" />
    <glyph glyph-name="Idieresis" unicode="&#xcf;" horiz-adv-x="414" 
d="M374 703q31 0 31 -27q0 -11 -9.5 -18.5t-28.5 -7.5q-4 0 -22 1t-29 1q-29 0 -48.5 -8t-19.5 -30v-538q0 -18 17 -24.5t44 -6.5q16 0 28.5 1t23.5 2q20 0 32.5 -8.5t12.5 -19.5q0 -23 -37 -23h-306q-25 0 -39 7.5t-14 18.5q0 25 52 25q14 0 29 -1l30 -2q23 0 34 6t11 24
l-2 537q0 24 -26 31t-69 7h-24q-17 0 -27.5 7.5t-10.5 18.5q0 27 40 27h327zM350 802q0 -23 -17 -40t-40 -17q-24 0 -41 16t-17 41q0 24 17 41t41 17q23 0 40 -17t17 -41zM167 802q0 -23 -17 -40t-41 -17q-23 0 -40 16t-17 41q0 24 16 41t41 17q24 0 41 -17t17 -41z" />
    <glyph glyph-name="Igrave" unicode="&#xcc;" horiz-adv-x="414" 
d="M374 703q31 0 31 -27q0 -11 -9.5 -18.5t-28.5 -7.5q-4 0 -22 1t-29 1q-29 0 -48.5 -8t-19.5 -30v-538q0 -18 17 -24.5t44 -6.5q16 0 28.5 1t23.5 2q20 0 32.5 -8.5t12.5 -19.5q0 -23 -37 -23h-306q-25 0 -39 7.5t-14 18.5q0 25 52 25q14 0 29 -1l30 -2q23 0 34 6t11 24
l-2 537q0 24 -26 31t-69 7h-24q-17 0 -27.5 7.5t-10.5 18.5q0 27 40 27h327zM317 749q0 -10 -14 -10q-5 0 -12 2.5t-10 2.5l-138 44q-19 5 -28.5 13t-9.5 24t13 28.5t32 12.5q12 0 20 -4t22 -14l106 -77q6 -5 12.5 -10t6.5 -12z" />
    <glyph glyph-name="Oacute" unicode="&#xd3;" horiz-adv-x="698" 
d="M631 351q0 -150 -64 -242q-76 -109 -224 -109q-152 0 -229 119q-61 95 -61 234q0 141 72 240q81 112 215 112q142 0 221 -110q70 -98 70 -244zM554 353q0 122 -48 202q-57 94 -163 94q-108 0 -163 -88q-49 -78 -49 -208q0 -131 46 -207q55 -91 166 -91q118 0 170 94
q41 74 41 204zM441 831q0 -15 -10 -23.5t-28 -13.5l-139 -44q-11 -3 -22 -5q-13 0 -13 10q0 6 5 11t13 11l106 77q13 10 21 14t22 4q19 0 32 -12t13 -29z" />
    <glyph glyph-name="Ocircumflex" unicode="&#xd4;" horiz-adv-x="698" 
d="M631 351q0 -150 -64 -242q-76 -109 -224 -109q-152 0 -229 119q-61 95 -61 234q0 141 72 240q81 112 215 112q142 0 221 -110q70 -98 70 -244zM554 353q0 122 -48 202q-57 94 -163 94q-108 0 -163 -88q-49 -78 -49 -208q0 -131 46 -207q55 -91 166 -91q118 0 170 94
q41 74 41 204zM508 751q0 -12 -13 -12q-12 0 -78 30q-55 25 -88 42q-66 -35 -107.5 -54t-53.5 -19q-15 0 -15 13q0 5 9 11.5t11 8.5l138 98q4 3 10.5 7.5t10.5 4.5q2 0 10.5 -5.5t9.5 -6.5l140 -98q12 -8 13 -10q3 -4 3 -10z" />
    <glyph glyph-name="apple" unicode="&#xf000;" horiz-adv-x="822" 
 />
    <glyph glyph-name="Ograve" unicode="&#xd2;" horiz-adv-x="698" 
d="M631 351q0 -150 -64 -242q-76 -109 -224 -109q-152 0 -229 119q-61 95 -61 234q0 141 72 240q81 112 215 112q142 0 221 -110q70 -98 70 -244zM554 353q0 122 -48 202q-57 94 -163 94q-108 0 -163 -88q-49 -78 -49 -208q0 -131 46 -207q55 -91 166 -91q118 0 170 94
q41 74 41 204zM443 749q0 -10 -14 -10q-5 0 -12 2.5t-10 2.5l-138 44q-19 5 -28.5 13t-9.5 24t13 28.5t32 12.5q12 0 20 -4t22 -14l106 -77q6 -5 12.5 -10t6.5 -12z" />
    <glyph glyph-name="Uacute" unicode="&#xda;" horiz-adv-x="828" 
d="M783 655q-6 0 -26 1t-31 1q-33 0 -42.5 -5.5t-9.5 -18.5q0 -109 -3 -223t-3 -222q0 -101 -82 -152q-68 -42 -176 -42q-104 0 -171 43q-79 51 -79 149l1 448q0 13 -11.5 18t-30.5 5q-11 0 -32 -2t-30 -2q-39 0 -39 24q0 25 33 25q78 0 161 1t132 1q36 0 36 -25
q0 -23 -37 -23q-7 0 -24 1.5t-19 1.5q-23 0 -37.5 -6t-19.5 -29.5t-7.5 -66t-2.5 -107.5q0 -96 1 -157.5t2 -114.5q0 -59 61 -101q55 -38 113 -38q73 0 127 35q61 39 61 102v208q0 57 -0.5 132t-8.5 112q-3 18 -7 22q-8 8 -34 8h-24q-13 -3 -20 -4q-17 -3 -29.5 5.5
t-12.5 20.5q0 10 10.5 17t31.5 7h273q23 0 33.5 -6.5t10.5 -17.5q0 -10 -10.5 -18.5t-27.5 -6.5zM510 831q0 -15 -10 -23.5t-28 -13.5l-139 -44q-11 -3 -22 -5q-13 0 -13 10q0 6 5 11t13 11l106 77q13 10 21 14t22 4q19 0 32 -12t13 -29z" />
    <glyph glyph-name="Ucircumflex" unicode="&#xdb;" horiz-adv-x="828" 
d="M783 655q-6 0 -26 1t-31 1q-33 0 -42.5 -5.5t-9.5 -18.5q0 -109 -3 -223t-3 -222q0 -101 -82 -152q-68 -42 -176 -42q-104 0 -171 43q-79 51 -79 149l1 448q0 13 -11.5 18t-30.5 5q-11 0 -32 -2t-30 -2q-39 0 -39 24q0 25 33 25q78 0 161 1t132 1q36 0 36 -25
q0 -23 -37 -23q-7 0 -24 1.5t-19 1.5q-23 0 -37.5 -6t-19.5 -29.5t-7.5 -66t-2.5 -107.5q0 -96 1 -157.5t2 -114.5q0 -59 61 -101q55 -38 113 -38q73 0 127 35q61 39 61 102v208q0 57 -0.5 132t-8.5 112q-3 18 -7 22q-8 8 -34 8h-24q-13 -3 -20 -4q-17 -3 -29.5 5.5
t-12.5 20.5q0 10 10.5 17t31.5 7h273q23 0 33.5 -6.5t10.5 -17.5q0 -10 -10.5 -18.5t-27.5 -6.5zM589 754q0 -12 -13 -12q-12 0 -78 30q-55 25 -88 42q-66 -35 -107.5 -54t-53.5 -19q-15 0 -15 13q0 5 9 11.5t11 8.5l138 98q4 3 10.5 7.5t10.5 4.5q2 0 10.5 -5.5t9.5 -6.5
l140 -98q12 -8 13 -10q3 -4 3 -10z" />
    <glyph glyph-name="Ugrave" unicode="&#xd9;" horiz-adv-x="828" 
d="M783 655q-6 0 -26 1t-31 1q-33 0 -42.5 -5.5t-9.5 -18.5q0 -109 -3 -223t-3 -222q0 -101 -82 -152q-68 -42 -176 -42q-104 0 -171 43q-79 51 -79 149l1 448q0 13 -11.5 18t-30.5 5q-11 0 -32 -2t-30 -2q-39 0 -39 24q0 25 33 25q78 0 161 1t132 1q36 0 36 -25
q0 -23 -37 -23q-7 0 -24 1.5t-19 1.5q-23 0 -37.5 -6t-19.5 -29.5t-7.5 -66t-2.5 -107.5q0 -96 1 -157.5t2 -114.5q0 -59 61 -101q55 -38 113 -38q73 0 127 35q61 39 61 102v208q0 57 -0.5 132t-8.5 112q-3 18 -7 22q-8 8 -34 8h-24q-13 -3 -20 -4q-17 -3 -29.5 5.5
t-12.5 20.5q0 10 10.5 17t31.5 7h273q23 0 33.5 -6.5t10.5 -17.5q0 -10 -10.5 -18.5t-27.5 -6.5zM509 749q0 -10 -14 -10q-5 0 -12 2.5t-10 2.5l-138 44q-19 5 -28.5 13t-9.5 24t13 28.5t32 12.5q12 0 20 -4t22 -14l106 -77q6 -5 12.5 -10t6.5 -12z" />
    <glyph glyph-name="dotlessi" unicode="&#x131;" horiz-adv-x="348" 
d="M300 -5h-235q-43 0 -43 19q0 22 44 22q29 0 48 7q26 10 26 29v380q0 13 -14 18t-38 5q-9 0 -17.5 -0.5t-16.5 -0.5q-15 0 -24.5 7t-9.5 15q0 23 35 23h134q12 0 14 -1q3 -1 3 -8v-12v-424q0 -18 22.5 -30t52.5 -12q12 0 17 1q15 2 26 -5t11 -16q0 -17 -35 -17z" />
    <glyph glyph-name="circumflex" unicode="&#x2c6;" horiz-adv-x="0" 
d="M424 583q0 -12 -13 -12q-12 0 -78 30q-55 25 -88 42q-66 -35 -107.5 -54t-53.5 -19q-15 0 -15 13q0 5 9 11.5t11 8.5l138 98q4 3 10.5 7.5t10.5 4.5q2 0 10.5 -5.5t9.5 -6.5l140 -98q12 -8 13 -10q3 -4 3 -10z" />
    <glyph glyph-name="tilde" unicode="&#x2dc;" horiz-adv-x="0" 
d="M392 664q0 -9 -4 -18t-11 -18q-15 -17 -35.5 -28t-44.5 -11q-30 0 -101 24q-35 12 -60 12q-13 0 -23 -7q-3 -2 -17 -16q-8 -10 -14 -10q-13 0 -13 11q0 9 6 20t13 19q15 17 35.5 27t44.5 10q13 0 72.5 -18.5t83.5 -18.5q21 0 36.5 16.5t19.5 16.5q12 0 12 -11z" />
    <glyph glyph-name="macron" unicode="&#xaf;" horiz-adv-x="0" 
d="M391 617q0 -16 -14 -22t-38 -6h-220q-27 0 -40 5t-13 23q0 17 14.5 22.5t38.5 5.5h220q22 0 37 -6t15 -22z" />
    <glyph glyph-name="breve" unicode="&#x2d8;" horiz-adv-x="0" 
d="M454 712q0 -14 -14.5 -33.5t-29.5 -30.5q-59 -45 -149 -45q-85 0 -144 42q-19 14 -32 31q-16 21 -16 37q0 12 14 12q6 0 12 -2q2 -1 9 -5q16 -13 24.5 -18.5t28.5 -13.5t49 -14t55 -6q22 0 48 5t48 12.5t31.5 13t30.5 21.5q12 7 21 7q14 0 14 -13z" />
    <glyph glyph-name="dotaccent" unicode="&#x2d9;" horiz-adv-x="0" 
d="M184 628q0 -20 -17 -34t-41 -14q-23 0 -40 14t-17 34q0 21 16 35t41 14q24 0 41 -14t17 -35z" />
    <glyph glyph-name="ring" unicode="&#x2da;" horiz-adv-x="0" 
d="M217 652q0 -29 -20 -49t-48 -20t-48 20t-20 49q0 28 20 48t48 20t48 -20t20 -48zM185 652q0 15 -10 25t-26 10q-15 0 -25.5 -10.5t-10.5 -24.5q0 -16 10 -26t26 -10q15 0 25.5 10.5t10.5 25.5z" />
    <glyph glyph-name="cedilla" unicode="&#xb8;" horiz-adv-x="0" 
d="M256 -89q0 -33 -28 -50t-63 -17q-25 0 -51 11q-33 14 -33 36q0 19 18 19q8 0 18 -10q21 -21 46 -21q17 0 30 7t13 23q0 14 -10.5 21.5t-25.5 7.5q-10 0 -26 -5.5t-22 -5.5q-9 0 -9 8q0 4 3.5 13t3.5 10l19 44h39l-13 -33l22 2q27 0 48 -16.5t21 -43.5z" />
    <glyph glyph-name="hungarumlaut" unicode="&#x2ba;" horiz-adv-x="0" 
d="M335 737q0 -11 -5.5 -21.5t-15.5 -23.5l-64 -88q-5 -7 -9 -14q-5 -5 -10 -5q-11 0 -11 13q0 7 6 25l34 107q6 20 12 28q10 14 27 14q14 0 25 -10t11 -25zM204 737q0 -11 -7 -24q-2 -4 -15 -21l-63 -88q-5 -7 -8 -11q-6 -8 -11 -8q-11 0 -11 13q0 7 6 25l34 107
q6 20 12 28q10 14 27 14q14 0 25 -10t11 -25z" />
    <glyph glyph-name="ogonek" unicode="&#x2db;" horiz-adv-x="0" 
d="M256 -140q0 -16 -23 -23t-42 -7q-22 0 -38 3.5t-31 13.5t-26 28t-11 36q0 28 20 52q15 18 45 34h51l-4 -4q-35 -31 -46 -47t-11 -33q0 -21 15.5 -32.5t36.5 -11.5q11 0 26 4t22 4q16 0 16 -17z" />
    <glyph glyph-name="caron" unicode="&#x2c7;" horiz-adv-x="0" 
d="M424 690q0 -5 -5 -9q-8 -4 -11 -6l-140 -82q-3 -2 -10 -5.5t-10 -3.5q-4 0 -11 3q-5 2 -10 6l-138 82q-6 3 -13 7t-7 8q0 8 15 8q14 0 79 -23l82 -30q24 9 90 31t76 22q13 0 13 -8z" />
    <glyph glyph-name="Lslash" unicode="&#x141;" 
 />
    <glyph glyph-name="lslash" unicode="&#x142;" 
 />
    <glyph glyph-name="Scaron" unicode="&#x160;" horiz-adv-x="614" 
d="M561 200q0 -99 -76 -154q-68 -49 -171 -49q-83 0 -153 39q-23 13 -53 39v-49q0 -11 -9.5 -19.5t-21.5 -8.5q-10 0 -17.5 8t-7.5 23v229q-1 21 6 32t20 11q12 0 20.5 -11.5t8.5 -32.5q0 -113 59 -168q53 -49 147 -49q80 0 132 40.5t52 109.5q0 72 -56.5 110t-150.5 38
q-77 0 -138 37q-83 50 -83 148q0 86 61 133t172 47q80 0 131 -29q17 -9 36 -30v6q0 9 1 18q0 13 8 20t20 7q28 0 28 -26q0 -38 -1 -96t-1 -98q0 -19 -8 -31t-20 -12q-10 0 -16.5 11t-6.5 34q0 90 -50 138q-46 44 -123 44q-80 0 -122 -35t-42 -98q0 -65 46 -96
q42 -28 153 -42t168.5 -57.5t57.5 -130.5zM469 754q0 -12 -13 -12q-12 0 -78 30q-55 25 -88 42q-66 -35 -107.5 -54t-53.5 -19q-15 0 -15 13q0 5 9 11.5t11 8.5l138 98q4 3 10.5 7.5t10.5 4.5q2 0 10.5 -5.5t9.5 -6.5l140 -98q12 -8 13 -10q3 -4 3 -10z" />
    <glyph glyph-name="scaron" unicode="&#x161;" horiz-adv-x="457" 
d="M418 142q0 -64 -58 -105q-53 -37 -126 -37q-35 0 -89 21q-18 7 -48 22l-3 -18q-1 -13 -8.5 -19t-18.5 -6q-27 0 -27 30q3 32 4 43.5t1 31.5q0 25 -2 43t-3 31q0 33 24 33q11 0 18.5 -10.5t4.5 -28.5q-1 -6 -1 -17q0 -48 40 -79.5t110 -31.5q57 0 89 26t32 73t-50 73
q-38 20 -99.5 27t-104.5 36q-53 35 -53 87q0 64 52 110t119 46q54 0 93 -18q13 -6 29 -19l2 21q1 7 4 10q6 6 18 6q23 0 23 -19v-144q0 -27 -21 -27q-19 0 -19 36q0 47 -25 75q-32 36 -104 36q-44 0 -75.5 -29.5t-31.5 -72.5q0 -46 55 -68q29 -11 99 -20.5t107 -42.5
q43 -38 43 -105zM391 583q0 -12 -13 -12q-12 0 -78 30q-55 25 -88 42q-66 -35 -107.5 -54t-53.5 -19q-15 0 -15 13q0 5 9 11.5t11 8.5l138 98q4 3 10.5 7.5t10.5 4.5q2 0 10.5 -5.5t9.5 -6.5l140 -98q12 -8 13 -10q3 -4 3 -10z" />
    <glyph glyph-name="Zcaron" unicode="&#x17d;" 
 />
    <glyph glyph-name="zcaron" unicode="&#x17e;" 
 />
    <glyph glyph-name="brokenbar" unicode="&#xa6;" 
 />
    <glyph glyph-name="Eth" unicode="&#xd0;" 
 />
    <glyph glyph-name="eth" unicode="&#xf0;" 
 />
    <glyph glyph-name="Yacute" unicode="&#xdd;" 
 />
    <glyph glyph-name="yacute" unicode="&#xfd;" 
 />
    <glyph glyph-name="Thorn" unicode="&#xde;" 
 />
    <glyph glyph-name="thorn" unicode="&#xfe;" 
 />
    <glyph glyph-name="minus" unicode="&#xad;" 
 />
    <glyph glyph-name="multiply" unicode="&#xd7;" 
 />
    <glyph glyph-name="onesuperior" unicode="&#xb9;" 
 />
    <glyph glyph-name="twosuperior" unicode="&#xb2;" 
 />
    <glyph glyph-name="threesuperior" unicode="&#xb3;" 
 />
    <glyph glyph-name="onehalf" unicode="&#xbd;" 
 />
    <glyph glyph-name="onequarter" unicode="&#xbc;" 
 />
    <glyph glyph-name="threequarters" unicode="&#xbe;" 
 />
  </font>
</defs>
</svg>
